<?xml version="1.0" encoding="utf-8"?>
<!-- Generator: Adobe Illustrator 18.1.1, SVG Export Plug-In . SVG Version: 6.00 Build 0)  -->
<svg version="1.1" id="Capa_5" xmlns="http://www.w3.org/2000/svg" xmlns:xlink="http://www.w3.org/1999/xlink" x="0px" y="0px"
	 viewBox="0 0 319 188" enable-background="new 0 0 319 188" xml:space="preserve">
<g>
	<rect fill="#00A9CE" width="319" height="188"/>
	<g>
		<g>
			<path fill="#FFFFFF" d="M48.5,88c2.6-1.8,3.6-4.1,3.6-6.3c0-3.3-2.6-5.5-8.1-5.5c-3.4,0-7.8,0.9-13.2,2.7l-2.1-10.6
				c5.7-1.7,11.5-2.8,16.8-2.8c10.6,0,18.6,4,18.6,14.5c0,5.9-3,9.9-7.5,12.9c6.3,3.4,9.1,8.1,9.1,13.6c0,10.2-8.6,14.6-20.3,14.6
				c-6.1,0-11.9-1-16.9-2.8l2.1-10.6c4.8,1.6,9.8,2.7,14.2,2.7c5.7,0,8.9-1.8,8.9-5.5c0-2.3-1.3-4.5-3.8-6H38.6L39.3,88H48.5z"/>
			<path fill="#FFFFFF" d="M80.8,114.8c0,3.5-2.7,6.2-6.2,6.2c-3.6,0-6.2-2.7-6.2-6.2c0-3.6,2.6-6.2,6.2-6.2
				C78.1,108.5,80.8,111.2,80.8,114.8z"/>
		</g>
		<g>
			<path fill="#FFFFFF" d="M98,52.6h10.2l-0.2,3.1h-6.6v3.1h5.5l-0.2,3.1h-5.3V65h6.8L108,68H98V52.6z"/>
			<path fill="#FFFFFF" d="M112.8,51.4v13.3c0,0.9,0.7,0.9,2.1,0.6l0.2,2.6c-0.9,0.2-1.6,0.4-2.7,0.4c-1.5,0-2.7-0.9-2.7-2.9V51.5
				L112.8,51.4z"/>
			<path fill="#FFFFFF" d="M126,61c0-0.8-0.4-1.2-1.2-1.2s-2,0.2-3.7,0.7l-0.4-2.6c1.5-0.5,3.4-0.8,4.8-0.8c2.3,0,3.7,1,3.7,3.8V68
				h-2.3l-0.4-0.9c-1.2,0.8-2.3,1.1-3.3,1.1c-1.6,0-3.1-1-3.1-3.1c0-2.2,1.4-3.2,5.9-3.6V61z M126,65.2v-1.6c-2.4,0.2-3,0.6-3,1.4
				c0,0.7,0.5,0.9,1,0.9C124.7,65.9,125.4,65.6,126,65.2z"/>
			<path fill="#FFFFFF" d="M131.5,65.2c1,0.3,2.4,0.5,3.3,0.5c0.7,0,1.2-0.3,1.1-1c-0.1-1-5.1-0.6-5.1-4.3c0-2.1,1.4-3.3,4.3-3.3
				c1.1,0,2.4,0.2,3.5,0.6l-0.4,2.6c-1-0.4-2.4-0.5-3.2-0.5c-0.7,0-1.2,0.3-1.1,1c0.1,1,5.1,0.5,5.1,4.3c0,2.2-1.5,3.3-4.4,3.3
				c-1.1,0-2.4-0.2-3.5-0.6L131.5,65.2z"/>
			<path fill="#FFFFFF" d="M143.1,63.7c0,1.4,0.9,2,2.3,2c1,0,2-0.3,3.1-0.5l0.4,2.4c-1.2,0.4-2.4,0.7-3.8,0.7
				c-3.2,0-5.1-1.6-5.1-5.6c0-4,2.2-5.6,5.1-5.6c3,0,5,2,4.3,6.6H143.1z M143.2,61.5h3.4c0-1.3-0.5-2-1.6-2S143.3,60.3,143.2,61.5z"
				/>
			<path fill="#FFFFFF" d="M151.5,65.2c1,0.3,2.4,0.5,3.3,0.5c0.7,0,1.2-0.3,1.1-1c-0.1-1-5.1-0.6-5.1-4.3c0-2.1,1.4-3.3,4.3-3.3
				c1.1,0,2.4,0.2,3.5,0.6l-0.4,2.6c-1-0.4-2.4-0.5-3.2-0.5c-0.7,0-1.2,0.3-1.1,1c0.1,1,5.1,0.5,5.1,4.3c0,2.2-1.5,3.3-4.4,3.3
				c-1.1,0-2.4-0.2-3.5-0.6L151.5,65.2z"/>
			<path fill="#FFFFFF" d="M165.5,57.1c3.3,0,5.4,1.8,5.4,5.6c0,3.8-2,5.6-5.4,5.6c-3.3,0-5.4-1.8-5.4-5.6
				C160.1,58.9,162.2,57.1,165.5,57.1z M165.5,65.5c1.3,0,2.2-0.7,2.2-2.9c0-2.1-0.9-2.9-2.2-2.9c-1.3,0-2.2,0.7-2.2,2.9
				C163.2,64.8,164.2,65.5,165.5,65.5z"/>
			<path fill="#FFFFFF" d="M179.5,60.6c-1.8-0.6-2.3-0.6-4,1.5V68h-3.1V57.4l3.1-0.2V59c1.7-2,2.6-2.2,4.3-1.7L179.5,60.6z"/>
			<path fill="#FFFFFF" d="M186.4,60h-1.7l0.2-2.7h1.5v-3.2l3.1-0.2v3.4h2.8l-0.2,2.7h-2.7v3.7c0,1.2,0.3,1.8,1.3,1.8
				c0.4,0,1-0.1,1.6-0.2l0.2,2.6c-1.1,0.3-1.8,0.4-2.5,0.4c-2.9,0-3.7-2-3.7-4.2V60z"/>
			<path fill="#FFFFFF" d="M196.2,63.7c0,1.4,0.9,2,2.3,2c1,0,2-0.3,3.1-0.5l0.4,2.4c-1.2,0.4-2.4,0.7-3.8,0.7
				c-3.2,0-5.1-1.6-5.1-5.6c0-4,2.2-5.6,5.1-5.6c3,0,5,2,4.3,6.6H196.2z M196.3,61.5h3.4c0-1.3-0.5-2-1.6-2
				C197,59.5,196.4,60.3,196.3,61.5z"/>
			<path fill="#FFFFFF" d="M213.4,64.3h-0.5c-0.5,0.7-0.3,1.4,0.6,1.4h0.7c3.1,0,4.8,1.2,4.8,3.1c0,2-1.8,4-6,4
				c-3.4,0-4.6-1.4-4.6-2.9c0-1,0.6-2,1.9-2.8c-0.3-0.4-0.4-0.9-0.4-1.3c0-0.7,0.3-1.4,0.8-1.9c-1.1-0.6-1.8-1.6-1.8-3.1
				c0-2.4,1.6-3.7,4.4-3.7c0.7,0,1.3,0.1,1.8,0.2h3.8l-0.2,2.7h-1c0,0.2,0.1,0.5,0.1,0.7C217.8,63.1,216.2,64.3,213.4,64.3z
				 M212.3,68.2c-0.5,0.4-0.8,0.9-0.8,1.4c0,0.6,0.4,1.2,1.9,1.2c1.4,0,2.6-0.4,2.6-1.4c0-0.7-0.9-1.1-2.4-1.1h-0.4
				C212.9,68.2,212.6,68.2,212.3,68.2z M213.4,59.3c-1,0-1.5,0.5-1.5,1.4c0,0.9,0.5,1.4,1.5,1.4c1,0,1.5-0.5,1.5-1.4
				C214.9,59.8,214.4,59.3,213.4,59.3z"/>
			<path fill="#FFFFFF" d="M227,57.4l3.1-0.2V68h-2.9l-0.2-1c-1.5,0.8-2.8,1.3-3.9,1.3c-1.5,0-3-0.9-3-3.5v-7.3l3.1-0.2v6.5
				c0,1.1,0.5,1.6,1.3,1.6c0.7,0,1.6-0.3,2.5-0.7V57.4z"/>
			<path fill="#FFFFFF" d="M235.3,54.3c0,1-0.7,1.8-1.8,1.8s-1.8-0.7-1.8-1.8c0-1,0.7-1.8,1.8-1.8S235.3,53.2,235.3,54.3z
				 M235.1,57.2V68H232V57.4L235.1,57.2z"/>
			<path fill="#FFFFFF" d="M242.4,61c0-0.8-0.4-1.2-1.2-1.2c-0.8,0-2,0.2-3.7,0.7l-0.4-2.6c1.5-0.5,3.4-0.8,4.8-0.8
				c2.3,0,3.7,1,3.7,3.8V68h-2.3l-0.4-0.9c-1.2,0.8-2.3,1.1-3.3,1.1c-1.6,0-3.1-1-3.1-3.1c0-2.2,1.4-3.2,5.9-3.6V61z M242.4,65.2
				v-1.6c-2.4,0.2-3,0.6-3,1.4c0,0.7,0.5,0.9,1,0.9C241,65.9,241.7,65.6,242.4,65.2z"/>
			<path fill="#FFFFFF" d="M254.5,60.6c-1.8-0.6-2.3-0.6-4,1.5V68h-3.1V57.4l3.1-0.2V59c1.7-2,2.6-2.2,4.3-1.7L254.5,60.6z"/>
			<path fill="#FFFFFF" d="M261,61c0-0.8-0.4-1.2-1.2-1.2c-0.8,0-2,0.2-3.7,0.7l-0.4-2.6c1.5-0.5,3.4-0.8,4.8-0.8
				c2.3,0,3.7,1,3.7,3.8V68h-2.3l-0.4-0.9c-1.2,0.8-2.3,1.1-3.3,1.1c-1.6,0-3.1-1-3.1-3.1c0-2.2,1.4-3.2,5.9-3.6V61z M263.3,52.4
				l-2.7,3.7H258l1.8-3.7H263.3z M261,65.2v-1.6c-2.4,0.2-3,0.6-3,1.4c0,0.7,0.5,0.9,1,0.9C259.7,65.9,260.4,65.6,261,65.2z"/>
			<path fill="#FFFFFF" d="M273.6,63.7c0,1.4,0.9,2,2.3,2c1,0,2-0.3,3.1-0.5l0.4,2.4c-1.2,0.4-2.4,0.7-3.8,0.7
				c-3.2,0-5.1-1.6-5.1-5.6c0-4,2.2-5.6,5.1-5.6c3,0,5,2,4.3,6.6H273.6z M273.6,61.5h3.4c0-1.3-0.5-2-1.6-2
				C274.4,59.5,273.7,60.3,273.6,61.5z"/>
			<path fill="#FFFFFF" d="M284.7,68h-3.1V57.4l3.1-0.2v1.1c1.6-0.8,2.8-1.3,3.9-1.3c1.5,0,3,0.9,3,3.5V68h-3.1v-6.4
				c0-1.1-0.5-1.6-1.3-1.6c-0.7,0-1.6,0.4-2.5,0.7V68z"/>
			<path fill="#FFFFFF" d="M98.8,85h-1.7l0.2-2.7h1.5v-3.2l3.1-0.2v3.4h2.8l-0.2,2.7h-2.7v3.7c0,1.2,0.3,1.8,1.3,1.8
				c0.4,0,1-0.1,1.6-0.2l0.2,2.6c-1.1,0.3-1.8,0.4-2.5,0.4c-2.9,0-3.7-2-3.7-4.2V85z"/>
			<path fill="#FFFFFF" d="M110.9,82.1c3.3,0,5.4,1.8,5.4,5.6c0,3.8-2,5.6-5.4,5.6c-3.3,0-5.4-1.8-5.4-5.6
				C105.5,83.9,107.6,82.1,110.9,82.1z M110.9,90.5c1.3,0,2.2-0.7,2.2-2.9c0-2.1-0.9-2.9-2.2-2.9c-1.3,0-2.2,0.7-2.2,2.9
				C108.7,89.8,109.6,90.5,110.9,90.5z"/>
			<path fill="#FFFFFF" d="M124.7,76.5l3.1-0.2V93h-2.9l-0.2-1.1c-1.2,0.8-2.4,1.3-3.5,1.3c-2.2,0-3.9-1.9-3.9-5.6
				c0-3.9,2.2-5.6,4.6-5.6c0.9,0,1.8,0.2,2.7,0.6V76.5z M122.7,84.8c-1.2,0-2.2,0.7-2.2,2.9c0,2,0.7,2.6,1.7,2.6
				c0.7,0,1.5-0.3,2.5-0.7v-4.4C124.1,85,123.4,84.8,122.7,84.8z"/>
			<path fill="#FFFFFF" d="M134.7,82.1c3.3,0,5.4,1.8,5.4,5.6c0,3.8-2,5.6-5.4,5.6c-3.3,0-5.4-1.8-5.4-5.6
				C129.3,83.9,131.4,82.1,134.7,82.1z M134.7,90.5c1.3,0,2.2-0.7,2.2-2.9c0-2.1-0.9-2.9-2.2-2.9c-1.3,0-2.2,0.7-2.2,2.9
				C132.4,89.8,133.4,90.5,134.7,90.5z"/>
			<path fill="#FFFFFF" d="M149.1,88.7c0,1.4,0.9,2,2.3,2c1,0,2-0.3,3.1-0.5l0.4,2.4c-1.2,0.4-2.4,0.7-3.8,0.7
				c-3.2,0-5.1-1.6-5.1-5.6c0-4,2.2-5.6,5.1-5.6c3,0,5,2,4.3,6.6H149.1z M149.1,86.5h3.4c0-1.3-0.5-2-1.6-2S149.3,85.3,149.1,86.5z"
				/>
			<path fill="#FFFFFF" d="M160.2,76.4v13.3c0,0.9,0.7,0.9,2.1,0.6l0.2,2.6c-0.9,0.2-1.6,0.4-2.7,0.4c-1.5,0-2.7-0.9-2.7-2.9V76.5
				L160.2,76.4z"/>
			<path fill="#FFFFFF" d="M171.3,97.5l-3.1,0.2V82.4l3.1-0.2v1.1c1.2-0.8,2.4-1.3,3.5-1.3c2.2,0,3.8,1.9,3.8,5.6
				c0,3.9-2.2,5.6-4.6,5.6c-0.9,0-1.8-0.2-2.7-0.6V97.5z M173.3,90.5c1.2,0,2.2-0.7,2.2-2.9c0-2-0.7-2.6-1.7-2.6
				c-0.7,0-1.5,0.4-2.5,0.7v4.4C171.9,90.4,172.7,90.5,173.3,90.5z"/>
			<path fill="#FFFFFF" d="M187.2,85.6c-1.8-0.6-2.3-0.6-4,1.5V93h-3.1V82.4l3.1-0.2V84c1.7-2,2.6-2.2,4.3-1.7L187.2,85.6z"/>
			<path fill="#FFFFFF" d="M193.4,82.1c3.3,0,5.4,1.8,5.4,5.6c0,3.8-2,5.6-5.4,5.6c-3.3,0-5.4-1.8-5.4-5.6
				C188,83.9,190.1,82.1,193.4,82.1z M193.4,90.5c1.3,0,2.2-0.7,2.2-2.9c0-2.1-0.9-2.9-2.2-2.9c-1.3,0-2.2,0.7-2.2,2.9
				C191.2,89.8,192.1,90.5,193.4,90.5z"/>
			<path fill="#FFFFFF" d="M199.9,87.7c0-4,2.2-5.6,5.2-5.6c1,0,2.1,0.2,3.3,0.4l-0.4,2.7c-1-0.2-1.8-0.4-2.5-0.4
				c-1.7,0-2.4,0.9-2.4,2.9c0,1.9,0.7,2.9,2.4,2.9c0.7,0,1.5-0.1,2.5-0.4l0.4,2.7c-1.1,0.3-2.2,0.4-3.3,0.4
				C202.1,93.3,199.9,91.7,199.9,87.7z"/>
			<path fill="#FFFFFF" d="M212.3,88.7c0,1.4,0.9,2,2.3,2c1,0,2-0.3,3.1-0.5l0.4,2.4c-1.2,0.4-2.4,0.7-3.8,0.7
				c-3.2,0-5.1-1.6-5.1-5.6c0-4,2.2-5.6,5.1-5.6c3,0,5,2,4.3,6.6H212.3z M212.4,86.5h3.4c0-1.3-0.5-2-1.6-2
				C213.1,84.5,212.5,85.3,212.4,86.5z"/>
			<path fill="#FFFFFF" d="M220.8,90.2c1,0.3,2.4,0.5,3.3,0.5c0.7,0,1.2-0.3,1.1-1c-0.1-1-5.1-0.6-5.1-4.3c0-2.1,1.4-3.3,4.3-3.3
				c1.1,0,2.4,0.2,3.5,0.6l-0.4,2.6c-1-0.4-2.4-0.5-3.2-0.5c-0.7,0-1.2,0.3-1.1,1c0.1,1,5.1,0.5,5.1,4.3c0,2.2-1.5,3.3-4.4,3.3
				c-1.1,0-2.4-0.2-3.5-0.6L220.8,90.2z"/>
			<path fill="#FFFFFF" d="M234.7,82.1c3.3,0,5.4,1.8,5.4,5.6c0,3.8-2,5.6-5.4,5.6c-3.3,0-5.4-1.8-5.4-5.6
				C229.3,83.9,231.4,82.1,234.7,82.1z M234.7,90.5c1.3,0,2.2-0.7,2.2-2.9c0-2.1-0.9-2.9-2.2-2.9c-1.3,0-2.2,0.7-2.2,2.9
				C232.5,89.8,233.4,90.5,234.7,90.5z"/>
			<path fill="#FFFFFF" d="M250.9,89.8l2.2-7.5l3.4,0.2l-5.1,15.2l-3.3-0.2l1.5-4.4h-0.6l-3.5-10.6l3.4-0.2L250.9,89.8z"/>
			<path fill="#FFFFFF" d="M264.7,88.7c0,1.4,0.9,2,2.3,2c1,0,2-0.3,3.1-0.5l0.4,2.4c-1.2,0.4-2.4,0.7-3.8,0.7
				c-3.2,0-5.1-1.6-5.1-5.6c0-4,2.2-5.6,5.1-5.6c3,0,5,2,4.3,6.6H264.7z M264.8,86.5h3.4c0-1.3-0.5-2-1.6-2
				C265.5,84.5,264.9,85.3,264.8,86.5z"/>
			<path fill="#FFFFFF" d="M275.8,93h-3.1V82.4l3.1-0.2v1.1c1.6-0.8,2.8-1.3,3.9-1.3c1.5,0,3,0.9,3,3.5V93h-3.1v-6.4
				c0-1.1-0.5-1.6-1.3-1.6c-0.7,0-1.6,0.4-2.5,0.7V93z"/>
			<path fill="#FFFFFF" d="M101.9,115h6.1l-0.2,3.1H97.5l-0.2-3.1c4.4-3.2,6.8-5.5,6.8-7.5c0-1.3-0.8-2-2.4-2c-1,0-2.2,0.3-3.8,0.8
				l-0.6-3c1.7-0.5,3.3-0.8,4.8-0.8c3,0,5.3,1.3,5.3,5.1C107.5,109.9,105.6,112.4,101.9,115z"/>
			<path fill="#FFFFFF" d="M114.9,102.6c0,4.1-1.1,6.6-3.1,9.4h3.3v-3.2l3.4-0.2v3.4h2.2l-0.2,3.1h-2v3h-3.4v-3h-6.4l-0.2-3.1
				c2.1-2.8,2.9-5.6,2.9-9.4H114.9z"/>
			<path fill="#FFFFFF" d="M129.7,118h-3.1v-16.5l3.1-0.2v7c1.6-0.8,2.8-1.3,3.9-1.3c1.5,0,3,0.9,3,3.5v7.4h-3.1v-6.4
				c0-1.1-0.5-1.6-1.3-1.6c-0.7,0-1.6,0.4-2.5,0.7V118z"/>
			<path fill="#FFFFFF" d="M143.5,107.1c3.3,0,5.4,1.8,5.4,5.6c0,3.8-2,5.6-5.4,5.6c-3.3,0-5.4-1.8-5.4-5.6
				C138.1,108.9,140.2,107.1,143.5,107.1z M143.5,115.5c1.3,0,2.2-0.7,2.2-2.9c0-2.1-0.9-2.9-2.2-2.9c-1.3,0-2.2,0.7-2.2,2.9
				C141.2,114.8,142.2,115.5,143.5,115.5z"/>
			<path fill="#FFFFFF" d="M157.5,110.6c-1.8-0.6-2.3-0.6-4,1.5v5.9h-3.1v-10.6l3.1-0.2v1.8c1.7-2,2.6-2.2,4.3-1.7L157.5,110.6z"/>
			<path fill="#FFFFFF" d="M164,111c0-0.8-0.4-1.2-1.2-1.2c-0.8,0-2,0.2-3.7,0.7l-0.4-2.6c1.5-0.5,3.4-0.8,4.8-0.8
				c2.3,0,3.7,1,3.7,3.8v7.2h-2.3l-0.4-0.9c-1.2,0.8-2.3,1.1-3.3,1.1c-1.6,0-3.1-1-3.1-3.1c0-2.2,1.4-3.2,5.9-3.6V111z M164,115.2
				v-1.6c-2.4,0.2-3,0.6-3,1.4c0,0.7,0.5,0.9,1,0.9C162.7,115.9,163.4,115.6,164,115.2z"/>
			<path fill="#FFFFFF" d="M169.5,115.2c1,0.3,2.4,0.5,3.3,0.5c0.7,0,1.2-0.3,1.1-1c-0.1-1-5.1-0.6-5.1-4.3c0-2.1,1.4-3.3,4.3-3.3
				c1.1,0,2.4,0.2,3.5,0.6l-0.4,2.6c-1-0.4-2.4-0.5-3.2-0.5c-0.7,0-1.2,0.3-1.1,1c0.1,1,5.1,0.5,5.1,4.3c0,2.2-1.5,3.3-4.4,3.3
				c-1.1,0-2.4-0.2-3.5-0.6L169.5,115.2z"/>
			<path fill="#FFFFFF" d="M184.1,110h-1.7l0.2-2.7h1.5v-3.2l3.1-0.2v3.4h2.8l-0.2,2.7h-2.7v3.7c0,1.2,0.3,1.8,1.3,1.8
				c0.4,0,1-0.1,1.6-0.2l0.2,2.6c-1.1,0.3-1.8,0.4-2.5,0.4c-2.9,0-3.7-2-3.7-4.2V110z"/>
			<path fill="#FFFFFF" d="M198.5,107.4l3.1-0.2V118h-2.9l-0.2-1c-1.5,0.8-2.8,1.3-3.9,1.3c-1.5,0-3-0.9-3-3.5v-7.3l3.1-0.2v6.5
				c0,1.1,0.5,1.6,1.3,1.6c0.7,0,1.6-0.3,2.5-0.7V107.4z"/>
			<path fill="#FFFFFF" d="M211.5,118h-3.1v-10.6l3.1-0.2v1.1c1.6-0.8,2.8-1.3,3.9-1.3c1.5,0,3,0.9,3,3.5v7.4h-3.1v-6.4
				c0-1.1-0.5-1.6-1.3-1.6c-0.7,0-1.6,0.4-2.5,0.7V118z"/>
			<path fill="#FFFFFF" d="M227.2,107.4l3.1-0.2V118h-2.9l-0.2-1c-1.5,0.8-2.8,1.3-3.9,1.3c-1.5,0-3-0.9-3-3.5v-7.3l3.1-0.2v6.5
				c0,1.1,0.5,1.6,1.3,1.6c0.7,0,1.6-0.3,2.5-0.7V107.4z M228.6,102.4l-2.7,3.7h-2.6l1.8-3.7H228.6z"/>
			<path fill="#FFFFFF" d="M245.4,107.1c1.6,0,2.8,1,2.8,3.5v7.4h-3.1v-6.4c0-1.1-0.4-1.6-1.1-1.6c-0.7,0-1.5,0.3-2.2,0.7
				c0,0.3,0,0.6,0,1v6.4h-3.1v-6.4c0-1.1-0.4-1.6-1.1-1.6c-0.6,0-1.4,0.4-2.2,0.7v7.3h-3.1v-10.6l3.1-0.2v1.1
				c1.5-0.8,2.6-1.3,3.7-1.3c1,0,1.8,0.4,2.3,1.3C242.9,107.5,244.1,107.1,245.4,107.1z"/>
			<path fill="#FFFFFF" d="M252.8,113.7c0,1.4,0.9,2,2.3,2c1,0,2-0.3,3.1-0.5l0.4,2.4c-1.2,0.4-2.4,0.7-3.8,0.7
				c-3.2,0-5.1-1.6-5.1-5.6c0-4,2.2-5.6,5.1-5.6c3,0,5,2,4.3,6.6H252.8z M252.8,111.5h3.4c0-1.3-0.5-2-1.6-2
				C253.6,109.5,253,110.3,252.8,111.5z"/>
			<path fill="#FFFFFF" d="M267.9,110.6c-1.8-0.6-2.3-0.6-4,1.5v5.9h-3.1v-10.6l3.1-0.2v1.8c1.7-2,2.6-2.2,4.3-1.7L267.9,110.6z"/>
			<path fill="#FFFFFF" d="M274.1,107.1c3.3,0,5.4,1.8,5.4,5.6c0,3.8-2,5.6-5.4,5.6c-3.3,0-5.4-1.8-5.4-5.6
				C268.8,108.9,270.8,107.1,274.1,107.1z M274.1,115.5c1.3,0,2.2-0.7,2.2-2.9c0-2.1-0.9-2.9-2.2-2.9c-1.3,0-2.2,0.7-2.2,2.9
				C271.9,114.8,272.8,115.5,274.1,115.5z"/>
			<path fill="#FFFFFF" d="M98.4,140.2c1,0.3,2.4,0.5,3.3,0.5c0.7,0,1.2-0.3,1.1-1c-0.1-1-5.1-0.6-5.1-4.3c0-2.1,1.4-3.3,4.3-3.3
				c1.1,0,2.4,0.2,3.5,0.6l-0.4,2.6c-1-0.4-2.4-0.5-3.2-0.5c-0.7,0-1.2,0.3-1.1,1c0.1,1,5.1,0.5,5.1,4.3c0,2.2-1.5,3.3-4.4,3.3
				c-1.1,0-2.4-0.2-3.5-0.6L98.4,140.2z"/>
			<path fill="#FFFFFF" d="M110,138.7c0,1.4,0.9,2,2.3,2c1,0,2-0.3,3.1-0.5l0.4,2.4c-1.2,0.4-2.4,0.7-3.8,0.7
				c-3.2,0-5.1-1.6-5.1-5.6c0-4,2.2-5.6,5.1-5.6c3,0,5,2,4.3,6.6H110z M110.1,136.5h3.4c0-1.3-0.5-2-1.6-2S110.2,135.3,110.1,136.5z
				"/>
			<path fill="#FFFFFF" d="M125.1,135.6c-1.8-0.6-2.3-0.6-4,1.5v5.9h-3.1v-10.6l3.1-0.2v1.8c1.7-2,2.6-2.2,4.3-1.7L125.1,135.6z"/>
			<path fill="#FFFFFF" d="M131.7,136c0-0.8-0.4-1.2-1.2-1.2s-2,0.2-3.7,0.7l-0.4-2.6c1.5-0.5,3.4-0.8,4.8-0.8c2.3,0,3.7,1,3.7,3.8
				v7.2h-2.3l-0.4-0.9c-1.2,0.8-2.3,1.1-3.3,1.1c-1.6,0-3.1-1-3.1-3.1c0-2.2,1.4-3.2,5.9-3.6V136z M134,127.4l-2.7,3.7h-2.6l1.8-3.7
				H134z M131.7,140.2v-1.6c-2.4,0.2-3,0.6-3,1.4c0,0.7,0.5,0.9,1,0.9C130.3,140.9,131,140.6,131.7,140.2z"/>
			<path fill="#FFFFFF" d="M141.2,137.7c0-4,2.2-5.6,5.2-5.6c1,0,2.1,0.2,3.3,0.4l-0.4,2.7c-1-0.2-1.8-0.4-2.5-0.4
				c-1.7,0-2.4,0.9-2.4,2.9c0,1.9,0.7,2.9,2.4,2.9c0.7,0,1.5-0.1,2.5-0.4l0.4,2.7c-1.1,0.3-2.2,0.4-3.3,0.4
				C143.4,143.3,141.2,141.7,141.2,137.7z"/>
			<path fill="#FFFFFF" d="M156.2,136c0-0.8-0.4-1.2-1.2-1.2s-2,0.2-3.7,0.7l-0.4-2.6c1.5-0.5,3.4-0.8,4.8-0.8c2.3,0,3.7,1,3.7,3.8
				v7.2H157l-0.4-0.9c-1.2,0.8-2.3,1.1-3.3,1.1c-1.6,0-3.1-1-3.1-3.1c0-2.2,1.4-3.2,5.9-3.6V136z M156.2,140.2v-1.6
				c-2.4,0.2-3,0.6-3,1.4c0,0.7,0.5,0.9,1,0.9C154.9,140.9,155.6,140.6,156.2,140.2z"/>
			<path fill="#FFFFFF" d="M174.5,132.1c1.6,0,2.8,1,2.8,3.5v7.4h-3.1v-6.4c0-1.1-0.4-1.6-1.1-1.6c-0.7,0-1.5,0.3-2.2,0.7
				c0,0.3,0,0.6,0,1v6.4h-3.1v-6.4c0-1.1-0.4-1.6-1.1-1.6c-0.6,0-1.4,0.4-2.2,0.7v7.3h-3.1v-10.6l3.1-0.2v1.1
				c1.5-0.8,2.6-1.3,3.7-1.3c1,0,1.8,0.4,2.3,1.3C172,132.5,173.2,132.1,174.5,132.1z"/>
			<path fill="#FFFFFF" d="M179.2,126.5l3.1-0.2v7c1.2-0.8,2.4-1.3,3.5-1.3c2.2,0,3.8,1.9,3.8,5.6c0,4.1-2.3,5.6-5.4,5.6
				c-1.6,0-3.2-0.3-5-0.9V126.5z M184.3,140.5c1.2,0,2.2-0.7,2.2-2.9c0-2-0.7-2.6-1.7-2.6c-0.7,0-1.5,0.4-2.5,0.7v4.5
				C183,140.4,183.7,140.5,184.3,140.5z"/>
			<path fill="#FFFFFF" d="M194.4,129.3c0,1-0.7,1.8-1.8,1.8s-1.8-0.7-1.8-1.8c0-1,0.7-1.8,1.8-1.8S194.4,128.2,194.4,129.3z
				 M194.2,132.2V143h-3.1v-10.6L194.2,132.2z"/>
			<path fill="#FFFFFF" d="M201.5,136c0-0.8-0.4-1.2-1.2-1.2c-0.8,0-2,0.2-3.7,0.7l-0.4-2.6c1.5-0.5,3.4-0.8,4.8-0.8
				c2.3,0,3.7,1,3.7,3.8v7.2h-2.3l-0.4-0.9c-1.2,0.8-2.3,1.1-3.3,1.1c-1.6,0-3.1-1-3.1-3.1c0-2.2,1.4-3.2,5.9-3.6V136z M201.5,140.2
				v-1.6c-2.4,0.2-3,0.6-3,1.4c0,0.7,0.5,0.9,1,0.9C200.1,140.9,200.8,140.6,201.5,140.2z"/>
			<path fill="#FFFFFF" d="M213.4,126.5l3.1-0.2V143h-2.9l-0.2-1.1c-1.2,0.8-2.4,1.3-3.5,1.3c-2.2,0-3.9-1.9-3.9-5.6
				c0-3.9,2.2-5.6,4.6-5.6c0.9,0,1.8,0.2,2.7,0.6V126.5z M211.4,134.8c-1.2,0-2.2,0.7-2.2,2.9c0,2,0.7,2.6,1.7,2.6
				c0.7,0,1.5-0.3,2.5-0.7v-4.4C212.7,135,212,134.8,211.4,134.8z"/>
			<path fill="#FFFFFF" d="M223.4,132.1c3.3,0,5.4,1.8,5.4,5.6c0,3.8-2,5.6-5.4,5.6c-3.3,0-5.4-1.8-5.4-5.6
				C218,133.9,220,132.1,223.4,132.1z M223.4,140.5c1.3,0,2.2-0.7,2.2-2.9c0-2.1-0.9-2.9-2.2-2.9c-1.3,0-2.2,0.7-2.2,2.9
				C221.1,139.8,222,140.5,223.4,140.5z"/>
			<path fill="#FFFFFF" d="M233.3,141.5c0,1-0.8,1.8-1.8,1.8c-1,0-1.8-0.8-1.8-1.8c0-1,0.7-1.8,1.8-1.8
				C232.5,139.7,233.3,140.4,233.3,141.5z"/>
		</g>
	</g>
</g>
</svg>
