<?xml version="1.0" encoding="utf-8"?>
<!-- Generator: Adobe Illustrator 18.1.1, SVG Export Plug-In . SVG Version: 6.00 Build 0)  -->
<svg version="1.1" id="Capa_4" xmlns="http://www.w3.org/2000/svg" xmlns:xlink="http://www.w3.org/1999/xlink" x="0px" y="0px"
	 viewBox="0 0 319 188" enable-background="new 0 0 319 188" xml:space="preserve">
<g>
	<rect fill="#ACA39A" width="319" height="188"/>
	<g>
		<path fill="#FFFFFF" d="M46.5,112.2H68L67.4,123H31.1l-0.6-10.8C46.1,101,54.1,92.9,54.1,85.9c0-4.7-2.8-7-8.2-7
			c-3.4,0-7.9,0.9-13.2,2.7l-2.1-10.6c5.9-1.7,11.6-2.8,16.9-2.8c10.6,0,18.7,4.5,18.7,17.7C66.1,94.7,59.4,103.3,46.5,112.2z"/>
		<path fill="#FFFFFF" d="M83.2,117.5c0,3.5-2.7,6.2-6.2,6.2c-3.6,0-6.2-2.7-6.2-6.2c0-3.6,2.6-6.2,6.2-6.2
			C80.5,111.2,83.2,113.8,83.2,117.5z"/>
	</g>
	<g>
		<path fill="#FFFFFF" d="M108.4,57.6v15.8h-3.5V57.6H108.4z"/>
		<path fill="#FFFFFF" d="M117.7,56.5l3.1-0.2v17h-2.9l-0.2-1.1c-1.3,0.8-2.5,1.3-3.5,1.3c-2.2,0-3.9-1.9-3.9-5.7
			c0-4,2.2-5.7,4.7-5.7c0.9,0,1.8,0.2,2.7,0.6V56.5z M115.7,65c-1.2,0-2.2,0.8-2.2,3c0,2,0.7,2.6,1.7,2.6c0.7,0,1.6-0.3,2.5-0.7
			v-4.5C117.1,65.2,116.4,65,115.7,65z"/>
		<path fill="#FFFFFF" d="M125.9,68.9c0,1.5,0.9,2,2.4,2c1.1,0,2.1-0.3,3.2-0.5l0.4,2.5c-1.3,0.4-2.4,0.7-3.9,0.7
			c-3.2,0-5.2-1.6-5.2-5.7c0-4.1,2.3-5.7,5.2-5.7c3.1,0,5.1,2.1,4.4,6.8H125.9z M125.9,66.7h3.5c0-1.3-0.5-2-1.6-2
			C126.6,64.7,126,65.4,125.9,66.7z"/>
		<path fill="#FFFFFF" d="M137.5,73.4h-3.1V62.5l3.1-0.2v1.1c1.6-0.9,2.9-1.3,4-1.3c1.6,0,3.1,0.9,3.1,3.6v7.6h-3.1v-6.6
			c0-1.1-0.5-1.6-1.3-1.6c-0.7,0-1.6,0.4-2.5,0.7V73.4z"/>
		<path fill="#FFFFFF" d="M147.5,65.2h-1.7l0.2-2.8h1.5v-3.3l3.1-0.2v3.5h2.9l-0.2,2.8h-2.7V69c0,1.2,0.3,1.8,1.4,1.8
			c0.4,0,1-0.1,1.6-0.2l0.2,2.6c-1.1,0.3-1.8,0.4-2.6,0.4c-3,0-3.8-2-3.8-4.3V65.2z"/>
		<path fill="#FFFFFF" d="M158.9,59.3c0,1-0.8,1.8-1.8,1.8c-1,0-1.8-0.8-1.8-1.8c0-1,0.8-1.8,1.8-1.8
			C158.1,57.5,158.9,58.3,158.9,59.3z M158.6,62.3v11h-3.1V62.5L158.6,62.3z"/>
		<path fill="#FFFFFF" d="M161.7,60.6c0-2.3,0.7-4.3,3.6-4.3c0.7,0,1.4,0.1,2.4,0.4l-0.2,2.6c-0.5-0.1-1.1-0.2-1.4-0.2
			c-0.9,0-1.2,0.6-1.2,1.8v1.5h7.2v11H169v-8.2h-4.1v8.2h-3.1v-8.2H160l0.2-2.8h1.5V60.6z M172.3,59.3c0,1-0.8,1.8-1.8,1.8
			c-1,0-1.8-0.8-1.8-1.8c0-1,0.8-1.8,1.8-1.8C171.6,57.5,172.3,58.3,172.3,59.3z"/>
		<path fill="#FFFFFF" d="M173.9,67.9c0-4.1,2.3-5.7,5.3-5.7c1,0,2.2,0.2,3.3,0.4l-0.4,2.7c-1-0.2-1.9-0.4-2.6-0.4
			c-1.8,0-2.5,0.9-2.5,2.9c0,2,0.7,2.9,2.5,2.9c0.7,0,1.5-0.1,2.6-0.4l0.4,2.7c-1.1,0.3-2.3,0.4-3.3,0.4
			C176.2,73.6,173.9,72,173.9,67.9z"/>
		<path fill="#FFFFFF" d="M189.6,66.2c0-0.9-0.4-1.2-1.2-1.2c-0.8,0-2,0.2-3.8,0.8l-0.4-2.7c1.6-0.5,3.5-0.9,4.9-0.9
			c2.3,0,3.7,1,3.7,3.8v7.3h-2.4l-0.4-0.9c-1.2,0.9-2.3,1.2-3.3,1.2c-1.7,0-3.1-1-3.1-3.1c0-2.2,1.4-3.2,6-3.7V66.2z M189.6,70.5
			v-1.6c-2.4,0.2-3,0.6-3,1.4c0,0.7,0.5,0.9,1,0.9C188.2,71.2,189,70.9,189.6,70.5z"/>
		<path fill="#FFFFFF" d="M205.7,66.2c0-0.9-0.4-1.2-1.2-1.2c-0.8,0-2,0.2-3.8,0.8l-0.4-2.7c1.6-0.5,3.5-0.9,4.9-0.9
			c2.3,0,3.7,1,3.7,3.8v7.3h-2.4l-0.4-0.9c-1.2,0.9-2.3,1.2-3.3,1.2c-1.7,0-3.1-1-3.1-3.1c0-2.2,1.4-3.2,6-3.7V66.2z M205.7,70.5
			v-1.6c-2.4,0.2-3,0.6-3,1.4c0,0.7,0.5,0.9,1,0.9C204.3,71.2,205.1,70.9,205.7,70.5z"/>
		<path fill="#FFFFFF" d="M214.3,56.4v13.6c0,1,0.7,1,2.2,0.6l0.2,2.6c-0.9,0.2-1.6,0.4-2.8,0.4c-1.5,0-2.8-0.9-2.8-3V56.5
			L214.3,56.4z"/>
		<path fill="#FFFFFF" d="M228.4,66.2c0-0.9-0.4-1.2-1.2-1.2c-0.8,0-2,0.2-3.8,0.8l-0.4-2.7c1.6-0.5,3.5-0.9,4.9-0.9
			c2.3,0,3.7,1,3.7,3.8v7.3h-2.4l-0.4-0.9c-1.2,0.9-2.3,1.2-3.3,1.2c-1.7,0-3.1-1-3.1-3.1c0-2.2,1.4-3.2,6-3.7V66.2z M228.4,70.5
			v-1.6c-2.4,0.2-3,0.6-3,1.4c0,0.7,0.5,0.9,1,0.9C227.1,71.2,227.8,70.9,228.4,70.5z"/>
		<path fill="#FFFFFF" d="M234.3,70.4c1,0.3,2.4,0.5,3.3,0.5c0.7,0,1.3-0.3,1.1-1c-0.1-1-5.3-0.6-5.3-4.4c0-2.2,1.4-3.3,4.4-3.3
			c1.2,0,2.4,0.2,3.6,0.6l-0.4,2.6c-1-0.4-2.4-0.6-3.3-0.6c-0.7,0-1.3,0.3-1.1,1c0.1,1,5.3,0.6,5.3,4.4c0,2.2-1.5,3.4-4.5,3.4
			c-1.2,0-2.4-0.2-3.6-0.6L234.3,70.4z"/>
		<path fill="#FFFFFF" d="M246.5,68.9c0,1.5,0.9,2,2.4,2c1.1,0,2.1-0.3,3.2-0.5l0.4,2.5c-1.3,0.4-2.4,0.7-3.9,0.7
			c-3.2,0-5.2-1.6-5.2-5.7c0-4.1,2.3-5.7,5.2-5.7c3.1,0,5,2.1,4.4,6.8H246.5z M246.5,66.7h3.5c0-1.3-0.5-2-1.6-2
			S246.6,65.4,246.5,66.7z"/>
		<path fill="#FFFFFF" d="M255.3,70.4c1,0.3,2.4,0.5,3.3,0.5c0.7,0,1.3-0.3,1.1-1c-0.1-1-5.3-0.6-5.3-4.4c0-2.2,1.4-3.3,4.4-3.3
			c1.2,0,2.4,0.2,3.6,0.6l-0.4,2.6c-1-0.4-2.4-0.6-3.3-0.6c-0.7,0-1.3,0.3-1.1,1c0.1,1,5.3,0.6,5.3,4.4c0,2.2-1.5,3.4-4.5,3.4
			c-1.2,0-2.4-0.2-3.6-0.6L255.3,70.4z"/>
		<path fill="#FFFFFF" d="M269.9,62.2c3.4,0,5.5,1.9,5.5,5.7c0,3.8-2.1,5.7-5.5,5.7c-3.4,0-5.5-1.9-5.5-5.7
			C264.4,64.1,266.5,62.2,269.9,62.2z M269.9,70.8c1.3,0,2.3-0.7,2.3-2.9c0-2.2-1-2.9-2.3-2.9c-1.3,0-2.3,0.7-2.3,2.9
			C267.6,70.1,268.5,70.8,269.9,70.8z"/>
		<path fill="#FFFFFF" d="M284.4,65.8c-1.9-0.6-2.4-0.7-4.1,1.5v6.1h-3.1V62.5l3.1-0.2v1.8c1.7-2.1,2.6-2.2,4.4-1.7L284.4,65.8z"/>
		<path fill="#FFFFFF" d="M111.9,84.5l3.1-0.2v17h-2.9l-0.2-1.1c-1.3,0.8-2.5,1.3-3.5,1.3c-2.2,0-3.9-1.9-3.9-5.7
			c0-4,2.2-5.7,4.7-5.7c0.9,0,1.8,0.2,2.7,0.6V84.5z M109.9,93c-1.2,0-2.2,0.8-2.2,3c0,2,0.7,2.6,1.7,2.6c0.7,0,1.6-0.3,2.5-0.7
			v-4.5C111.3,93.2,110.6,93,109.9,93z"/>
		<path fill="#FFFFFF" d="M120.1,96.9c0,1.5,0.9,2,2.4,2c1.1,0,2.1-0.3,3.2-0.5l0.4,2.5c-1.3,0.4-2.4,0.7-3.9,0.7
			c-3.2,0-5.2-1.6-5.2-5.7c0-4.1,2.3-5.7,5.2-5.7c3.1,0,5.1,2.1,4.4,6.8H120.1z M120.1,94.7h3.5c0-1.3-0.5-2-1.6-2
			C120.8,92.7,120.2,93.4,120.1,94.7z"/>
		<path fill="#FFFFFF" d="M137.3,95.8c0,2.1,1.1,2.6,2.8,2.6c1.7,0,2.8-0.6,2.8-2.6V85.6h3.5v10.6c0,3.9-2.6,5.4-6.3,5.4
			c-3.7,0-6.3-1.5-6.3-5.4V85.6h3.5V95.8z"/>
		<path fill="#FFFFFF" d="M151.9,101.4h-3.1V90.5l3.1-0.2v1.1c1.6-0.9,2.9-1.3,4-1.3c1.6,0,3.1,0.9,3.1,3.6v7.6h-3.1v-6.6
			c0-1.1-0.5-1.6-1.3-1.6c-0.7,0-1.6,0.4-2.5,0.7V101.4z"/>
		<path fill="#FFFFFF" d="M163.9,96.9c0,1.5,0.9,2,2.4,2c1.1,0,2.1-0.3,3.2-0.5l0.4,2.5c-1.3,0.4-2.4,0.7-3.9,0.7
			c-3.2,0-5.2-1.6-5.2-5.7c0-4.1,2.3-5.7,5.2-5.7c3.1,0,5,2.1,4.4,6.8H163.9z M163.9,94.7h3.5c0-1.3-0.5-2-1.6-2
			S164,93.4,163.9,94.7z"/>
		<path fill="#FFFFFF" d="M173.1,88.6c0-2.3,0.8-4.3,3.8-4.3c0.8,0,1.5,0.1,2.6,0.4l-0.2,2.6c-0.6-0.1-1.2-0.2-1.6-0.2
			c-1.1,0-1.3,0.6-1.3,1.8v1.5h2.9l-0.2,2.8h-2.7v8.2h-3.1v-8.2h-1.7l0.2-2.8h1.5V88.6z"/>
		<path fill="#FFFFFF" d="M185,90.2c3.4,0,5.5,1.9,5.5,5.7c0,3.8-2.1,5.7-5.5,5.7c-3.4,0-5.5-1.9-5.5-5.7
			C179.5,92.1,181.6,90.2,185,90.2z M185,98.8c1.3,0,2.3-0.7,2.3-2.9c0-2.2-1-2.9-2.3-2.9c-1.3,0-2.3,0.7-2.3,2.9
			C182.7,98.1,183.6,98.8,185,98.8z"/>
		<path fill="#FFFFFF" d="M195.5,101.4h-3.1V90.5l3.1-0.2v1.1c1.6-0.9,2.9-1.3,4-1.3c1.6,0,3.1,0.9,3.1,3.6v7.6h-3.1v-6.6
			c0-1.1-0.5-1.6-1.3-1.6c-0.7,0-1.6,0.4-2.5,0.7V101.4z"/>
		<path fill="#FFFFFF" d="M214.5,98l2.2-7.7l3.4,0.2l-5.2,15.6l-3.4-0.2l1.5-4.5h-0.6l-3.6-10.8l3.4-0.2L214.5,98z"/>
		<path fill="#FFFFFF" d="M227,98.4c1,0.3,2.4,0.5,3.3,0.5c0.7,0,1.3-0.3,1.1-1c-0.1-1-5.3-0.6-5.3-4.4c0-2.2,1.4-3.3,4.4-3.3
			c1.2,0,2.4,0.2,3.6,0.6l-0.4,2.6c-1-0.4-2.4-0.6-3.3-0.6c-0.7,0-1.3,0.3-1.1,1c0.1,1,5.3,0.6,5.3,4.4c0,2.2-1.5,3.4-4.5,3.4
			c-1.2,0-2.4-0.2-3.6-0.6L227,98.4z"/>
		<path fill="#FFFFFF" d="M241.5,90.2c3.4,0,5.5,1.9,5.5,5.7c0,3.8-2.1,5.7-5.5,5.7c-3.4,0-5.5-1.9-5.5-5.7
			C236,92.1,238.1,90.2,241.5,90.2z M241.5,98.8c1.3,0,2.3-0.7,2.3-2.9c0-2.2-1-2.9-2.3-2.9c-1.3,0-2.3,0.7-2.3,2.9
			C239.2,98.1,240.1,98.8,241.5,98.8z"/>
		<path fill="#FFFFFF" d="M252,84.4v13.6c0,1,0.7,1,2.2,0.6l0.2,2.6c-0.9,0.2-1.6,0.4-2.8,0.4c-1.5,0-2.8-0.9-2.8-3V84.5L252,84.4z"
			/>
		<path fill="#FFFFFF" d="M258.8,87.3c0,1-0.8,1.8-1.8,1.8s-1.8-0.8-1.8-1.8c0-1,0.8-1.8,1.8-1.8S258.8,86.3,258.8,87.3z
			 M258.6,90.3v11h-3.1V90.5L258.6,90.3z"/>
		<path fill="#FFFFFF" d="M260.5,95.9c0-4.1,2.3-5.7,5.3-5.7c1,0,2.2,0.2,3.3,0.4l-0.4,2.7c-1-0.2-1.9-0.4-2.6-0.4
			c-1.8,0-2.5,0.9-2.5,2.9c0,2,0.7,2.9,2.5,2.9c0.7,0,1.5-0.1,2.6-0.4l0.4,2.7c-1.1,0.3-2.3,0.4-3.3,0.4
			C262.7,101.6,260.5,100,260.5,95.9z"/>
		<path fill="#FFFFFF" d="M274.1,87.3c0,1-0.8,1.8-1.8,1.8s-1.8-0.8-1.8-1.8c0-1,0.8-1.8,1.8-1.8S274.1,86.3,274.1,87.3z
			 M273.9,90.3v11h-3.1V90.5L273.9,90.3z"/>
		<path fill="#FFFFFF" d="M277,93.2h-1.7l0.2-2.8h1.5v-3.3l3.1-0.2v3.5h2.9l-0.2,2.8h-2.7V97c0,1.2,0.3,1.8,1.4,1.8
			c0.4,0,1-0.1,1.6-0.2l0.2,2.6c-1.1,0.3-1.8,0.4-2.6,0.4c-3,0-3.8-2-3.8-4.3V93.2z"/>
		<path fill="#FFFFFF" d="M290.3,94.2c0-0.9-0.4-1.2-1.2-1.2c-0.8,0-2,0.2-3.8,0.8l-0.4-2.7c1.6-0.5,3.5-0.9,4.9-0.9
			c2.3,0,3.7,1,3.7,3.8v7.3h-2.4l-0.4-0.9c-1.2,0.9-2.3,1.2-3.3,1.2c-1.7,0-3.1-1-3.1-3.1c0-2.2,1.4-3.2,6-3.7V94.2z M290.3,98.5
			v-1.6c-2.4,0.2-3,0.6-3,1.4c0,0.7,0.5,0.9,1,0.9C288.9,99.2,289.7,98.9,290.3,98.5z"/>
		<path fill="#FFFFFF" d="M105.7,121.2H104l0.2-2.8h1.5v-3.3l3.1-0.2v3.5h2.9l-0.2,2.8h-2.7v3.8c0,1.2,0.3,1.8,1.4,1.8
			c0.4,0,1-0.1,1.6-0.2l0.2,2.6c-1.1,0.3-1.8,0.4-2.6,0.4c-3,0-3.8-2-3.8-4.3V121.2z"/>
		<path fill="#FFFFFF" d="M120.7,118.5l3.1-0.2v11h-2.9l-0.2-1.1c-1.6,0.9-2.9,1.3-4,1.3c-1.6,0-3.1-0.9-3.1-3.6v-7.5l3.1-0.2v6.7
			c0,1.2,0.5,1.6,1.3,1.6c0.7,0,1.6-0.3,2.5-0.7V118.5z"/>
		<path fill="#FFFFFF" d="M130.9,123.9c0-4.1,2.3-5.7,5.3-5.7c1,0,2.2,0.2,3.3,0.4l-0.4,2.7c-1-0.2-1.9-0.4-2.6-0.4
			c-1.8,0-2.5,0.9-2.5,2.9c0,2,0.7,2.9,2.5,2.9c0.7,0,1.5-0.1,2.6-0.4l0.4,2.7c-1.1,0.3-2.3,0.4-3.3,0.4
			C133.2,129.6,130.9,128,130.9,123.9z"/>
		<path fill="#FFFFFF" d="M146.6,122.2c0-0.9-0.4-1.2-1.2-1.2c-0.8,0-2,0.2-3.8,0.8l-0.4-2.7c1.6-0.5,3.5-0.9,4.9-0.9
			c2.3,0,3.7,1,3.7,3.8v7.3h-2.4l-0.4-0.9c-1.2,0.9-2.3,1.2-3.3,1.2c-1.7,0-3.1-1-3.1-3.1c0-2.2,1.4-3.2,6-3.7V122.2z M146.6,126.5
			v-1.6c-2.4,0.2-3,0.6-3,1.4c0,0.7,0.5,0.9,1,0.9C145.2,127.2,145.9,126.9,146.6,126.5z"/>
		<path fill="#FFFFFF" d="M165.5,118.2c1.6,0,2.8,1,2.8,3.6v7.6h-3.1v-6.6c0-1.1-0.4-1.6-1.2-1.6c-0.7,0-1.5,0.3-2.3,0.7
			c0,0.3,0,0.6,0,1v6.5h-3.1v-6.6c0-1.1-0.4-1.6-1.2-1.6c-0.7,0-1.4,0.4-2.3,0.7v7.5h-3.1v-10.8l3.1-0.2v1.1
			c1.5-0.9,2.7-1.3,3.7-1.3c1,0,1.8,0.4,2.3,1.3C162.9,118.6,164.2,118.2,165.5,118.2z"/>
		<path fill="#FFFFFF" d="M170.6,112.5l3.1-0.2v7.1c1.3-0.8,2.5-1.3,3.5-1.3c2.2,0,3.9,1.9,3.9,5.7c0,4.2-2.4,5.7-5.5,5.7
			c-1.6,0-3.3-0.3-5.1-0.9V112.5z M175.8,126.8c1.2,0,2.2-0.8,2.2-3c0-2-0.7-2.6-1.7-2.6c-0.7,0-1.6,0.4-2.5,0.7v4.6
			C174.5,126.7,175.2,126.8,175.8,126.8z"/>
		<path fill="#FFFFFF" d="M186.4,115.3c0,1-0.8,1.8-1.8,1.8s-1.8-0.8-1.8-1.8c0-1,0.8-1.8,1.8-1.8S186.4,114.3,186.4,115.3z
			 M186.2,118.3v11h-3.1v-10.8L186.2,118.3z"/>
		<path fill="#FFFFFF" d="M193.6,118.2c3.4,0,5.5,1.9,5.5,5.7c0,3.8-2.1,5.7-5.5,5.7c-3.4,0-5.5-1.9-5.5-5.7
			C188.1,120.1,190.2,118.2,193.6,118.2z M193.6,126.8c1.3,0,2.3-0.7,2.3-2.9c0-2.2-1-2.9-2.3-2.9c-1.3,0-2.3,0.7-2.3,2.9
			C191.3,126.1,192.2,126.8,193.6,126.8z"/>
		<path fill="#FFFFFF" d="M204,127.8c0,1-0.8,1.8-1.8,1.8c-1.1,0-1.8-0.8-1.8-1.8c0-1.1,0.8-1.8,1.8-1.8
			C203.2,125.9,204,126.7,204,127.8z"/>
	</g>
</g>
</svg>
