<?xml version="1.0" encoding="utf-8"?>
<!-- Generator: Adobe Illustrator 18.1.1, SVG Export Plug-In . SVG Version: 6.00 Build 0)  -->
<svg version="1.1" id="Capa_6" xmlns="http://www.w3.org/2000/svg" xmlns:xlink="http://www.w3.org/1999/xlink" x="0px" y="0px"
	 viewBox="0 0 319 188" enable-background="new 0 0 319 188" xml:space="preserve">
<g>
	<rect fill="#FFC600" width="319" height="188"/>
	<g>
		<path fill="#2D2D2D" d="M37.2,68.7c0-1.6,1.2-2.7,2.7-2.7c1.6,0,2.7,1.1,2.7,2.7c0,1.5-1.1,2.7-2.7,2.7
			C38.3,71.3,37.2,70.2,37.2,68.7z M42.1,73.3l0.3,16.2h-5.1l0.3-15.9L42.1,73.3z"/>
		<path fill="#2D2D2D" d="M51.8,59.2v18.5h9.5l-0.3,4.6H46.7V59.2H51.8z"/>
		<path fill="#2D2D2D" d="M68.2,61.7c0,1.5-1.1,2.6-2.6,2.6s-2.6-1.1-2.6-2.6c0-1.5,1.1-2.6,2.6-2.6S68.2,60.2,68.2,61.7z
			 M67.8,66.1v16.2h-4.6V66.4L67.8,66.1z"/>
		<path fill="#2D2D2D" d="M71.4,78c1.5,0.5,3.6,0.8,4.9,0.8c1,0,1.8-0.4,1.7-1.5c-0.2-1.5-7.7-0.8-7.7-6.5c0-3.2,2.1-4.9,6.5-4.9
			c1.7,0,3.6,0.3,5.3,0.9l-0.7,3.8c-1.5-0.5-3.5-0.8-4.8-0.8c-1,0-1.8,0.4-1.7,1.5c0.2,1.5,7.7,0.8,7.7,6.5c0,3.2-2.2,5-6.6,5
			c-1.7,0-3.6-0.3-5.3-0.9L71.4,78z"/>
		<path fill="#2D2D2D" d="M86,70.3h-2.5l0.3-4.1H86v-4.9l4.6-0.3v5.1h4.3l-0.3,4.1h-4v5.6c0,1.7,0.5,2.7,2,2.7
			c0.6,0,1.5-0.1,2.4-0.3l0.4,3.9c-1.6,0.4-2.7,0.6-3.8,0.6c-4.4,0-5.6-2.9-5.6-6.3V70.3z"/>
		<path fill="#2D2D2D" d="M104.3,65.9c5,0,8.1,2.8,8.1,8.4c0,5.6-3.1,8.4-8.1,8.4c-5,0-8.1-2.7-8.1-8.4
			C96.2,68.7,99.3,65.9,104.3,65.9z M104.3,78.6c1.9,0,3.4-1.1,3.4-4.3c0-3.2-1.4-4.3-3.4-4.3c-2,0-3.4,1.1-3.4,4.3
			C100.9,77.5,102.3,78.6,104.3,78.6z"/>
		<path fill="#2D2D2D" d="M121.2,80c0,1.5-1.1,2.7-2.7,2.7c-1.5,0-2.7-1.2-2.7-2.7c0-1.6,1.2-2.7,2.7-2.7
			C120.1,77.3,121.2,78.4,121.2,80z M116.3,75.4L116,59.2h5.1l-0.3,15.9L116.3,75.4z"/>
		<path fill="#2D2D2D" d="M132.7,59.2h10c4.2,0,6.5,2.7,6.5,5.8c0,2.6-1.2,4.2-3.2,5.5c2.7,1.5,3.9,3.5,3.9,5.8
			c0,4.2-3.6,6.3-9.5,6.3c-2,0-5.2-0.3-7.7-0.7V59.2z M142.5,68.5c1.1-0.8,1.6-1.7,1.6-2.7c0-1.1-0.8-2-2.1-2h-4v4.7H142.5z
			 M137.9,73.1v4.7c0.9,0.1,2.1,0.2,2.9,0.2c2.6,0,4-0.9,4-2.4c0-1-0.6-1.9-1.7-2.6H137.9z"/>
		<path fill="#2D2D2D" d="M157.1,61.7c0,1.5-1.1,2.6-2.6,2.6s-2.6-1.1-2.6-2.6c0-1.5,1.1-2.6,2.6-2.6S157.1,60.2,157.1,61.7z
			 M156.8,66.1v16.2h-4.6V66.4L156.8,66.1z"/>
		<path fill="#2D2D2D" d="M163.7,75.9c0,2.1,1.4,3,3.5,3c1.6,0,3-0.4,4.7-0.8l0.6,3.6c-1.8,0.7-3.6,1-5.7,1c-4.8,0-7.7-2.3-7.7-8.4
			c0-6,3.3-8.4,7.7-8.4c4.5,0,7.4,3,6.5,9.9H163.7z M163.7,72.6h5.1c0.1-1.9-0.8-3-2.4-3C164.9,69.6,163.9,70.7,163.7,72.6z"/>
		<path fill="#2D2D2D" d="M180.3,82.4h-4.6V66.4l4.6-0.3v1.7c2.3-1.3,4.2-1.9,5.8-1.9c2.3,0,4.5,1.3,4.5,5.3v11.1h-4.6v-9.7
			c0-1.7-0.8-2.3-2-2.3c-1.1,0-2.3,0.5-3.7,1.1V82.4z"/>
		<path fill="#2D2D2D" d="M196.9,66.1l3.2,11.3l3.2-11.3l5,0.3l-5.3,15.9h-6l-5.3-15.9L196.9,66.1z"/>
		<path fill="#2D2D2D" d="M213.6,75.9c0,2.1,1.4,3,3.5,3c1.6,0,3-0.4,4.7-0.8l0.6,3.6c-1.8,0.7-3.6,1-5.7,1c-4.8,0-7.7-2.3-7.7-8.4
			c0-6,3.3-8.4,7.7-8.4c4.5,0,7.4,3,6.5,9.9H213.6z M213.7,72.6h5.1c0.1-1.9-0.8-3-2.4-3C214.8,69.6,213.8,70.7,213.7,72.6z"/>
		<path fill="#2D2D2D" d="M230.3,82.4h-4.6V66.4l4.6-0.3v1.7c2.3-1.3,4.2-1.9,5.8-1.9c2.3,0,4.5,1.3,4.5,5.3v11.1H236v-9.7
			c0-1.7-0.8-2.3-2-2.3c-1.1,0-2.3,0.5-3.7,1.1V82.4z"/>
		<path fill="#2D2D2D" d="M248.5,61.7c0,1.5-1.1,2.6-2.6,2.6c-1.5,0-2.6-1.1-2.6-2.6c0-1.5,1.1-2.6,2.6-2.6
			C247.4,59.1,248.5,60.2,248.5,61.7z M248.2,66.1v16.2h-4.6V66.4L248.2,66.1z"/>
		<path fill="#2D2D2D" d="M261.4,57.6l4.6-0.3v25h-4.3l-0.3-1.6c-1.8,1.2-3.6,1.9-5.2,1.9c-3.3,0-5.8-2.8-5.8-8.4
			c0-5.9,3.3-8.4,7-8.4c1.3,0,2.7,0.3,4,0.9V57.6z M258.5,70c-1.8,0-3.3,1.1-3.3,4.4c0,3,1.1,3.9,2.5,3.9c1.1,0,2.3-0.5,3.7-1v-6.7
			C260.5,70.3,259.4,70,258.5,70z"/>
		<path fill="#2D2D2D" d="M276.4,65.9c5,0,8.1,2.8,8.1,8.4c0,5.6-3.1,8.4-8.1,8.4c-5,0-8.1-2.7-8.1-8.4
			C268.3,68.7,271.4,65.9,276.4,65.9z M276.4,78.6c1.9,0,3.4-1.1,3.4-4.3c0-3.2-1.4-4.3-3.4-4.3c-2,0-3.4,1.1-3.4,4.3
			C273,77.5,274.4,78.6,276.4,78.6z"/>
		<path fill="#2D2D2D" d="M103.2,113.8c0-1.3-0.6-1.7-1.8-1.7c-1.2,0-3,0.4-5.6,1.1l-0.7-4c2.3-0.7,5.1-1.3,7.2-1.3
			c3.4,0,5.5,1.5,5.5,5.6v10.8h-3.5l-0.5-1.4c-1.8,1.3-3.4,1.7-4.9,1.7c-2.4,0-4.6-1.5-4.6-4.6c0-3.3,2.1-4.8,8.9-5.4V113.8z
			 M103.2,120.2v-2.4c-3.5,0.4-4.5,0.9-4.5,2c0,1,0.7,1.4,1.5,1.4C101.2,121.2,102.2,120.8,103.2,120.2z"/>
		<path fill="#2D2D2D" d="M123.3,116.2c0,3,1.6,3.9,4.1,3.9c2.5,0,4.1-0.8,4.1-3.9v-15h5.1v15.6c0,5.7-3.9,7.9-9.2,7.9
			c-5.4,0-9.3-2.2-9.3-7.9v-15.6h5.1V116.2z"/>
		<path fill="#2D2D2D" d="M144.2,124.4h-4.6v-15.9l4.6-0.3v1.7c2.3-1.3,4.2-1.9,5.8-1.9c2.3,0,4.5,1.3,4.5,5.3v11.1h-4.6v-9.7
			c0-1.7-0.8-2.3-2-2.3c-1.1,0-2.3,0.5-3.7,1.1V124.4z"/>
		<path fill="#2D2D2D" d="M161.4,117.9c0,2.1,1.4,3,3.5,3c1.6,0,3-0.4,4.7-0.8l0.6,3.6c-1.8,0.7-3.6,1-5.7,1c-4.8,0-7.7-2.3-7.7-8.4
			c0-6,3.3-8.4,7.7-8.4c4.5,0,7.4,3,6.5,9.9H161.4z M161.5,114.6h5.1c0.1-1.9-0.8-3-2.4-3S161.6,112.7,161.5,114.6z"/>
		<path fill="#2D2D2D" d="M174.6,105.6c0-3.4,1.2-6.3,5.5-6.3c1.2,0,2.2,0.2,3.8,0.5l-0.4,3.9c-0.9-0.2-1.8-0.3-2.4-0.3
			c-1.6,0-2,0.9-2,2.7v2.1h4.3l-0.3,4.1h-4v12h-4.6v-12h-2.5l0.3-4.1h2.2V105.6z"/>
		<path fill="#2D2D2D" d="M191.6,107.9c5,0,8.1,2.8,8.1,8.4c0,5.6-3.1,8.4-8.1,8.4c-5,0-8.1-2.7-8.1-8.4
			C183.6,110.7,186.7,107.9,191.6,107.9z M191.6,120.6c1.9,0,3.4-1.1,3.4-4.3c0-3.2-1.4-4.3-3.4-4.3c-2,0-3.4,1.1-3.4,4.3
			C188.3,119.5,189.7,120.6,191.6,120.6z"/>
		<path fill="#2D2D2D" d="M206.6,124.4H202v-15.9l4.6-0.3v1.7c2.3-1.3,4.2-1.9,5.8-1.9c2.3,0,4.5,1.3,4.5,5.3v11.1h-4.6v-9.7
			c0-1.7-0.8-2.3-2-2.3c-1.1,0-2.3,0.5-3.7,1.1V124.4z"/>
		<path fill="#2D2D2D" d="M224.8,122c0,1.5-1.2,2.7-2.7,2.7c-1.6,0-2.7-1.2-2.7-2.7c0-1.6,1.1-2.7,2.7-2.7
			C223.7,119.3,224.8,120.4,224.8,122z"/>
	</g>
</g>
</svg>
