<?xml version="1.0" encoding="utf-8"?>
<!-- Generator: Adobe Illustrator 16.0.0, SVG Export Plug-In . SVG Version: 6.00 Build 0)  -->
<!DOCTYPE svg PUBLIC "-//W3C//DTD SVG 1.1//EN" "http://www.w3.org/Graphics/SVG/1.1/DTD/svg11.dtd">
<svg version="1.1" id="Capa_1" xmlns="http://www.w3.org/2000/svg" xmlns:xlink="http://www.w3.org/1999/xlink" x="0px" y="0px"
	 width="612px" height="76.441px" viewBox="0 356.595 612 76.441" enable-background="new 0 356.595 612 76.441"
	 xml:space="preserve">
<path fill="#FFFFFF" d="M265.898,416.843c0,0-14.169-2.024-23.575-11.669c-9.406-9.644-13.573-19.765-12.025-25.003
	c1.071-3.691,2.738-6.549,7.382-9.049c0,0,2.977-1.548,3.929,0.596l4.524,10.716c0,0,0.715,2.143-0.476,3.334
	c-1.19,1.19-2.977,2.738-2.977,2.738s-1.429,0.714-0.357,2.739c0,0,4.763,8.811,15.241,14.288c0,0,1.548,0.953,2.381,0.119
	c1.071-1.071,3.929-5.001,3.929-5.001s0.714-1.904,3.215-0.476l8.454,4.524c0,0,1.31,0.595,1.19,2.023
	C276.733,408.27,276.257,415.533,265.898,416.843 M252.444,356.595c-21.075,0-38.22,17.146-38.22,38.22
	c0,8.216,2.62,15.836,7.025,22.146l-5,14.407l15.24-4.644c6.072,3.929,13.216,6.311,20.956,6.311
	c21.075,0,38.22-17.146,38.22-38.221C290.664,373.741,273.638,356.595,252.444,356.595"/>
<path fill="#FFFFFF" d="M589.496,414.618c16.669-16.074,14.646-35.482,14.646-35.482c5.001-3.572,7.858-8.096,7.858-8.096
	c-2.739,1.547-8.573,2.381-8.573,2.381c5.001-3.215,6.43-8.573,6.43-8.573c-4.167,2.739-10.12,3.691-10.12,3.691
	c-2.024-2.62-12.502-8.573-20.956-1.548s-5.715,16.193-5.715,16.193c-20.36-1.072-32.148-16.67-32.148-16.67
	c-7.024,12.502,4.524,20.956,4.524,20.956c-3.334-0.119-7.024-1.905-7.024-1.905c0.119,12.621,12.145,15.479,12.145,15.479
	c-0.952,1.071-6.549,0.596-6.549,0.596c3.215,10.479,14.407,10.598,14.407,10.598c-9.525,8.097-22.86,6.549-22.86,6.549
	C545.322,427.358,572.827,430.692,589.496,414.618"/>
<path fill="#FFFFFF" d="M351.52,398.107h-11.788v-13.455h11.788v-10.954c0,0-0.477-7.144,4.882-12.502
	c5.357-5.358,12.621-4.882,22.979-4.048v12.145h-7.62c0,0-3.215-0.119-4.763,1.667c-1.548,1.786-1.31,4.167-1.31,4.881v8.692h13.335
	l-1.667,13.574h-11.668v34.887H351.52V398.107z"/>
<path fill="#FFFFFF" d="M145.797,430.535c-0.238,0-0.477,0-0.596,0s-0.238,0-0.357,0c-4.524,0-7.621-2.144-10.24-4.048
	c-1.905-1.311-3.691-2.62-5.834-2.977c-1.071-0.119-2.024-0.238-3.096-0.238c-1.786,0-3.215,0.238-4.286,0.476
	c-0.595,0.119-1.191,0.238-1.667,0.238s-0.953-0.119-1.191-0.833c-0.238-0.596-0.357-1.19-0.476-1.786
	c-0.357-1.429-0.595-2.263-1.072-2.382c-5.715-0.833-9.049-2.143-9.763-3.69c-0.119-0.119-0.119-0.357-0.119-0.477
	c0-0.477,0.357-0.833,0.714-0.952c4.524-0.715,8.573-3.096,12.026-7.145c2.619-3.096,3.929-6.072,4.048-6.311l0,0
	c0.714-1.31,0.833-2.5,0.357-3.452c-0.714-1.786-3.215-2.501-4.763-2.977c-0.357-0.119-0.833-0.238-1.071-0.357
	c-1.429-0.596-3.81-1.786-3.453-3.453c0.238-1.19,1.786-2.024,3.096-2.024c0.357,0,0.714,0.119,0.953,0.238
	c1.429,0.715,2.738,1.072,3.929,1.072c1.429,0,2.024-0.477,2.262-0.715c0-0.714-0.119-1.548-0.119-2.262l0,0
	c-0.357-5.239-0.714-11.669,0.953-15.36c5-11.073,15.479-12.025,18.574-12.025c0.119,0,1.31,0,1.31,0s0.119,0,0.238,0
	c3.096,0,13.693,0.834,18.574,12.025c1.667,3.691,1.191,10.24,0.953,15.36v0.237c0,0.715-0.119,1.429-0.119,2.024
	c0.119,0.119,0.714,0.596,2.024,0.715c1.071,0,2.262-0.357,3.691-1.072c0.476-0.238,0.833-0.238,1.19-0.238
	c0.477,0,0.953,0.119,1.31,0.238l0,0c1.19,0.357,1.905,1.191,1.905,2.024s-0.595,2.024-3.453,3.096
	c-0.357,0.119-0.714,0.238-1.072,0.357c-1.667,0.476-4.048,1.31-4.763,2.977c-0.357,0.952-0.238,2.143,0.357,3.452l0,0
	c0.238,0.477,5.12,11.669,16.074,13.455c0.477,0.119,0.833,0.477,0.714,0.952c0,0.119,0,0.357-0.119,0.477
	c-0.714,1.548-4.048,2.857-9.763,3.691c-0.476,0.118-0.714,0.952-1.072,2.381c-0.119,0.596-0.238,1.19-0.476,1.786
	c-0.119,0.596-0.476,0.833-1.072,0.833h-0.119c-0.357,0-0.952-0.119-1.667-0.237c-1.191-0.238-2.5-0.477-4.287-0.477
	c-0.953,0-2.024,0.119-3.096,0.238c-2.143,0.356-3.929,1.667-5.834,2.977C153.298,428.392,150.322,430.535,145.797,430.535"/>
<g>
	<path fill="#FFFFFF" d="M38.22,356.595c-10.359,0-11.668,0-15.717,0.238c-4.048,0.238-6.787,0.833-9.287,1.786
		c-2.5,0.953-4.644,2.263-6.787,4.406s-3.453,4.286-4.406,6.787c-0.952,2.381-1.548,5.239-1.786,9.287
		C0,383.147,0,384.457,0,394.815c0,10.358,0,11.669,0.238,15.717c0.238,4.048,0.833,6.787,1.786,9.287
		c0.953,2.5,2.263,4.644,4.406,6.787c2.143,2.143,4.286,3.452,6.787,4.405c2.381,0.952,5.239,1.548,9.287,1.786
		s5.358,0.238,15.717,0.238s11.668,0,15.717-0.238s6.787-0.834,9.287-1.786c2.5-0.953,4.644-2.263,6.787-4.405
		c2.144-2.144,3.453-4.287,4.406-6.787c0.952-2.381,1.548-5.239,1.786-9.287c0.238-4.048,0.238-5.358,0.238-15.717
		c0-10.359,0-11.668-0.238-15.717c-0.238-4.048-0.833-6.787-1.786-9.287c-0.953-2.5-2.262-4.644-4.406-6.787
		c-2.143-2.143-4.286-3.453-6.787-4.406c-2.381-0.952-5.239-1.548-9.287-1.786C49.889,356.595,48.579,356.595,38.22,356.595
		 M38.22,363.501c10.24,0,11.43,0,15.479,0.238c3.691,0.119,5.715,0.833,7.144,1.31c1.786,0.714,3.096,1.548,4.405,2.857
		c1.31,1.31,2.144,2.62,2.858,4.406c0.476,1.31,1.19,3.334,1.31,7.144c0.238,4.048,0.238,5.239,0.238,15.479
		c0,10.239,0,11.431-0.238,15.479c-0.119,3.691-0.833,5.715-1.31,7.144c-0.714,1.786-1.548,3.096-2.858,4.406
		c-1.31,1.31-2.619,2.143-4.405,2.857c-1.31,0.476-3.334,1.19-7.144,1.31c-4.048,0.238-5.239,0.238-15.479,0.238
		s-11.43,0-15.479-0.238c-3.691-0.119-5.715-0.834-7.144-1.31c-1.786-0.715-3.096-1.548-4.405-2.857
		c-1.31-1.311-2.144-2.62-2.858-4.406c-0.476-1.31-1.19-3.333-1.31-7.144c-0.238-4.048-0.238-5.239-0.238-15.479
		c0-10.24,0-11.431,0.238-15.479c0.119-3.691,0.833-5.715,1.31-7.144c0.714-1.786,1.548-3.096,2.858-4.406
		c1.31-1.31,2.619-2.143,4.405-2.857c1.31-0.476,3.334-1.19,7.144-1.31C26.79,363.501,27.98,363.501,38.22,363.501"/>
	<path fill="#FFFFFF" d="M38.22,407.556c-7.025,0-12.74-5.715-12.74-12.74c0-7.025,5.715-12.74,12.74-12.74s12.74,5.715,12.74,12.74
		C50.96,401.841,45.245,407.556,38.22,407.556 M38.22,375.169c-10.835,0-19.646,8.811-19.646,19.646s8.811,19.646,19.646,19.646
		s19.646-8.811,19.646-19.646S49.055,375.169,38.22,375.169"/>
	<path fill="#FFFFFF" d="M63.224,374.455c0,2.5-2.024,4.644-4.644,4.644c-2.5,0-4.644-2.024-4.644-4.644
		c0-2.5,2.024-4.644,4.644-4.644C61.081,369.812,63.224,371.836,63.224,374.455"/>
</g>
<path fill="#FFFFFF" d="M470.358,404.281l-9.645-10.359l-18.812,10.359l20.718-22.146l9.882,10.359l18.575-10.359L470.358,404.281z
	 M466.667,356.655c-20.955,0-37.981,15.836-37.981,35.363c0,11.192,5.477,21.074,14.169,27.504v13.455l12.978-7.145
	c3.453,0.953,7.145,1.429,10.835,1.429c20.956,0,37.982-15.836,37.982-35.362C504.649,372.491,487.623,356.655,466.667,356.655"/>
</svg>
