<?xml version="1.0" encoding="utf-8"?>
<!-- Generator: Adobe Illustrator 16.0.0, SVG Export Plug-In . SVG Version: 6.00 Build 0)  -->
<!DOCTYPE svg PUBLIC "-//W3C//DTD SVG 1.1//EN" "http://www.w3.org/Graphics/SVG/1.1/DTD/svg11.dtd">
<svg version="1.1" xmlns="http://www.w3.org/2000/svg" xmlns:xlink="http://www.w3.org/1999/xlink" x="0px" y="0px" width="490px"
	 height="210px" viewBox="100.777 42.277 490 210" enable-background="new 100.777 42.277 490 210" xml:space="preserve">
<g id="Layer_2_1_">
</g>
<g id="Layer_1">
	<g id="Layer_1_1_" display="none">
		<g id="_x31_ZBIrv_1_" display="inline">
			
				<image overflow="visible" enable-background="new    " width="1920" height="1080" id="_x31_ZBIrv_2_" xlink:href="9877FE97EE68974A.jpg"  transform="matrix(1 0 0 1 -612.4458 -136.197)">
			</image>
		</g>
	</g>
	<g id="Layer_3">
	</g>
	<g>
		<rect x="101.188" y="42.054" fill="#2D2D2D" width="489.999" height="210"/>
		<g id="Layer_2">
			<g>
				<g>
					<path fill="#FFFFFF" d="M289.981,104.619c0-4.013,2.183-5.512,4.851-5.512c0.97,0,2.005,0.199,2.998,0.507l-0.243,1.565
						c-0.926-0.309-1.807-0.485-2.602-0.485c-1.94,0-3.218,1.103-3.218,3.925c0,2.8,1.278,3.902,3.218,3.902
						c0.795,0,1.676-0.199,2.602-0.485l0.243,1.565c-0.993,0.332-2.028,0.507-2.998,0.507
						C292.163,110.11,289.981,108.632,289.981,104.619z"/>
					<path fill="#FFFFFF" d="M304.51,99.108c2.999,0,4.938,1.742,4.938,5.512c0,3.771-1.94,5.491-4.938,5.491
						c-3.02,0-4.96-1.72-4.96-5.491C299.549,100.85,301.49,99.108,304.51,99.108z M304.51,108.523c1.874,0,3.153-1.147,3.153-3.902
						c0-2.756-1.279-3.925-3.153-3.925c-1.896,0-3.175,1.168-3.175,3.925C301.335,107.375,302.614,108.523,304.51,108.523z"/>
					<path fill="#FFFFFF" d="M313.595,109.889h-1.763V99.394l1.763-0.11v1.257c1.522-0.883,2.845-1.434,4.013-1.434
						c1.499,0,2.976,0.816,2.976,3.505v7.276h-1.763v-6.966c0-1.479-0.685-2.14-1.676-2.14c-1.103,0-2.402,0.661-3.55,1.28V109.889
						L313.595,109.889z"/>
					<path fill="#FFFFFF" d="M329.713,100.916h-1.765l0.133-1.588h1.632v-3.285l1.763-0.11v3.396h3.242l-0.132,1.588h-3.109v5.225
						c0,1.345,0.353,2.382,1.764,2.382c0.419,0,1.103-0.088,1.699-0.243l0.155,1.478c-0.882,0.264-1.522,0.352-2.162,0.352
						c-2.514,0-3.218-1.853-3.218-3.814V100.916L329.713,100.916z"/>
					<path fill="#FFFFFF" d="M344.089,99.394l1.763-0.11v10.605h-1.543l-0.221-1.191c-1.499,0.861-2.843,1.412-4.012,1.412
						c-1.499,0-2.977-0.816-2.977-3.483v-7.232l1.764-0.11v7.011c0,1.478,0.684,2.16,1.676,2.16c1.102,0,2.402-0.683,3.549-1.3
						v-7.759H344.089z"/>
					<path fill="#FFFFFF" d="M366.38,99.108c1.434,0,2.777,0.86,2.777,3.505v7.276h-1.762v-6.966c0-1.479-0.643-2.14-1.545-2.14
						c-1.016,0-2.293,0.529-3.33,1.147c0.068,0.287,0.068,0.661,0.068,1.013v6.946h-1.766v-6.966c0-1.479-0.617-2.14-1.543-2.14
						c-0.992,0-2.182,0.661-3.24,1.28v7.826h-1.764V99.394l1.764-0.11v1.257c1.412-0.883,2.666-1.434,3.77-1.434
						c0.947,0,1.896,0.397,2.359,1.411C363.712,99.637,364.992,99.108,366.38,99.108z"/>
					<path fill="#FFFFFF" d="M374.011,96.506c0,0.661-0.486,1.147-1.148,1.147c-0.66,0-1.146-0.485-1.146-1.147
						s0.486-1.146,1.146-1.146C373.525,95.361,374.011,95.844,374.011,96.506z M373.746,99.284v10.605h-1.764V99.394L373.746,99.284
						z"/>
					<path fill="#FFFFFF" d="M376.72,107.949c0.885,0.374,2.074,0.617,3.021,0.617c1.08,0,1.963-0.397,1.916-1.609
						c-0.02-1.94-5.377-1.455-5.377-4.938c0-1.985,1.498-2.91,3.658-2.91c1.037,0,2.139,0.22,3.154,0.639l-0.264,1.522
						c-0.816-0.352-2.008-0.618-2.912-0.618c-1.037,0-1.896,0.375-1.852,1.455c0.021,1.918,5.379,1.456,5.379,4.939
						c0,2.096-1.588,3.065-3.836,3.065c-1.035,0-2.16-0.221-3.131-0.639L376.72,107.949z"/>
					<path fill="#FFFFFF" d="M397.912,99.108c1.432,0,2.775,0.86,2.775,3.505v7.276h-1.762v-6.966c0-1.479-0.641-2.14-1.543-2.14
						c-1.016,0-2.295,0.529-3.33,1.147c0.066,0.287,0.066,0.661,0.066,1.013v6.946h-1.764v-6.966c0-1.479-0.617-2.14-1.543-2.14
						c-0.992,0-2.182,0.661-3.242,1.28v7.826h-1.762V99.394l1.762-0.11v1.257c1.412-0.883,2.668-1.434,3.771-1.434
						c0.947,0,1.896,0.397,2.359,1.411C395.242,99.637,396.523,99.108,397.912,99.108z"/>
					<path fill="#FFFFFF" d="M408.033,99.108c2.998,0,4.938,1.742,4.938,5.512c0,3.771-1.939,5.491-4.938,5.491
						c-3.021,0-4.963-1.72-4.963-5.491C403.07,100.85,405.011,99.108,408.033,99.108z M408.033,108.523
						c1.873,0,3.152-1.147,3.152-3.902c0-2.756-1.279-3.925-3.152-3.925c-1.896,0-3.176,1.168-3.176,3.925
						C404.857,107.375,406.136,108.523,408.033,108.523z"/>
					<path fill="#FFFFFF" d="M422.716,109.889h-1.764V99.394l1.764-0.11v1.257c1.521-0.883,2.844-1.434,4.014-1.434
						c1.498,0,2.977,0.816,2.977,3.505v7.276h-1.766v-6.966c0-1.479-0.682-2.14-1.674-2.14c-1.104,0-2.404,0.661-3.551,1.28V109.889
						L422.716,109.889z"/>
					<path fill="#FFFFFF" d="M439.517,99.394l1.764-0.11v10.605h-1.545l-0.221-1.191c-1.498,0.861-2.842,1.412-4.012,1.412
						c-1.498,0-2.975-0.816-2.975-3.483v-7.232l1.762-0.11v7.011c0,1.478,0.686,2.16,1.676,2.16c1.102,0,2.402-0.683,3.549-1.3
						v-7.759H439.517z M439.318,94.345l-2.248,3.55h-1.588l1.852-3.55H439.318z"/>
					<path fill="#FFFFFF" d="M456.207,99.108c1.436,0,2.779,0.86,2.779,3.505v7.276h-1.764v-6.966c0-1.479-0.639-2.14-1.543-2.14
						c-1.014,0-2.293,0.529-3.33,1.147c0.066,0.287,0.066,0.661,0.066,1.013v6.946h-1.762v-6.966c0-1.479-0.617-2.14-1.545-2.14
						c-0.992,0-2.182,0.661-3.24,1.28v7.826h-1.762V99.394l1.762-0.11v1.257c1.41-0.883,2.668-1.434,3.77-1.434
						c0.949,0,1.896,0.397,2.361,1.411C453.541,99.637,454.818,99.108,456.207,99.108z"/>
					<path fill="#FFFFFF" d="M463.132,105.237c0.09,2.492,1.432,3.329,3.197,3.329c0.992,0,2.027-0.264,3.062-0.594l0.244,1.476
						c-1.125,0.419-2.27,0.662-3.461,0.662c-2.734,0-4.807-1.456-4.807-5.491c0-3.946,1.984-5.512,4.719-5.512
						c2.711,0,4.52,2.028,3.947,6.129H463.132z M463.154,103.848h5.248c0.066-2.073-0.881-3.241-2.381-3.241
						C464.345,100.607,463.287,101.643,463.154,103.848z"/>
					<path fill="#FFFFFF" d="M478.677,101.115c-2.117-0.572-2.381-0.375-4.389,2.139v6.636h-1.764V99.394l1.764-0.11v2.007
						c1.785-2.403,2.623-2.403,4.607-1.94L478.677,101.115z"/>
					<path fill="#FFFFFF" d="M484.939,99.108c2.998,0,4.939,1.742,4.939,5.512c0,3.771-1.941,5.491-4.939,5.491
						c-3.02,0-4.959-1.72-4.959-5.491C479.98,100.85,481.919,99.108,484.939,99.108z M484.939,108.523
						c1.873,0,3.154-1.147,3.154-3.902c0-2.756-1.281-3.925-3.154-3.925c-1.896,0-3.176,1.168-3.176,3.925
						C481.763,107.375,483.042,108.523,484.939,108.523z"/>
					<path fill="#FFFFFF" d="M501.63,108.081l3.131-8.797l1.918,0.11l-5.621,15.103l-1.896-0.132l1.719-4.476h-0.373l-3.926-10.495
						l1.918-0.11L501.63,108.081z"/>
					<path fill="#FFFFFF" d="M519.998,101.115c-2.117-0.572-2.383-0.375-4.389,2.139v6.636h-1.762V99.394l1.762-0.11v2.007
						c1.787-2.403,2.623-2.403,4.609-1.94L519.998,101.115z"/>
					<path fill="#FFFFFF" d="M523.064,105.237c0.086,2.492,1.432,3.329,3.197,3.329c0.99,0,2.025-0.264,3.062-0.594l0.244,1.476
						c-1.125,0.419-2.271,0.662-3.463,0.662c-2.732,0-4.807-1.456-4.807-5.491c0-3.946,1.984-5.512,4.721-5.512
						c2.709,0,4.518,2.028,3.945,6.129H523.064z M523.085,103.848h5.246c0.066-2.073-0.881-3.241-2.381-3.241
						C524.275,100.607,523.216,101.643,523.085,103.848z"/>
					<path fill="#FFFFFF" d="M532.015,104.619c0-4.013,2.182-5.512,4.85-5.512c0.969,0,2.004,0.199,2.998,0.507l-0.242,1.565
						c-0.926-0.309-1.809-0.485-2.602-0.485c-1.941,0-3.219,1.103-3.219,3.925c0,2.8,1.277,3.902,3.219,3.902
						c0.793,0,1.676-0.199,2.602-0.485l0.242,1.565c-0.994,0.332-2.029,0.507-2.998,0.507
						C534.197,110.11,532.015,108.632,532.015,104.619z"/>
					<path fill="#FFFFFF" d="M544.054,96.506c0,0.661-0.486,1.147-1.148,1.147c-0.66,0-1.146-0.485-1.146-1.147
						s0.486-1.146,1.146-1.146C543.568,95.361,544.054,95.844,544.054,96.506z M543.789,99.284v10.605h-1.764V99.394L543.789,99.284
						z"/>
					<path fill="#FFFFFF" d="M546.611,93.288l1.764-0.111v7.365c1.41-0.86,2.713-1.434,3.881-1.434c2.137,0,3.703,1.698,3.703,5.512
						c0,3.991-2.096,5.491-4.719,5.491c-1.652,0-2.889-0.288-4.629-0.905V93.288L546.611,93.288z M551.261,108.523
						c1.588,0,2.912-1.037,2.912-3.946c0-2.756-0.971-3.793-2.248-3.793c-1.104,0-2.383,0.661-3.551,1.28v5.974
						C549.367,108.39,550.359,108.523,551.261,108.523z"/>
					<path fill="#FFFFFF" d="M559.664,105.237c0.09,2.492,1.434,3.329,3.197,3.329c0.992,0,2.027-0.264,3.064-0.594l0.242,1.476
						c-1.125,0.419-2.271,0.662-3.461,0.662c-2.734,0-4.807-1.456-4.807-5.491c0-3.946,1.984-5.512,4.719-5.512
						c2.711,0,4.518,2.028,3.945,6.129H559.664z M559.685,103.848h5.248c0.064-2.073-0.883-3.241-2.383-3.241
						C560.876,100.607,559.818,101.643,559.685,103.848z"/>
				</g>
				<g>
					<path fill="#FFFFFF" d="M121.397,76.879c0,5.484,2.636,7.364,5.954,7.364c1.436,0,2.846-0.288,4.465-0.861l0.444,2.036
						c-1.62,0.574-3.396,0.887-5.014,0.887c-4.44,0-8.174-2.455-8.174-9.426c0-6.973,3.734-9.427,8.174-9.427
						c1.619,0,3.395,0.312,5.014,0.888l-0.444,2.036c-1.62-0.574-3.029-0.888-4.465-0.888
						C124.035,69.488,121.397,71.394,121.397,76.879z"/>
					<path fill="#FFFFFF" d="M141.452,77.428c0-1.672-0.757-2.273-1.959-2.273c-1.175,0-2.794,0.444-4.648,1.045l-0.313-1.827
						c1.724-0.628,3.708-1.098,5.197-1.098c2.324,0,3.812,1.045,3.812,4.101v8.67h-1.593l-0.288-1.463
						c-1.383,1.175-2.951,1.724-4.308,1.724c-1.803,0-3.343-1.018-3.343-3.29c0-2.324,1.461-3.76,7.442-4.23V77.428z
						 M141.452,82.859v-2.479c-4.439,0.365-5.406,1.305-5.406,2.507c0,1.305,0.888,1.698,1.645,1.698
						C139.075,84.582,140.485,83.851,141.452,82.859z M142.051,67.635l-2.663,4.205h-1.88l2.193-4.205H142.051z"/>
					<path fill="#FFFFFF" d="M161.14,73.274c1.698,0,3.29,1.019,3.29,4.153v8.618h-2.088v-8.251c0-1.75-0.758-2.533-1.828-2.533
						c-1.202,0-2.716,0.626-3.944,1.356c0.079,0.339,0.079,0.784,0.079,1.202v8.226h-2.09v-8.251c0-1.75-0.731-2.533-1.828-2.533
						c-1.175,0-2.585,0.783-3.839,1.514v9.271h-2.089V73.615l2.089-0.131v1.488c1.671-1.045,3.159-1.698,4.466-1.698
						c1.123,0,2.246,0.471,2.794,1.671C157.98,73.902,159.495,73.274,161.14,73.274z"/>
					<path fill="#FFFFFF" d="M167.692,66.381l2.089-0.131v8.722c1.671-1.019,3.212-1.698,4.596-1.698
						c2.533,0,4.387,2.011,4.387,6.529c0,4.727-2.481,6.502-5.588,6.502c-1.958,0-3.421-0.339-5.483-1.07L167.692,66.381
						L167.692,66.381z M173.202,84.426c1.88,0,3.447-1.228,3.447-4.674c0-3.264-1.148-4.491-2.664-4.491
						c-1.306,0-2.821,0.783-4.205,1.514v7.077C170.956,84.269,172.131,84.426,173.202,84.426z"/>
					<path fill="#FFFFFF" d="M183.907,70.194c0,0.784-0.575,1.359-1.357,1.359c-0.784,0-1.359-0.575-1.359-1.359
						c0-0.783,0.575-1.358,1.359-1.358C183.333,68.835,183.907,69.41,183.907,70.194z M183.594,73.484v12.562h-2.089V73.615
						L183.594,73.484z"/>
					<path fill="#FFFFFF" d="M193.516,77.428c0-1.672-0.757-2.273-1.959-2.273c-1.175,0-2.794,0.444-4.648,1.045l-0.313-1.827
						c1.724-0.628,3.708-1.098,5.197-1.098c2.325,0,3.813,1.045,3.813,4.101v8.67h-1.593l-0.288-1.463
						c-1.383,1.175-2.951,1.724-4.308,1.724c-1.802,0-3.342-1.018-3.342-3.29c0-2.324,1.462-3.76,7.442-4.23V77.428z
						 M193.516,82.859v-2.479c-4.439,0.365-5.405,1.305-5.405,2.507c0,1.305,0.888,1.698,1.646,1.698
						C191.14,84.582,192.55,83.851,193.516,82.859z"/>
					<path fill="#FFFFFF" d="M199.704,75.416h-2.09l0.156-1.88h1.934v-3.891l2.088-0.13v4.021h3.839l-0.156,1.88h-3.683v6.19
						c0,1.591,0.418,2.819,2.09,2.819c0.496,0,1.305-0.104,2.011-0.287l0.182,1.749c-1.044,0.313-1.802,0.417-2.559,0.417
						c-2.977,0-3.812-2.193-3.812-4.517V75.416L199.704,75.416z"/>
					<path fill="#FFFFFF" d="M209.471,80.535c0.104,2.952,1.697,3.944,3.787,3.944c1.174,0,2.402-0.312,3.629-0.705l0.288,1.75
						c-1.332,0.496-2.689,0.783-4.101,0.783c-3.238,0-5.693-1.724-5.693-6.502c0-4.673,2.351-6.529,5.589-6.529
						c3.212,0,5.354,2.403,4.674,7.26H209.471z M209.496,78.889h6.216c0.078-2.454-1.045-3.839-2.821-3.839
						C210.907,75.05,209.653,76.278,209.496,78.889z"/>
					<path fill="#FFFFFF" d="M233.727,77.428c0-1.672-0.757-2.273-1.959-2.273c-1.175,0-2.794,0.444-4.648,1.045l-0.314-1.827
						c1.724-0.628,3.709-1.098,5.197-1.098c2.325,0,3.813,1.045,3.813,4.101v8.67h-1.594l-0.287-1.463
						c-1.383,1.175-2.951,1.724-4.309,1.724c-1.802,0-3.342-1.018-3.342-3.29c0-2.324,1.463-3.76,7.442-4.23V77.428z
						 M233.727,82.859v-2.479c-4.439,0.365-5.406,1.305-5.406,2.507c0,1.305,0.888,1.698,1.646,1.698
						C231.351,84.582,232.76,83.851,233.727,82.859z"/>
					<path fill="#FFFFFF" d="M249.368,79.594c0,2.403,1.228,3.055,3.264,3.055c2.011,0,3.264-0.652,3.264-3.055V67.712h4.048v12.327
						c0,4.518-3.082,6.267-7.313,6.267c-4.283,0-7.338-1.749-7.338-6.267V67.712h4.074L249.368,79.594L249.368,79.594z"/>
					<path fill="#FFFFFF" d="M266.208,86.045h-3.656V73.432l3.656-0.235v1.332c1.854-0.993,3.317-1.489,4.622-1.489
						c1.829,0,3.551,1.019,3.551,4.206v8.8h-3.656v-7.653c0-1.331-0.601-1.854-1.567-1.854c-0.836,0-1.854,0.417-2.951,0.836v8.669
						H266.208z"/>
					<path fill="#FFFFFF" d="M280.1,80.901c0.026,1.698,1.071,2.351,2.742,2.351c1.228,0,2.402-0.339,3.734-0.627l0.471,2.874
						c-1.462,0.521-2.847,0.809-4.518,0.809c-3.761,0-6.085-1.854-6.085-6.606c0-4.728,2.638-6.661,6.058-6.661
						c3.579,0,5.876,2.404,5.145,7.861L280.1,80.901L280.1,80.901z M280.125,78.341h4.022c0.052-1.488-0.627-2.376-1.88-2.376
						S280.256,76.826,280.125,78.341z"/>
					<path fill="#FFFFFF" d="M290.753,71.238c0-2.69,0.94-4.988,4.387-4.988c0.915,0,1.75,0.131,3.003,0.419l-0.288,3.081
						c-0.679-0.157-1.41-0.262-1.88-0.262c-1.228,0-1.567,0.732-1.567,2.115v1.698h3.369l-0.209,3.238h-3.16v9.505h-3.656V76.54
						h-1.985l0.209-3.238h1.775v-2.063H290.753z"/>
					<path fill="#FFFFFF" d="M304.514,73.04c3.97,0,6.398,2.195,6.398,6.634c0,4.465-2.429,6.632-6.398,6.632
						c-3.943,0-6.397-2.167-6.397-6.632C298.116,75.234,300.571,73.04,304.514,73.04z M304.514,83.068
						c1.541,0,2.663-0.862,2.663-3.395s-1.122-3.396-2.663-3.396c-1.567,0-2.663,0.863-2.663,3.396
						C301.851,82.206,302.947,83.068,304.514,83.068z"/>
					<path fill="#FFFFFF" d="M316.629,86.045h-3.656V73.432l3.656-0.235v1.332c1.854-0.993,3.317-1.489,4.622-1.489
						c1.828,0,3.551,1.019,3.551,4.206v8.8h-3.656v-7.653c0-1.331-0.601-1.854-1.566-1.854c-0.836,0-1.855,0.417-2.952,0.836
						L316.629,86.045L316.629,86.045z"/>
				</g>
				<g>
					<path fill="#FFFFFF" d="M364.539,142.759l1.832-0.115v17.367h-1.605l-0.229-1.26c-1.467,0.893-2.816,1.488-4.01,1.488
						c-2.246,0-3.871-1.742-3.871-5.705c0-4.102,2.131-5.729,4.65-5.729c1.055,0,2.178,0.299,3.23,0.756v-6.803H364.539z
						 M361.537,150.458c-1.648,0-3.025,1.076-3.025,4.1c0,2.887,1.01,3.965,2.359,3.965c1.146,0,2.477-0.711,3.668-1.352v-6.027
						C363.642,150.779,362.498,150.458,361.537,150.458z"/>
					<path fill="#FFFFFF" d="M370.544,155.177c0.092,2.588,1.488,3.461,3.322,3.461c1.029,0,2.107-0.275,3.184-0.619l0.254,1.533
						c-1.168,0.438-2.361,0.689-3.598,0.689c-2.842,0-4.994-1.512-4.994-5.707c0-4.102,2.061-5.727,4.902-5.727
						c2.818,0,4.697,2.107,4.102,6.369H370.544L370.544,155.177z M370.568,153.734h5.451c0.068-2.154-0.914-3.367-2.473-3.367
						C371.804,150.366,370.705,151.443,370.568,153.734z"/>
					<path fill="#FFFFFF" d="M386.589,150.687h-1.834l0.137-1.65h1.697v-3.414l1.832-0.115v3.529h3.369l-0.139,1.65h-3.229v5.43
						c0,1.396,0.365,2.475,1.832,2.475c0.436,0,1.146-0.092,1.764-0.252l0.16,1.533c-0.916,0.275-1.58,0.367-2.244,0.367
						c-2.613,0-3.346-1.924-3.346-3.963V150.687L386.589,150.687z"/>
					<path fill="#FFFFFF" d="M396.238,146.105c0,0.688-0.506,1.191-1.191,1.191c-0.689,0-1.191-0.504-1.191-1.191
						c0-0.689,0.504-1.191,1.191-1.191S396.238,145.415,396.238,146.105z M395.962,148.991v11.02h-1.832v-10.906L395.962,148.991z"
						/>
					<path fill="#FFFFFF" d="M400.134,155.177c0.092,2.588,1.488,3.461,3.322,3.461c1.029,0,2.107-0.275,3.184-0.619l0.254,1.533
						c-1.17,0.438-2.361,0.689-3.598,0.689c-2.842,0-4.996-1.512-4.996-5.707c0-4.102,2.062-5.727,4.904-5.727
						c2.816,0,4.695,2.107,4.1,6.369H400.134L400.134,155.177z M400.156,153.734h5.455c0.068-2.154-0.918-3.367-2.477-3.367
						C401.394,150.366,400.294,151.443,400.156,153.734z"/>
					<path fill="#FFFFFF" d="M422.337,148.808c1.49,0,2.889,0.893,2.889,3.643v7.561h-1.834v-7.24c0-1.535-0.664-2.223-1.604-2.223
						c-1.055,0-2.383,0.551-3.459,1.191c0.07,0.299,0.07,0.688,0.07,1.055v7.217h-1.836v-7.238c0-1.535-0.641-2.225-1.604-2.225
						c-1.029,0-2.268,0.689-3.367,1.33v8.133h-1.834v-10.904l1.834-0.115v1.305c1.467-0.916,2.771-1.488,3.916-1.488
						c0.986,0,1.973,0.414,2.453,1.467C419.566,149.357,420.896,148.808,422.337,148.808z"/>
					<path fill="#FFFFFF" d="M429.861,164.661l-1.834,0.139v-15.695l1.834-0.113v1.305c1.465-0.895,2.816-1.488,4.031-1.488
						c2.223,0,3.85,1.764,3.85,5.727c0,4.102-2.107,5.707-4.627,5.707c-1.055,0-2.201-0.299-3.256-0.756v5.176H429.861z
						 M432.861,158.591c1.65,0,3.025-1.078,3.025-4.102c0-2.863-1.01-3.941-2.338-3.941c-1.146,0-2.475,0.689-3.688,1.328v6.027
						C430.753,158.269,431.921,158.591,432.861,158.591z"/>
					<path fill="#FFFFFF" d="M444.781,148.808c3.115,0,5.133,1.809,5.133,5.727s-2.018,5.707-5.133,5.707
						c-3.139,0-5.156-1.787-5.156-5.707C439.625,150.616,441.642,148.808,444.781,148.808z M444.781,158.591
						c1.947,0,3.275-1.191,3.275-4.057c0-2.863-1.328-4.076-3.275-4.076c-1.971,0-3.301,1.213-3.301,4.076
						C441.48,157.4,442.81,158.591,444.781,158.591z"/>
					<path fill="#FFFFFF" d="M463.781,152.45c0-1.467-0.666-1.992-1.721-1.992c-1.029,0-2.451,0.389-4.076,0.916l-0.275-1.604
						c1.512-0.551,3.252-0.963,4.559-0.963c2.039,0,3.344,0.916,3.344,3.596v7.607h-1.396l-0.25-1.283
						c-1.217,1.029-2.59,1.512-3.781,1.512c-1.582,0-2.934-0.895-2.934-2.889c0-2.037,1.283-3.297,6.531-3.711V152.45
						L463.781,152.45z M463.781,157.216v-2.178c-3.896,0.32-4.744,1.146-4.744,2.199c0,1.146,0.779,1.49,1.443,1.49
						C461.695,158.728,462.931,158.085,463.781,157.216z"/>
					<path fill="#FFFFFF" d="M470.519,146.105c0,0.688-0.506,1.191-1.191,1.191c-0.688,0-1.191-0.504-1.191-1.191
						c0-0.689,0.506-1.191,1.191-1.191S470.519,145.415,470.519,146.105z M470.246,148.991v11.02h-1.834v-10.906L470.246,148.991z"
						/>
					<path fill="#FFFFFF" d="M479.433,150.892c-2.199-0.596-2.475-0.389-4.559,2.223v6.896h-1.834v-10.906l1.834-0.115v2.084
						c1.854-2.496,2.727-2.496,4.787-2.016L479.433,150.892z"/>
					<path fill="#FFFFFF" d="M482.484,155.177c0.092,2.588,1.488,3.461,3.322,3.461c1.029,0,2.107-0.275,3.184-0.619l0.254,1.533
						c-1.168,0.438-2.361,0.689-3.598,0.689c-2.842,0-4.994-1.512-4.994-5.707c0-4.102,2.061-5.727,4.902-5.727
						c2.818,0,4.697,2.107,4.102,6.369H482.484L482.484,155.177z M482.507,153.734h5.451c0.07-2.154-0.914-3.367-2.473-3.367
						C483.744,150.366,482.644,151.443,482.507,153.734z"/>
				</g>
				<g>
					<path fill="#FFFFFF" d="M461.666,177.964l3.453-0.199v18.693h-3.207l-0.246-1.182c-1.381,0.91-2.713,1.43-3.871,1.43
						c-2.465,0-4.316-2.096-4.316-6.264c0-4.416,2.441-6.264,5.203-6.264c0.986,0,1.998,0.246,2.984,0.641V177.964z M459.47,187.236
						c-1.357,0-2.465,0.838-2.465,3.279c0,2.221,0.812,2.885,1.898,2.885c0.791,0,1.727-0.369,2.764-0.764v-4.98
						C460.951,187.433,460.162,187.236,459.47,187.236z"/>
					<path fill="#FFFFFF" d="M470.347,191.601c0.023,1.604,1.012,2.219,2.588,2.219c1.16,0,2.27-0.32,3.527-0.592l0.443,2.713
						c-1.381,0.492-2.688,0.764-4.266,0.764c-3.551,0-5.746-1.75-5.746-6.238c0-4.463,2.49-6.289,5.723-6.289
						c3.377,0,5.547,2.27,4.857,7.424H470.347L470.347,191.601z M470.371,189.185h3.799c0.049-1.406-0.592-2.246-1.775-2.246
						C471.212,186.939,470.494,187.753,470.371,189.185z"/>
					<path fill="#FFFFFF" d="M488.396,201.441l-3.451,0.197v-17.09l3.451-0.223v1.283c1.383-0.887,2.713-1.43,3.898-1.43
						c2.441,0,4.291,2.096,4.291,6.264c0,4.414-2.416,6.264-5.178,6.264c-0.988,0-2.023-0.223-3.012-0.643V201.441z
						 M490.593,193.648c1.355,0,2.465-0.84,2.465-3.256c0-2.244-0.812-2.91-1.875-2.91c-0.789,0-1.725,0.395-2.787,0.791v4.955
						C489.113,193.45,489.925,193.648,490.593,193.648z"/>
					<path fill="#FFFFFF" d="M503.91,184.179c3.748,0,6.043,2.07,6.043,6.262c0,4.219-2.295,6.264-6.043,6.264
						c-3.725,0-6.043-2.045-6.043-6.264C497.867,186.249,500.185,184.179,503.91,184.179z M503.91,193.648
						c1.453,0,2.514-0.814,2.514-3.207s-1.059-3.205-2.514-3.205c-1.48,0-2.516,0.812-2.516,3.205S502.429,193.648,503.91,193.648z"
						/>
					<path fill="#FFFFFF" d="M519.642,188.099c-2.07-0.641-2.613-0.715-4.465,1.701v6.658h-3.451v-11.91l3.451-0.223v2.021
						c1.852-2.268,2.889-2.467,4.859-1.898L519.642,188.099z"/>
					<path fill="#FFFFFF" d="M529.21,184.325l2.416,8.459l2.418-8.459l3.771,0.223l-3.969,11.91h-4.463l-3.945-11.91L529.21,184.325
						z"/>
					<path fill="#FFFFFF" d="M542.503,181.023c0,1.133-0.84,1.971-1.975,1.971c-1.133,0-1.973-0.838-1.973-1.971
						c0-1.137,0.84-1.975,1.973-1.975C541.664,179.048,542.503,179.886,542.503,181.023z M542.255,184.325v12.133h-3.451v-11.91
						L542.255,184.325z"/>
					<path fill="#FFFFFF" d="M552.244,177.964l3.453-0.199v18.693h-3.207l-0.246-1.182c-1.383,0.91-2.713,1.43-3.873,1.43
						c-2.465,0-4.314-2.096-4.314-6.264c0-4.416,2.441-6.264,5.203-6.264c0.986,0,1.996,0.246,2.984,0.641V177.964L552.244,177.964z
						 M550.048,187.236c-1.355,0-2.465,0.838-2.465,3.279c0,2.221,0.812,2.885,1.898,2.885c0.787,0,1.727-0.369,2.762-0.764v-4.98
						C551.529,187.433,550.738,187.236,550.048,187.236z"/>
					<path fill="#FFFFFF" d="M563.859,188.542c0-0.938-0.469-1.307-1.357-1.307c-0.887,0-2.244,0.271-4.191,0.838l-0.494-2.959
						c1.727-0.543,3.85-0.938,5.4-0.938c2.541,0,4.094,1.084,4.094,4.217v8.064h-2.588l-0.396-1.037
						c-1.355,0.938-2.562,1.283-3.672,1.283c-1.826,0-3.43-1.135-3.43-3.428c0-2.441,1.578-3.551,6.635-4.02V188.542
						L563.859,188.542z M563.859,193.327v-1.801c-2.637,0.271-3.33,0.641-3.33,1.529c0,0.738,0.52,1.012,1.111,1.012
						C562.355,194.068,563.144,193.771,563.859,193.327z"/>
					<path fill="#FFFFFF" d="M573.304,194.683c0,1.135-0.865,1.996-2,1.996c-1.158,0-1.996-0.861-1.996-1.996
						c0-1.16,0.838-1.996,1.996-1.996C572.441,192.685,573.304,193.523,573.304,194.683z"/>
				</g>
				<g>
					<path fill="#FFFFFF" d="M364.285,190.427h-0.33c-0.549,0.949-0.037,1.791,0.914,1.791h0.986c5.227,0,8.115,1.973,8.115,5.336
						c0,3.545-3.07,6.834-10.197,6.834c-6.143,0-7.969-2.449-7.969-4.898c0-1.682,0.988-3.215,3.105-4.604
						c-0.365-0.66-0.51-1.354-0.51-2.084c0-1.242,0.51-2.447,1.242-3.289c-1.939-0.951-2.996-2.668-2.996-5.191
						c0-4.092,2.887-6.176,7.637-6.176c1.17,0,2.229,0.146,3.143,0.365h6.578l-0.363,5.482h-1.646v0.328
						C371.996,188.415,369.109,190.427,364.285,190.427z M362.675,197.115c-0.512,0.439-0.805,1.023-0.805,1.572
						c0,0.877,0.438,1.645,2.705,1.645c1.389,0,3.254-0.328,3.254-1.791c0-0.84-1.279-1.316-3.363-1.316h-0.328
						C363.589,197.224,363.113,197.187,362.675,197.115z M364.285,182.532c-1.096,0-1.791,0.621-1.791,1.791
						s0.695,1.717,1.791,1.717c1.168,0,1.863-0.549,1.863-1.717C366.148,183.154,365.453,182.532,364.285,182.532z"/>
					<path fill="#FFFFFF" d="M388.117,185.163c-2.852-0.914-3.838-1.242-6.248,2.047v9.283h-6.215v-17.799l6.215-0.365v2.814
						c2.592-3.033,4.201-3.473,6.943-2.596L388.117,185.163z"/>
					<path fill="#FFFFFF" d="M398.83,184.945c0-0.914-0.475-1.316-1.645-1.316c-1.133,0-3.033,0.293-6.068,1.133l-0.877-5.299
						c2.631-0.803,5.994-1.314,8.369-1.314c4.059,0,6.471,1.643,6.471,6.469v11.877h-4.678l-0.66-1.279
						c-2.045,1.279-3.617,1.646-5.152,1.646c-2.814,0-5.262-1.791-5.262-5.301c0-3.801,2.447-5.262,9.502-5.994V184.945z
						 M398.83,191.779v-2.303c-2.74,0.367-3.582,0.549-3.582,1.646c0,0.766,0.512,1.096,1.279,1.096
						C397.148,192.218,397.951,192.034,398.83,191.779z"/>
					<path fill="#FFFFFF" d="M409.431,183.995h-2.74l0.365-5.482h2.375v-5.338l6.213-0.363v5.699h4.387l-0.367,5.482h-4.02v4.934
						c0,1.791,0.475,2.449,1.865,2.449c0.621,0,1.607-0.146,2.521-0.328l0.475,5.189c-1.9,0.438-3.143,0.621-4.494,0.621
						c-5.189,0-6.58-3.326-6.58-7.311V183.995L409.431,183.995z"/>
					<path fill="#FFFFFF" d="M429.023,173.284c0,1.975-1.461,3.436-3.436,3.436s-3.436-1.461-3.436-3.436
						c0-1.973,1.461-3.436,3.436-3.436S429.023,171.312,429.023,173.284z M428.695,178.329v18.164h-6.215v-17.799L428.695,178.329z"
						/>
					<path fill="#FFFFFF" d="M432.607,190.902c1.754,0.549,4.201,0.842,5.59,0.842c0.805,0,1.465-0.33,1.207-1.207
						c-0.256-0.877-8.369-0.145-8.369-6.652c0-3.654,2.266-5.736,7.711-5.736c2.012,0,4.203,0.291,6.215,0.877l-0.879,5.08
						c-1.754-0.549-4.203-0.842-5.592-0.842c-0.805,0-1.461,0.33-1.205,1.205c0.256,0.879,8.369,0.146,8.369,6.652
						c0,3.654-2.266,5.738-7.711,5.738c-2.01,0-4.203-0.293-6.213-0.877L432.607,190.902z"/>
				</g>
				<g>
					<path fill="#FFFFFF" d="M174.841,187.245h28.151l-1.117,18.99h-54.514l-1.117-18.99c21.783-14.186,32.507-24.799,32.507-33.736
						c0-4.914-2.793-7.82-9.942-7.82c-4.469,0-10.725,1.119-19.103,3.689l-3.574-18.767c8.937-2.347,17.761-3.91,25.581-3.91
						c16.198,0,28.262,6.702,28.262,26.81C199.975,165.687,191.261,177.304,174.841,187.245z"/>
					<path fill="#FFFFFF" d="M241.636,126.701c19.772,0,33.513,10.947,33.513,40.326c0,29.379-13.74,40.326-33.513,40.326
						s-33.513-10.947-33.513-40.326C208.124,137.647,221.863,126.701,241.636,126.701z M241.636,188.365
						c6.033,0,11.171-4.357,11.171-21.338c0-16.867-5.25-21.338-11.171-21.338s-11.17,4.471-11.17,21.338
						C230.465,183.894,235.715,188.365,241.636,188.365z"/>
					<path fill="#FFFFFF" d="M314.91,126.701c19.772,0,33.512,10.947,33.512,40.326c0,29.379-13.74,40.326-33.512,40.326
						c-19.773,0-33.513-10.947-33.513-40.326C281.397,137.647,295.138,126.701,314.91,126.701z M314.91,188.365
						c6.032,0,11.171-4.357,11.171-21.338c0-16.867-5.25-21.338-11.171-21.338c-5.921,0-11.171,4.471-11.171,21.338
						S308.989,188.365,314.91,188.365z"/>
				</g>
				<g>
					<path fill="#FFFFFF" d="M134.904,173.898c2.692,0.229,5.521,0.73,7.849,1.506l-1.46,7.666
						c-2.966-0.867-7.255-1.506-10.084-1.506c-2.418,0-2.875,1.869-2.51,3.148c0.548,1.916,15.24,1.186,15.24,11.953
						c0,5.43-2.737,8.898-9.033,9.811v4.928l-6.388,0.455v-5.201c-2.692-0.229-5.566-0.684-7.848-1.506l1.46-7.664
						c2.965,0.865,7.254,1.506,10.083,1.506c2.418,0,2.875-1.871,2.51-3.148c-0.548-1.916-15.24-1.188-15.24-11.955
						c0-5.43,2.691-8.896,9.033-9.809v-4.928l6.388-0.457V173.898z"/>
				</g>
			</g>
		</g>
	</g>
</g>
</svg>
