<?xml version="1.0" encoding="utf-8"?>
<!-- Generator: Adobe Illustrator 16.0.0, SVG Export Plug-In . SVG Version: 6.00 Build 0)  -->
<!DOCTYPE svg PUBLIC "-//W3C//DTD SVG 1.1//EN" "http://www.w3.org/Graphics/SVG/1.1/DTD/svg11.dtd">
<svg version="1.1" xmlns="http://www.w3.org/2000/svg" xmlns:xlink="http://www.w3.org/1999/xlink" x="0px" y="0px" width="490px"
	 height="210px" viewBox="1.217 -0.129 490 210" enable-background="new 1.217 -0.129 490 210" xml:space="preserve">
<g id="Layer_2_1_">
	<g>
		<path fill="#FFFFFF" d="M82.353,97.291c0,3.403,1.637,4.57,3.694,4.57c0.892,0,1.767-0.178,2.771-0.535l0.275,1.264
			c-1.005,0.356-2.107,0.551-3.111,0.551c-2.755,0-5.072-1.523-5.072-5.85s2.317-5.85,5.072-5.85c1.004,0,2.106,0.195,3.111,0.551
			l-0.275,1.264c-1.005-0.357-1.88-0.551-2.771-0.551C83.989,92.705,82.353,93.888,82.353,97.291z"/>
		<path fill="#FFFFFF" d="M94.2,95.054c2.204,0,3.63,1.28,3.63,4.051s-1.426,4.035-3.63,4.035c-2.22,0-3.646-1.264-3.646-4.035
			S91.98,95.054,94.2,95.054z M94.2,101.974c1.377,0,2.317-0.842,2.317-2.868c0-2.025-0.94-2.884-2.317-2.884
			c-1.394,0-2.333,0.859-2.333,2.884C91.867,101.131,92.807,101.974,94.2,101.974z"/>
		<path fill="#FFFFFF" d="M101.041,102.979h-1.296v-7.713l1.296-0.081v0.923c1.118-0.648,2.09-1.053,2.949-1.053
			c1.102,0,2.188,0.6,2.188,2.577v5.348h-1.296v-5.121c0-1.086-0.502-1.572-1.231-1.572c-0.81,0-1.766,0.486-2.609,0.939V102.979z"
			/>
		<path fill="#FFFFFF" d="M113.991,102.979h-1.296v-7.713l1.296-0.081v0.923c1.118-0.648,2.09-1.053,2.949-1.053
			c1.102,0,2.188,0.6,2.188,2.577v5.348h-1.296v-5.121c0-1.086-0.502-1.572-1.231-1.572c-0.81,0-1.766,0.486-2.609,0.939V102.979z"
			/>
		<path fill="#FFFFFF" d="M126.503,95.265l1.296-0.081v7.794h-1.134l-0.162-0.875c-1.102,0.632-2.09,1.037-2.949,1.037
			c-1.102,0-2.188-0.6-2.188-2.561v-5.315l1.296-0.081v5.153c0,1.086,0.502,1.588,1.231,1.588c0.811,0,1.767-0.502,2.609-0.956
			V95.265z"/>
		<path fill="#FFFFFF" d="M131.01,99.559c0.065,1.832,1.053,2.447,2.35,2.447c0.729,0,1.491-0.195,2.252-0.438l0.178,1.085
			c-0.826,0.308-1.669,0.486-2.544,0.486c-2.009,0-3.533-1.069-3.533-4.035c0-2.9,1.458-4.051,3.468-4.051
			c1.993,0,3.322,1.491,2.901,4.505H131.01z M131.026,98.539h3.857c0.049-1.523-0.648-2.382-1.75-2.382
			C131.901,96.156,131.123,96.918,131.026,98.539z"/>
		<path fill="#FFFFFF" d="M138.19,101.553c0.648,0.275,1.523,0.454,2.22,0.454c0.794,0,1.442-0.292,1.41-1.183
			c-0.016-1.426-3.954-1.069-3.954-3.63c0-1.458,1.102-2.139,2.69-2.139c0.761,0,1.572,0.162,2.317,0.47l-0.194,1.118
			c-0.6-0.259-1.475-0.454-2.139-0.454c-0.761,0-1.394,0.276-1.361,1.07c0.016,1.41,3.954,1.069,3.954,3.63
			c0,1.54-1.167,2.252-2.819,2.252c-0.762,0-1.588-0.162-2.301-0.47L138.19,101.553z"/>
		<path fill="#FFFFFF" d="M145.548,96.383h-1.296l0.097-1.167h1.199v-2.415l1.296-0.081v2.496h2.382l-0.097,1.167h-2.285v3.84
			c0,0.989,0.259,1.75,1.296,1.75c0.308,0,0.81-0.064,1.248-0.178l0.114,1.086c-0.648,0.194-1.118,0.259-1.588,0.259
			c-1.847,0-2.366-1.361-2.366-2.804V96.383z"/>
		<path fill="#FFFFFF" d="M155.662,96.529c-1.556-0.421-1.75-0.275-3.225,1.572v4.877h-1.296v-7.713l1.296-0.081v1.475
			c1.312-1.767,1.928-1.767,3.387-1.426L155.662,96.529z"/>
		<path fill="#FFFFFF" d="M160.427,95.054c2.204,0,3.63,1.28,3.63,4.051s-1.426,4.035-3.63,4.035c-2.22,0-3.646-1.264-3.646-4.035
			S158.207,95.054,160.427,95.054z M160.427,101.974c1.377,0,2.317-0.842,2.317-2.868c0-2.025-0.94-2.884-2.317-2.884
			c-1.394,0-2.333,0.859-2.333,2.884C158.093,101.131,159.033,101.974,160.427,101.974z"/>
		<path fill="#FFFFFF" d="M172.567,102.979h-2.528V91.603h3.825c2.771,0,4.521,1.248,4.521,3.954c0,2.674-1.961,4.035-4.57,4.035
			c-0.421,0-0.859-0.049-1.248-0.097V102.979z M172.567,97.226c0.308,0.049,0.729,0.098,1.069,0.098
			c1.199,0,2.106-0.519,2.106-1.799c0-1.134-0.697-1.669-2.139-1.669h-1.037V97.226z"/>
		<path fill="#FFFFFF" d="M184.885,97.485c-1.361-0.421-1.718-0.47-2.933,1.118v4.375h-2.269v-7.827l2.269-0.146v1.329
			c1.215-1.491,1.896-1.621,3.192-1.248L184.885,97.485z"/>
		<path fill="#FFFFFF" d="M189.861,94.909c2.463,0,3.97,1.361,3.97,4.116c0,2.771-1.507,4.116-3.97,4.116
			c-2.447,0-3.97-1.345-3.97-4.116C185.891,96.27,187.414,94.909,189.861,94.909z M189.861,101.131c0.956,0,1.653-0.535,1.653-2.107
			s-0.697-2.106-1.653-2.106c-0.973,0-1.653,0.535-1.653,2.106S188.889,101.131,189.861,101.131z"/>
		<path fill="#FFFFFF" d="M198.452,100.256h-0.34c-0.405,0.519-0.211,1.005,0.438,1.005h0.535c2.269,0,3.5,0.859,3.5,2.301
			c0,1.507-1.345,2.917-4.391,2.917c-2.512,0-3.354-1.037-3.354-2.123c0-0.746,0.454-1.475,1.377-2.074
			c-0.211-0.292-0.292-0.632-0.292-0.989c0-0.519,0.211-1.037,0.6-1.41c-0.842-0.421-1.312-1.199-1.312-2.285
			c0-1.734,1.183-2.69,3.241-2.69c0.486,0,0.923,0.064,1.312,0.162h2.787l-0.129,2.01h-0.762c0.032,0.162,0.048,0.34,0.048,0.519
			C201.709,99.333,200.526,100.256,198.452,100.256z M197.674,103.076c-0.389,0.275-0.616,0.665-0.616,1.005
			c0,0.47,0.308,0.859,1.41,0.859c1.004,0,1.88-0.324,1.88-1.037c0-0.486-0.632-0.778-1.734-0.778h-0.308
			C198.079,103.125,197.869,103.108,197.674,103.076z M198.452,96.562c-0.713,0-1.102,0.389-1.102,1.037
			c0,0.648,0.389,1.021,1.102,1.021c0.713,0,1.118-0.373,1.118-1.021C199.57,96.95,199.165,96.562,198.452,96.562z"/>
		<path fill="#FFFFFF" d="M208.987,97.485c-1.361-0.421-1.718-0.47-2.933,1.118v4.375h-2.269v-7.827l2.269-0.146v1.329
			c1.215-1.491,1.896-1.621,3.192-1.248L208.987,97.485z"/>
		<path fill="#FFFFFF" d="M214.19,97.777c0-0.616-0.308-0.859-0.891-0.859s-1.475,0.178-2.755,0.551l-0.324-1.944
			c1.135-0.356,2.528-0.616,3.549-0.616c1.669,0,2.69,0.713,2.69,2.771v5.299h-1.702l-0.259-0.681
			c-0.891,0.616-1.686,0.843-2.415,0.843c-1.199,0-2.252-0.746-2.252-2.252c0-1.604,1.037-2.333,4.359-2.642V97.777z M214.19,100.92
			v-1.183c-1.734,0.179-2.188,0.421-2.188,1.005c0,0.486,0.34,0.665,0.729,0.665C213.202,101.407,213.72,101.212,214.19,100.92z"/>
		<path fill="#FFFFFF" d="M227.998,94.909c1.15,0,2.042,0.729,2.042,2.609v5.461h-2.269V98.23c0-0.826-0.308-1.15-0.843-1.15
			c-0.486,0-1.085,0.227-1.653,0.486c0.033,0.211,0.033,0.454,0.033,0.713v4.699h-2.269V98.23c0-0.826-0.324-1.15-0.842-1.15
			c-0.47,0-1.037,0.259-1.637,0.519v5.38h-2.269v-7.827l2.269-0.146v0.826c1.069-0.616,1.928-0.923,2.69-0.923
			c0.713,0,1.329,0.292,1.685,0.923C226.15,95.184,227.042,94.909,227.998,94.909z"/>
		<path fill="#FFFFFF" d="M235.747,97.777c0-0.616-0.308-0.859-0.891-0.859s-1.475,0.178-2.755,0.551l-0.324-1.944
			c1.134-0.356,2.528-0.616,3.549-0.616c1.669,0,2.69,0.713,2.69,2.771v5.299h-1.702l-0.259-0.681
			c-0.891,0.616-1.686,0.843-2.415,0.843c-1.199,0-2.252-0.746-2.252-2.252c0-1.604,1.037-2.333,4.359-2.642V97.777z
			 M235.747,100.92v-1.183c-1.734,0.179-2.188,0.421-2.188,1.005c0,0.486,0.34,0.665,0.729,0.665
			C234.759,101.407,235.277,101.212,235.747,100.92z"/>
		<path fill="#FFFFFF" d="M248.875,90.825l2.27-0.129v12.283h-2.107l-0.162-0.778c-0.907,0.6-1.782,0.94-2.543,0.94
			c-1.621,0-2.836-1.377-2.836-4.116c0-2.9,1.604-4.116,3.419-4.116c0.647,0,1.312,0.162,1.96,0.421V90.825z M247.434,96.918
			c-0.892,0-1.621,0.551-1.621,2.155c0,1.458,0.535,1.896,1.248,1.896c0.519,0,1.135-0.243,1.814-0.502v-3.273
			C248.405,97.047,247.887,96.918,247.434,96.918z"/>
		<path fill="#FFFFFF" d="M254.906,99.786c0.016,1.053,0.664,1.458,1.701,1.458c0.762,0,1.49-0.21,2.317-0.389l0.291,1.783
			c-0.907,0.324-1.766,0.502-2.803,0.502c-2.334,0-3.776-1.15-3.776-4.1c0-2.933,1.637-4.132,3.76-4.132
			c2.22,0,3.646,1.491,3.192,4.877H254.906z M254.922,98.198h2.496c0.032-0.924-0.39-1.475-1.167-1.475
			C255.473,96.724,255.003,97.258,254.922,98.198z"/>
		<path fill="#FFFFFF" d="M267.678,91.603v9.107h4.667l-0.13,2.269h-7.065V91.603H267.678z"/>
		<path fill="#FFFFFF" d="M275.182,99.786c0.017,1.053,0.665,1.458,1.702,1.458c0.762,0,1.49-0.21,2.317-0.389l0.291,1.783
			c-0.907,0.324-1.766,0.502-2.803,0.502c-2.334,0-3.776-1.15-3.776-4.1c0-2.933,1.637-4.132,3.76-4.132
			c2.22,0,3.646,1.491,3.192,4.877H275.182z M275.198,98.198h2.496c0.032-0.924-0.39-1.475-1.167-1.475
			C275.749,96.724,275.279,97.258,275.198,98.198z"/>
		<path fill="#FFFFFF" d="M285.328,97.777c0-0.616-0.308-0.859-0.891-0.859c-0.584,0-1.476,0.178-2.755,0.551l-0.324-1.944
			c1.134-0.356,2.527-0.616,3.549-0.616c1.669,0,2.689,0.713,2.689,2.771v5.299h-1.701l-0.26-0.681
			c-0.891,0.616-1.685,0.843-2.414,0.843c-1.199,0-2.253-0.746-2.253-2.252c0-1.604,1.037-2.333,4.359-2.642V97.777z
			 M285.328,100.92v-1.183c-1.733,0.179-2.188,0.421-2.188,1.005c0,0.486,0.34,0.665,0.729,0.665
			C284.34,101.407,284.858,101.212,285.328,100.92z"/>
		<path fill="#FFFFFF" d="M291.698,90.695v9.804c0,0.697,0.503,0.697,1.572,0.421l0.179,1.912c-0.681,0.178-1.184,0.308-2.01,0.308
			c-1.069,0-2.01-0.632-2.01-2.171V90.825L291.698,90.695z"/>
		<path fill="#FFFFFF" d="M294.924,97.08h-1.231l0.13-2.01h1.102v-2.382l2.27-0.13v2.512h2.09l-0.13,2.01h-1.96v2.738
			c0,0.859,0.227,1.313,0.988,1.313c0.291,0,0.745-0.065,1.167-0.162l0.178,1.896c-0.777,0.194-1.312,0.275-1.863,0.275
			c-2.155,0-2.739-1.442-2.739-3.095V97.08z"/>
		<path fill="#FFFFFF" d="M304.696,97.777c0-0.616-0.308-0.859-0.892-0.859c-0.583,0-1.475,0.178-2.754,0.551l-0.324-1.944
			c1.134-0.356,2.527-0.616,3.549-0.616c1.669,0,2.689,0.713,2.689,2.771v5.299h-1.701l-0.26-0.681
			c-0.891,0.616-1.685,0.843-2.414,0.843c-1.199,0-2.253-0.746-2.253-2.252c0-1.604,1.037-2.333,4.359-2.642V97.777z
			 M304.696,100.92v-1.183c-1.733,0.179-2.188,0.421-2.188,1.005c0,0.486,0.34,0.665,0.729,0.665
			C303.708,101.407,304.227,101.212,304.696,100.92z"/>
		<path fill="#FFFFFF" d="M313.854,90.825l2.27-0.129v12.283h-2.107l-0.162-0.778c-0.907,0.6-1.782,0.94-2.544,0.94
			c-1.62,0-2.836-1.377-2.836-4.116c0-2.9,1.604-4.116,3.42-4.116c0.647,0,1.312,0.162,1.96,0.421V90.825z M312.412,96.918
			c-0.892,0-1.621,0.551-1.621,2.155c0,1.458,0.535,1.896,1.248,1.896c0.519,0,1.135-0.243,1.814-0.502v-3.273
			C313.384,97.047,312.865,96.918,312.412,96.918z"/>
		<path fill="#FFFFFF" d="M319.706,100.694c0.583,1.685,0.243,3.127-0.535,4.813l-1.49-0.146c0.777-1.702,0.794-2.82,0.194-4.521
			L319.706,100.694z"/>
		<path fill="#FFFFFF" d="M327.308,90.695v10.339c0,1.004,0.552,1.118,2.026,0.68l0.113,1.118c-0.6,0.178-1.118,0.308-1.718,0.308
			c-0.988,0-1.718-0.519-1.718-1.961V90.776L327.308,90.695z"/>
		<path fill="#FFFFFF" d="M331.927,90.695v10.339c0,1.004,0.552,1.118,2.026,0.68l0.113,1.118c-0.6,0.178-1.118,0.308-1.718,0.308
			c-0.988,0-1.718-0.519-1.718-1.961V90.776L331.927,90.695z"/>
		<path fill="#FFFFFF" d="M336.223,99.559c0.064,1.832,1.053,2.447,2.35,2.447c0.729,0,1.49-0.195,2.252-0.438l0.179,1.085
			c-0.827,0.308-1.669,0.486-2.544,0.486c-2.01,0-3.533-1.069-3.533-4.035c0-2.9,1.459-4.051,3.468-4.051
			c1.993,0,3.322,1.491,2.9,4.505H336.223z M336.238,98.539h3.857c0.048-1.523-0.648-2.382-1.751-2.382
			C337.113,96.156,336.336,96.918,336.238,98.539z M340.079,91.554l-1.653,2.609h-1.166l1.36-2.609H340.079z"/>
		<path fill="#FFFFFF" d="M343.759,95.184l2.302,6.466l2.301-6.466l1.409,0.081l-2.868,7.713h-1.669l-2.884-7.713L343.759,95.184z"
			/>
		<path fill="#FFFFFF" d="M355.217,97.631c0-1.037-0.47-1.41-1.215-1.41c-0.729,0-1.734,0.275-2.885,0.648l-0.194-1.134
			c1.069-0.389,2.301-0.681,3.225-0.681c1.442,0,2.366,0.648,2.366,2.544v5.38h-0.988l-0.179-0.907
			c-0.858,0.729-1.831,1.069-2.674,1.069c-1.118,0-2.074-0.632-2.074-2.042c0-1.442,0.907-2.333,4.618-2.625V97.631z
			 M355.217,101.001v-1.54c-2.755,0.227-3.354,0.811-3.354,1.556c0,0.811,0.552,1.054,1.021,1.054
			C353.742,102.071,354.617,101.617,355.217,101.001z"/>
		<path fill="#FFFFFF" d="M359.271,96.383h-1.297l0.098-1.167h1.199v-2.415l1.296-0.081v2.496h2.383l-0.098,1.167h-2.285v3.84
			c0,0.989,0.26,1.75,1.297,1.75c0.308,0,0.811-0.064,1.248-0.178l0.113,1.086c-0.648,0.194-1.118,0.259-1.588,0.259
			c-1.848,0-2.366-1.361-2.366-2.804V96.383z"/>
		<path fill="#FFFFFF" d="M365.543,99.559c0.064,1.832,1.053,2.447,2.35,2.447c0.729,0,1.49-0.195,2.252-0.438l0.179,1.085
			c-0.827,0.308-1.669,0.486-2.544,0.486c-2.01,0-3.533-1.069-3.533-4.035c0-2.9,1.459-4.051,3.468-4.051
			c1.993,0,3.322,1.491,2.9,4.505H365.543z M365.559,98.539h3.857c0.048-1.523-0.648-2.382-1.751-2.382
			C366.434,96.156,365.656,96.918,365.559,98.539z"/>
		<path fill="#FFFFFF" d="M378.185,102.979h-1.296V90.776l1.296-0.081v5.412c1.118-0.648,2.091-1.053,2.95-1.053
			c1.102,0,2.188,0.6,2.188,2.577v5.348h-1.297v-5.121c0-1.086-0.502-1.572-1.231-1.572c-0.811,0-1.767,0.486-2.609,0.939V102.979z"
			/>
		<path fill="#FFFFFF" d="M389.692,97.631c0-1.037-0.47-1.41-1.215-1.41c-0.729,0-1.734,0.275-2.885,0.648l-0.194-1.134
			c1.069-0.389,2.301-0.681,3.225-0.681c1.442,0,2.366,0.648,2.366,2.544v5.38h-0.988l-0.179-0.907
			c-0.858,0.729-1.831,1.069-2.674,1.069c-1.118,0-2.074-0.632-2.074-2.042c0-1.442,0.907-2.333,4.618-2.625V97.631z
			 M389.692,101.001v-1.54c-2.755,0.227-3.354,0.811-3.354,1.556c0,0.811,0.552,1.054,1.021,1.054
			C388.218,102.071,389.093,101.617,389.692,101.001z"/>
		<path fill="#FFFFFF" d="M393.34,101.553c0.648,0.275,1.523,0.454,2.22,0.454c0.795,0,1.442-0.292,1.41-1.183
			c-0.016-1.426-3.954-1.069-3.954-3.63c0-1.458,1.103-2.139,2.69-2.139c0.762,0,1.571,0.162,2.317,0.47l-0.194,1.118
			c-0.6-0.259-1.475-0.454-2.14-0.454c-0.762,0-1.394,0.276-1.361,1.07c0.017,1.41,3.954,1.069,3.954,3.63
			c0,1.54-1.167,2.252-2.819,2.252c-0.762,0-1.588-0.162-2.301-0.47L393.34,101.553z"/>
		<path fill="#FFFFFF" d="M400.698,96.383h-1.297l0.098-1.167h1.199v-2.415l1.296-0.081v2.496h2.383l-0.098,1.167h-2.285v3.84
			c0,0.989,0.26,1.75,1.297,1.75c0.308,0,0.811-0.064,1.248-0.178l0.113,1.086c-0.648,0.194-1.118,0.259-1.588,0.259
			c-1.848,0-2.366-1.361-2.366-2.804V96.383z"/>
		<path fill="#FFFFFF" d="M410.422,97.631c0-1.037-0.47-1.41-1.215-1.41c-0.729,0-1.734,0.275-2.885,0.648l-0.194-1.134
			c1.069-0.389,2.301-0.681,3.225-0.681c1.442,0,2.366,0.648,2.366,2.544v5.38h-0.988l-0.179-0.907
			c-0.858,0.729-1.831,1.069-2.674,1.069c-1.118,0-2.074-0.632-2.074-2.042c0-1.442,0.907-2.333,4.618-2.625V97.631z
			 M410.422,101.001v-1.54c-2.755,0.227-3.354,0.811-3.354,1.556c0,0.811,0.552,1.054,1.021,1.054
			C408.947,102.071,409.822,101.617,410.422,101.001z"/>
	</g>
	<rect x="1.17" y="-0.297" fill="#2D2D2D" width="490" height="210"/>
</g>
<g id="Layer_1">
	<g id="Layer_1_1_">
	</g>
	<g id="Layer_3">
	</g>
	<g id="Layer_2" display="none">
		<g display="inline">
			<g>
				<path fill="#FFFFFF" d="M191.952,71.485c0-3.891,2.116-5.344,4.703-5.344c0.94,0,1.945,0.192,2.907,0.491l-0.235,1.518
					c-0.898-0.3-1.752-0.471-2.522-0.471c-1.881,0-3.121,1.069-3.121,3.805c0,2.714,1.24,3.784,3.121,3.784
					c0.77,0,1.625-0.193,2.522-0.471l0.235,1.518c-0.962,0.321-1.966,0.492-2.907,0.492
					C194.068,76.808,191.952,75.375,191.952,71.485z"/>
				<path fill="#FFFFFF" d="M206.039,66.142c2.907,0,4.788,1.688,4.788,5.344c0,3.656-1.881,5.322-4.788,5.322
					c-2.928,0-4.809-1.667-4.809-5.322C201.229,67.83,203.111,66.142,206.039,66.142z M206.039,75.269
					c1.817,0,3.057-1.112,3.057-3.784c0-2.672-1.24-3.805-3.057-3.805c-1.838,0-3.078,1.133-3.078,3.805
					C202.96,74.157,204.201,75.269,206.039,75.269z"/>
				<path fill="#FFFFFF" d="M214.847,76.594h-1.71V66.419l1.71-0.107v1.219c1.475-0.856,2.757-1.39,3.891-1.39
					c1.453,0,2.885,0.791,2.885,3.398v7.055h-1.709v-6.755c0-1.433-0.663-2.074-1.625-2.074c-1.069,0-2.33,0.641-3.441,1.24
					L214.847,76.594L214.847,76.594z"/>
				<path fill="#FFFFFF" d="M230.474,67.895h-1.71l0.129-1.54h1.582V63.17l1.71-0.107v3.292h3.143l-0.128,1.54h-3.014v5.065
					c0,1.305,0.342,2.31,1.71,2.31c0.406,0,1.069-0.085,1.646-0.235l0.15,1.433c-0.855,0.256-1.475,0.341-2.095,0.341
					c-2.437,0-3.121-1.796-3.121-3.698v-5.216H230.474z"/>
				<path fill="#FFFFFF" d="M244.412,66.419l1.71-0.107v10.282h-1.496l-0.214-1.155c-1.454,0.834-2.757,1.368-3.89,1.368
					c-1.453,0-2.886-0.791-2.886-3.377v-7.011l1.71-0.107v6.798c0,1.432,0.663,2.094,1.625,2.094c1.068,0,2.33-0.662,3.441-1.261
					V66.419z"/>
				<path fill="#FFFFFF" d="M266.023,66.142c1.391,0,2.693,0.834,2.693,3.398v7.055h-1.709V69.84c0-1.433-0.621-2.074-1.497-2.074
					c-0.983,0-2.224,0.513-3.229,1.112c0.064,0.278,0.064,0.642,0.064,0.983v6.734h-1.71V69.84c0-1.433-0.597-2.074-1.495-2.074
					c-0.963,0-2.117,0.641-3.144,1.24v7.588h-1.709V66.419l1.709-0.107v1.219c1.368-0.856,2.586-1.39,3.655-1.39
					c0.92,0,1.839,0.385,2.287,1.368C263.438,66.655,264.678,66.142,266.023,66.142z"/>
				<path fill="#FFFFFF" d="M273.422,63.619c0,0.641-0.471,1.112-1.111,1.112c-0.642,0-1.112-0.471-1.112-1.112
					c0-0.641,0.471-1.111,1.112-1.111C272.951,62.508,273.422,62.978,273.422,63.619z M273.165,66.312v10.282h-1.709V66.419
					L273.165,66.312z"/>
				<path fill="#FFFFFF" d="M276.05,74.713c0.856,0.363,2.009,0.599,2.929,0.599c1.047,0,1.901-0.385,1.858-1.561
					c-0.021-1.881-5.214-1.411-5.214-4.788c0-1.924,1.453-2.821,3.547-2.821c1.005,0,2.073,0.213,3.057,0.619l-0.256,1.476
					c-0.791-0.342-1.945-0.599-2.822-0.599c-1.006,0-1.838,0.363-1.795,1.41c0.021,1.859,5.215,1.411,5.215,4.789
					c0,2.031-1.539,2.971-3.719,2.971c-1.004,0-2.096-0.213-3.035-0.62L276.05,74.713z"/>
				<path fill="#FFFFFF" d="M296.593,66.142c1.39,0,2.693,0.834,2.693,3.398v7.055h-1.71V69.84c0-1.433-0.62-2.074-1.496-2.074
					c-0.984,0-2.225,0.513-3.229,1.112c0.064,0.278,0.064,0.642,0.064,0.983v6.734h-1.711V69.84c0-1.433-0.598-2.074-1.496-2.074
					c-0.962,0-2.115,0.641-3.143,1.24v7.588h-1.709V66.419l1.709-0.107v1.219c1.367-0.856,2.586-1.39,3.656-1.39
					c0.918,0,1.838,0.385,2.286,1.368C294.007,66.655,295.247,66.142,296.593,66.142z"/>
				<path fill="#FFFFFF" d="M306.407,66.142c2.907,0,4.788,1.688,4.788,5.344c0,3.656-1.881,5.322-4.788,5.322
					c-2.929,0-4.81-1.667-4.81-5.322C301.598,67.83,303.479,66.142,306.407,66.142z M306.407,75.269
					c1.816,0,3.057-1.112,3.057-3.784c0-2.672-1.24-3.805-3.057-3.805c-1.839,0-3.079,1.133-3.079,3.805
					C303.328,74.157,304.568,75.269,306.407,75.269z"/>
				<path fill="#FFFFFF" d="M320.643,76.594h-1.709V66.419l1.709-0.107v1.219c1.477-0.856,2.759-1.39,3.892-1.39
					c1.453,0,2.886,0.791,2.886,3.398v7.055h-1.71v-6.755c0-1.433-0.662-2.074-1.624-2.074c-1.07,0-2.331,0.641-3.442,1.24
					L320.643,76.594L320.643,76.594z"/>
				<path fill="#FFFFFF" d="M336.932,66.419l1.711-0.107v10.282h-1.496l-0.215-1.155c-1.453,0.834-2.756,1.368-3.891,1.368
					c-1.453,0-2.884-0.791-2.884-3.377v-7.011l1.709-0.107v6.798c0,1.432,0.663,2.094,1.625,2.094c1.067,0,2.329-0.662,3.439-1.261
					L336.932,66.419L336.932,66.419z M336.74,61.524l-2.181,3.442h-1.538l1.794-3.442H336.74z"/>
				<path fill="#FFFFFF" d="M353.114,66.142c1.39,0,2.692,0.834,2.692,3.398v7.055h-1.71V69.84c0-1.433-0.62-2.074-1.495-2.074
					c-0.983,0-2.225,0.513-3.229,1.112c0.064,0.278,0.064,0.642,0.064,0.983v6.734h-1.711V69.84c0-1.433-0.597-2.074-1.496-2.074
					c-0.962,0-2.115,0.641-3.143,1.24v7.588h-1.709V66.419l1.709-0.107v1.219c1.368-0.856,2.586-1.39,3.655-1.39
					c0.92,0,1.839,0.385,2.288,1.368C350.528,66.655,351.768,66.142,353.114,66.142z"/>
				<path fill="#FFFFFF" d="M359.829,72.084c0.085,2.416,1.389,3.228,3.099,3.228c0.961,0,1.966-0.256,2.971-0.577l0.235,1.432
					c-1.091,0.406-2.201,0.641-3.355,0.641c-2.649,0-4.659-1.411-4.659-5.322c0-3.826,1.924-5.344,4.574-5.344
					c2.629,0,4.382,1.967,3.825,5.942H359.829z M359.85,70.737h5.088c0.063-2.009-0.855-3.142-2.31-3.142
					C361.004,67.595,359.978,68.6,359.85,70.737z"/>
				<path fill="#FFFFFF" d="M374.898,68.086c-2.053-0.555-2.309-0.363-4.255,2.074v6.434h-1.709V66.419l1.709-0.107v1.946
					c1.731-2.33,2.545-2.33,4.469-1.881L374.898,68.086z"/>
				<path fill="#FFFFFF" d="M380.971,66.142c2.907,0,4.788,1.688,4.788,5.344c0,3.656-1.881,5.322-4.788,5.322
					c-2.929,0-4.81-1.667-4.81-5.322C376.161,67.83,378.042,66.142,380.971,66.142z M380.971,75.269
					c1.816,0,3.058-1.112,3.058-3.784c0-2.672-1.24-3.805-3.058-3.805c-1.839,0-3.079,1.133-3.079,3.805
					C377.892,74.157,379.132,75.269,380.971,75.269z"/>
				<path fill="#FFFFFF" d="M397.153,74.841l3.035-8.529l1.858,0.107l-5.449,14.642l-1.839-0.128l1.666-4.339h-0.362l-3.805-10.175
					l1.859-0.107L397.153,74.841z"/>
				<path fill="#FFFFFF" d="M414.96,68.086c-2.052-0.555-2.309-0.363-4.254,2.074v6.434h-1.709V66.419l1.709-0.107v1.946
					c1.73-2.33,2.544-2.33,4.468-1.881L414.96,68.086z"/>
				<path fill="#FFFFFF" d="M417.933,72.084c0.085,2.416,1.39,3.228,3.101,3.228c0.961,0,1.965-0.256,2.97-0.577l0.235,1.432
					c-1.09,0.406-2.201,0.641-3.355,0.641c-2.649,0-4.66-1.411-4.66-5.322c0-3.826,1.925-5.344,4.575-5.344
					c2.628,0,4.382,1.967,3.826,5.942H417.933z M417.953,70.737h5.088c0.062-2.009-0.855-3.142-2.309-3.142
					C419.108,67.595,418.081,68.6,417.953,70.737z"/>
				<path fill="#FFFFFF" d="M426.611,71.485c0-3.891,2.116-5.344,4.703-5.344c0.939,0,1.943,0.192,2.905,0.491l-0.233,1.518
					c-0.898-0.3-1.753-0.471-2.521-0.471c-1.882,0-3.122,1.069-3.122,3.805c0,2.714,1.24,3.784,3.122,3.784
					c0.77,0,1.623-0.193,2.521-0.471l0.233,1.518c-0.962,0.321-1.966,0.492-2.905,0.492
					C428.729,76.808,426.611,75.375,426.611,71.485z"/>
				<path fill="#FFFFFF" d="M438.283,63.619c0,0.641-0.472,1.112-1.111,1.112c-0.642,0-1.112-0.471-1.112-1.112
					c0-0.641,0.472-1.111,1.112-1.111S438.283,62.978,438.283,63.619z M438.026,66.312v10.282h-1.71V66.419L438.026,66.312z"/>
				<path fill="#FFFFFF" d="M440.764,60.499l1.709-0.107v7.14c1.368-0.834,2.631-1.39,3.764-1.39c2.071,0,3.591,1.646,3.591,5.344
					c0,3.869-2.031,5.322-4.574,5.322c-1.604,0-2.8-0.278-4.488-0.877L440.764,60.499L440.764,60.499z M445.273,75.269
					c1.539,0,2.82-1.005,2.82-3.826c0-2.673-0.94-3.677-2.18-3.677c-1.069,0-2.31,0.641-3.442,1.24v5.792
					C443.435,75.141,444.397,75.269,445.273,75.269z"/>
				<path fill="#FFFFFF" d="M453.418,72.084c0.086,2.416,1.389,3.228,3.1,3.228c0.961,0,1.966-0.256,2.971-0.577l0.235,1.432
					c-1.091,0.406-2.2,0.641-3.355,0.641c-2.65,0-4.659-1.411-4.659-5.322c0-3.826,1.924-5.344,4.574-5.344
					c2.629,0,4.382,1.967,3.826,5.942H453.418z M453.439,70.737h5.088c0.062-2.009-0.856-3.142-2.311-3.142
					C454.594,67.595,453.567,68.6,453.439,70.737z"/>
			</g>
			<g>
				<path fill="#FFFFFF" d="M28.505,44.59c0,5.317,2.556,7.14,5.772,7.14c1.392,0,2.76-0.279,4.33-0.835l0.43,1.974
					c-1.57,0.557-3.292,0.86-4.861,0.86c-4.304,0-7.925-2.38-7.925-9.139c0-6.76,3.621-9.14,7.925-9.14
					c1.57,0,3.292,0.303,4.861,0.861l-0.43,1.974c-1.57-0.556-2.938-0.861-4.33-0.861C31.062,37.424,28.505,39.272,28.505,44.59z"/>
				<path fill="#FFFFFF" d="M47.948,45.122c0-1.621-0.734-2.204-1.899-2.204c-1.139,0-2.709,0.431-4.506,1.013l-0.304-1.771
					c1.671-0.608,3.596-1.064,5.039-1.064c2.253,0,3.696,1.013,3.696,3.976v8.406H48.43l-0.279-1.418
					c-1.342,1.139-2.861,1.67-4.177,1.67c-1.747,0-3.241-0.986-3.241-3.189c0-2.253,1.417-3.646,7.216-4.102L47.948,45.122
					L47.948,45.122z M47.948,50.387v-2.404c-4.304,0.354-5.241,1.266-5.241,2.43c0,1.266,0.861,1.646,1.595,1.646
					C45.644,52.059,47.011,51.349,47.948,50.387z M48.53,35.627l-2.583,4.076h-1.823l2.127-4.076H48.53z"/>
				<path fill="#FFFFFF" d="M67.037,41.095c1.646,0,3.19,0.988,3.19,4.026v8.355h-2.025v-8.001c0-1.696-0.734-2.456-1.772-2.456
					c-1.165,0-2.633,0.607-3.824,1.315c0.076,0.329,0.076,0.76,0.076,1.166v7.975h-2.025v-8.001c0-1.696-0.709-2.456-1.772-2.456
					c-1.139,0-2.506,0.76-3.722,1.468v8.988h-2.025v-12.05l2.025-0.127v1.444c1.621-1.013,3.064-1.646,4.33-1.646
					c1.088,0,2.178,0.456,2.709,1.621C63.973,41.704,65.441,41.095,67.037,41.095z"/>
				<path fill="#FFFFFF" d="M73.39,34.411l2.025-0.126v8.457c1.621-0.987,3.114-1.646,4.456-1.646c2.456,0,4.254,1.95,4.254,6.331
					c0,4.582-2.406,6.303-5.418,6.303c-1.899,0-3.317-0.329-5.316-1.037L73.39,34.411L73.39,34.411z M78.731,51.907
					c1.823,0,3.342-1.19,3.342-4.532c0-3.164-1.114-4.354-2.583-4.354c-1.267,0-2.735,0.76-4.077,1.468v6.86
					C76.554,51.755,77.693,51.907,78.731,51.907z"/>
				<path fill="#FFFFFF" d="M89.111,38.108c0,0.759-0.558,1.316-1.317,1.316c-0.76,0-1.317-0.557-1.317-1.316
					c0-0.76,0.557-1.317,1.317-1.317C88.553,36.791,89.111,37.349,89.111,38.108z M88.806,41.297v12.18h-2.025V41.424L88.806,41.297
					z"/>
				<path fill="#FFFFFF" d="M98.426,45.122c0-1.621-0.734-2.204-1.899-2.204c-1.14,0-2.709,0.431-4.506,1.013l-0.305-1.771
					c1.671-0.608,3.596-1.064,5.039-1.064c2.253,0,3.697,1.013,3.697,3.976v8.406h-1.544l-0.279-1.418
					c-1.341,1.139-2.86,1.67-4.177,1.67c-1.748,0-3.241-0.986-3.241-3.189c0-2.253,1.418-3.646,7.216-4.102v-1.317H98.426z
					 M98.426,50.387v-2.404c-4.304,0.354-5.241,1.266-5.241,2.43c0,1.266,0.861,1.646,1.596,1.646
					C96.123,52.059,97.489,51.349,98.426,50.387z"/>
				<path fill="#FFFFFF" d="M104.426,43.171H102.4l0.152-1.822h1.874v-3.772l2.025-0.127v3.899h3.722l-0.152,1.822h-3.57v6.001
					c0,1.543,0.405,2.734,2.025,2.734c0.481,0,1.266-0.101,1.95-0.278l0.177,1.696c-1.012,0.304-1.747,0.405-2.481,0.405
					c-2.886,0-3.696-2.126-3.696-4.379V43.171z"/>
				<path fill="#FFFFFF" d="M113.895,48.134c0.101,2.861,1.646,3.823,3.671,3.823c1.139,0,2.329-0.303,3.519-0.684l0.279,1.696
					c-1.291,0.481-2.607,0.759-3.975,0.759c-3.139,0-5.52-1.67-5.52-6.303c0-4.532,2.279-6.331,5.418-6.331
					c3.114,0,5.19,2.33,4.532,7.039L113.895,48.134L113.895,48.134z M113.919,46.539h6.026c0.076-2.38-1.013-3.722-2.735-3.722
					C115.287,42.817,114.071,44.007,113.919,46.539z"/>
				<path fill="#FFFFFF" d="M137.413,45.122c0-1.621-0.734-2.204-1.899-2.204c-1.139,0-2.709,0.431-4.506,1.013l-0.304-1.771
					c1.671-0.608,3.596-1.064,5.039-1.064c2.253,0,3.697,1.013,3.697,3.976v8.406h-1.545l-0.278-1.418
					c-1.342,1.139-2.861,1.67-4.177,1.67c-1.747,0-3.241-0.986-3.241-3.189c0-2.253,1.417-3.646,7.216-4.102v-1.317H137.413z
					 M137.413,50.387v-2.404c-4.304,0.354-5.241,1.266-5.241,2.43c0,1.266,0.861,1.646,1.595,1.646
					C135.108,52.059,136.475,51.349,137.413,50.387z"/>
				<path fill="#FFFFFF" d="M152.577,47.223c0,2.329,1.189,2.962,3.164,2.962c1.95,0,3.165-0.633,3.165-2.962v-11.52h3.925v11.951
					c0,4.38-2.988,6.075-7.09,6.075c-4.152,0-7.114-1.695-7.114-6.075V35.703h3.95V47.223z"/>
				<path fill="#FFFFFF" d="M168.904,53.477h-3.544V41.248l3.544-0.229v1.292c1.797-0.962,3.216-1.443,4.481-1.443
					c1.772,0,3.443,0.987,3.443,4.077v8.533h-3.544v-7.419c0-1.291-0.583-1.797-1.52-1.797c-0.81,0-1.798,0.404-2.861,0.811
					L168.904,53.477L168.904,53.477z"/>
				<path fill="#FFFFFF" d="M182.372,48.489c0.025,1.646,1.038,2.279,2.658,2.279c1.19,0,2.33-0.33,3.621-0.608l0.456,2.786
					c-1.418,0.506-2.76,0.784-4.38,0.784c-3.646,0-5.899-1.797-5.899-6.405c0-4.583,2.558-6.457,5.874-6.457
					c3.469,0,5.697,2.33,4.988,7.621H182.372z M182.397,46.008h3.899c0.05-1.444-0.607-2.305-1.823-2.305
					C183.258,43.703,182.524,44.539,182.397,46.008z"/>
				<path fill="#FFFFFF" d="M192.701,39.122c0-2.608,0.911-4.837,4.253-4.837c0.887,0,1.697,0.126,2.912,0.406l-0.279,2.987
					c-0.658-0.152-1.367-0.254-1.823-0.254c-1.19,0-1.519,0.71-1.519,2.051v1.646h3.266l-0.203,3.14h-3.063v9.216h-3.544v-9.216
					h-1.925l0.203-3.14h1.722V39.122z"/>
				<path fill="#FFFFFF" d="M206.042,40.868c3.849,0,6.203,2.127,6.203,6.431c0,4.33-2.354,6.43-6.203,6.43
					c-3.823,0-6.203-2.101-6.203-6.43C199.839,42.995,202.219,40.868,206.042,40.868z M206.042,50.59
					c1.494,0,2.583-0.835,2.583-3.291s-1.088-3.292-2.583-3.292c-1.52,0-2.583,0.836-2.583,3.292S204.523,50.59,206.042,50.59z"/>
				<path fill="#FFFFFF" d="M217.788,53.477h-3.544V41.248l3.544-0.229v1.292c1.798-0.962,3.216-1.443,4.481-1.443
					c1.772,0,3.443,0.987,3.443,4.077v8.533h-3.544v-7.419c0-1.291-0.582-1.797-1.519-1.797c-0.81,0-1.798,0.404-2.861,0.811V53.477
					z"/>
			</g>
			<g>
				<path fill="#FFFFFF" d="M264.236,108.462l1.777-0.11v16.838h-1.555l-0.223-1.222c-1.42,0.866-2.731,1.443-3.887,1.443
					c-2.177,0-3.752-1.688-3.752-5.532c0-3.977,2.064-5.552,4.508-5.552c1.021,0,2.11,0.289,3.133,0.731v-6.597H264.236z
					 M261.327,115.927c-1.599,0-2.933,1.043-2.933,3.976c0,2.799,0.979,3.844,2.289,3.844c1.11,0,2.399-0.689,3.553-1.311v-5.844
					C263.37,116.236,262.26,115.927,261.327,115.927z"/>
				<path fill="#FFFFFF" d="M270.061,120.502c0.09,2.509,1.443,3.354,3.223,3.354c0.999,0,2.043-0.267,3.087-0.6l0.245,1.488
					c-1.133,0.422-2.288,0.667-3.489,0.667c-2.754,0-4.841-1.466-4.841-5.532c0-3.977,1.998-5.552,4.753-5.552
					c2.731,0,4.553,2.043,3.976,6.175H270.061z M270.083,119.104h5.287c0.067-2.09-0.888-3.266-2.397-3.266
					C271.282,115.838,270.217,116.881,270.083,119.104z"/>
				<path fill="#FFFFFF" d="M285.616,116.148h-1.777l0.134-1.601h1.644v-3.312l1.776-0.11v3.421h3.267l-0.134,1.6h-3.131v5.266
					c0,1.354,0.354,2.398,1.776,2.398c0.422,0,1.11-0.09,1.71-0.244l0.155,1.488c-0.888,0.266-1.533,0.355-2.177,0.355
					c-2.533,0-3.243-1.866-3.243-3.844V116.148L285.616,116.148z"/>
				<path fill="#FFFFFF" d="M294.973,111.706c0,0.667-0.49,1.153-1.156,1.153s-1.155-0.487-1.155-1.153
					c0-0.667,0.489-1.155,1.155-1.155S294.973,111.039,294.973,111.706z M294.706,114.505v10.685h-1.776v-10.573L294.706,114.505z"
					/>
				<path fill="#FFFFFF" d="M298.749,120.502c0.089,2.509,1.444,3.354,3.222,3.354c1,0,2.043-0.267,3.086-0.6l0.245,1.488
					c-1.133,0.422-2.288,0.667-3.487,0.667c-2.754,0-4.842-1.466-4.842-5.532c0-3.977,1.998-5.552,4.754-5.552
					c2.73,0,4.553,2.043,3.976,6.175H298.749z M298.771,119.104h5.289c0.064-2.09-0.891-3.266-2.4-3.266
					C299.971,115.838,298.904,116.881,298.771,119.104z"/>
				<path fill="#FFFFFF" d="M320.277,114.327c1.442,0,2.799,0.866,2.799,3.532v7.33h-1.778v-7.02c0-1.488-0.643-2.156-1.554-2.156
					c-1.022,0-2.312,0.534-3.354,1.156c0.067,0.29,0.067,0.666,0.067,1.021v6.998h-1.778v-7.02c0-1.488-0.622-2.156-1.554-2.156
					c-1,0-2.2,0.668-3.266,1.289v7.887h-1.777v-10.573l1.777-0.111v1.267c1.422-0.89,2.688-1.443,3.798-1.443
					c0.955,0,1.91,0.398,2.376,1.421C317.59,114.859,318.877,114.327,320.277,114.327z"/>
				<path fill="#FFFFFF" d="M327.57,129.698l-1.777,0.134v-15.216l1.777-0.111v1.267c1.421-0.867,2.731-1.443,3.908-1.443
					c2.155,0,3.732,1.71,3.732,5.552c0,3.978-2.043,5.532-4.486,5.532c-1.021,0-2.133-0.289-3.153-0.732L327.57,129.698
					L327.57,129.698z M330.479,123.812c1.601,0,2.933-1.045,2.933-3.977c0-2.775-0.979-3.82-2.265-3.82
					c-1.111,0-2.399,0.666-3.576,1.289v5.842C328.436,123.501,329.568,123.812,330.479,123.812z"/>
				<path fill="#FFFFFF" d="M342.035,114.327c3.021,0,4.976,1.754,4.976,5.552c0,3.799-1.955,5.532-4.976,5.532
					c-3.043,0-4.998-1.731-4.998-5.532C337.037,116.082,338.992,114.327,342.035,114.327z M342.035,123.812
					c1.889,0,3.176-1.155,3.176-3.933c0-2.776-1.288-3.953-3.176-3.953c-1.91,0-3.2,1.177-3.2,3.953
					C338.835,122.657,340.125,123.812,342.035,123.812z"/>
				<path fill="#FFFFFF" d="M360.455,117.859c0-1.422-0.645-1.934-1.667-1.934c-0.998,0-2.376,0.376-3.952,0.889l-0.268-1.556
					c1.466-0.532,3.153-0.932,4.42-0.932c1.978,0,3.243,0.889,3.243,3.487v7.375h-1.354l-0.244-1.244
					c-1.178,1-2.51,1.466-3.664,1.466c-1.534,0-2.844-0.867-2.844-2.8c0-1.977,1.243-3.197,6.33-3.598V117.859L360.455,117.859z
					 M360.455,122.479v-2.109c-3.775,0.311-4.598,1.109-4.598,2.132c0,1.11,0.755,1.444,1.397,1.444
					C358.434,123.945,359.633,123.323,360.455,122.479z"/>
				<path fill="#FFFFFF" d="M366.989,111.706c0,0.667-0.488,1.153-1.154,1.153c-0.667,0-1.156-0.487-1.156-1.153
					c0-0.667,0.489-1.155,1.156-1.155C366.501,110.551,366.989,111.039,366.989,111.706z M366.724,114.505v10.685h-1.776v-10.573
					L366.724,114.505z"/>
				<path fill="#FFFFFF" d="M375.632,116.35c-2.133-0.578-2.398-0.379-4.42,2.153v6.687h-1.778v-10.573l1.778-0.111v2.021
					c1.798-2.42,2.645-2.42,4.642-1.955L375.632,116.35z"/>
				<path fill="#FFFFFF" d="M378.589,120.502c0.09,2.509,1.444,3.354,3.222,3.354c1,0,2.043-0.267,3.088-0.6l0.245,1.488
					c-1.133,0.422-2.288,0.667-3.488,0.667c-2.754,0-4.841-1.466-4.841-5.532c0-3.977,1.997-5.552,4.753-5.552
					c2.73,0,4.553,2.043,3.977,6.175H378.589z M378.611,119.104h5.286c0.066-2.09-0.888-3.266-2.397-3.266
					C379.812,115.838,378.746,116.881,378.611,119.104z"/>
			</g>
			<g>
				<path fill="#FFFFFF" d="M358.406,142.595l3.348-0.192v18.125h-3.109l-0.237-1.147c-1.339,0.884-2.63,1.386-3.753,1.386
					c-2.393,0-4.187-2.033-4.187-6.072c0-4.28,2.367-6.072,5.046-6.072c0.956,0,1.938,0.238,2.894,0.621L358.406,142.595
					L358.406,142.595z M356.278,151.584c-1.316,0-2.392,0.812-2.392,3.18c0,2.152,0.788,2.797,1.84,2.797
					c0.768,0,1.676-0.358,2.68-0.74v-4.831C357.713,151.775,356.947,151.584,356.278,151.584z"/>
				<path fill="#FFFFFF" d="M366.822,155.816c0.023,1.555,0.979,2.151,2.511,2.151c1.124,0,2.199-0.311,3.419-0.573l0.43,2.629
					c-1.338,0.479-2.604,0.742-4.135,0.742c-3.444,0-5.571-1.697-5.571-6.05c0-4.327,2.414-6.096,5.548-6.096
					c3.274,0,5.379,2.198,4.71,7.196H366.822z M366.847,153.473h3.684c0.047-1.361-0.574-2.175-1.723-2.175
					C367.66,151.298,366.966,152.086,366.847,153.473z"/>
				<path fill="#FFFFFF" d="M384.322,165.355l-3.348,0.19v-16.567l3.348-0.217v1.244c1.341-0.861,2.63-1.386,3.777-1.386
					c2.367,0,4.16,2.03,4.16,6.071c0,4.279-2.343,6.074-5.021,6.074c-0.957,0-1.961-0.215-2.918-0.623L384.322,165.355
					L384.322,165.355z M386.451,157.801c1.313,0,2.391-0.812,2.391-3.156c0-2.176-0.788-2.822-1.816-2.822
					c-0.766,0-1.674,0.383-2.702,0.766v4.805C385.016,157.609,385.806,157.801,386.451,157.801z"/>
				<path fill="#FFFFFF" d="M399.362,148.62c3.635,0,5.857,2.008,5.857,6.071c0,4.09-2.224,6.074-5.857,6.074
					c-3.61,0-5.857-1.984-5.857-6.074C393.505,150.628,395.752,148.62,399.362,148.62z M399.362,157.801
					c1.41,0,2.438-0.79,2.438-3.109c0-2.318-1.026-3.107-2.438-3.107c-1.435,0-2.438,0.789-2.438,3.107
					C396.924,157.011,397.929,157.801,399.362,157.801z"/>
				<path fill="#FFFFFF" d="M414.616,152.42c-2.009-0.621-2.535-0.691-4.328,1.648v6.457h-3.347v-11.547l3.347-0.217v1.961
					c1.793-2.201,2.798-2.392,4.71-1.842L414.616,152.42z"/>
				<path fill="#FFFFFF" d="M423.894,148.764l2.344,8.2l2.343-8.2l3.658,0.215l-3.851,11.549h-4.327l-3.825-11.549L423.894,148.764z
					"/>
				<path fill="#FFFFFF" d="M436.78,145.561c0,1.1-0.813,1.912-1.913,1.912c-1.101,0-1.913-0.812-1.913-1.912
					c0-1.102,0.812-1.914,1.913-1.914C435.967,143.646,436.78,144.458,436.78,145.561z M436.54,148.764v11.764h-3.347v-11.549
					L436.54,148.764z"/>
				<path fill="#FFFFFF" d="M446.224,142.595l3.349-0.192v18.125h-3.108l-0.239-1.147c-1.339,0.884-2.63,1.386-3.753,1.386
					c-2.392,0-4.185-2.033-4.185-6.072c0-4.28,2.366-6.072,5.045-6.072c0.956,0,1.937,0.238,2.893,0.621L446.224,142.595
					L446.224,142.595z M444.096,151.584c-1.313,0-2.391,0.812-2.391,3.18c0,2.152,0.789,2.797,1.841,2.797
					c0.765,0,1.674-0.358,2.678-0.74v-4.831C445.53,151.775,444.765,151.584,444.096,151.584z"/>
				<path fill="#FFFFFF" d="M457.485,152.852c0-0.908-0.454-1.268-1.315-1.268s-2.175,0.264-4.062,0.812l-0.479-2.869
					c1.675-0.525,3.731-0.907,5.237-0.907c2.463,0,3.968,1.051,3.968,4.088v7.817h-2.51l-0.384-1.004
					c-1.313,0.91-2.485,1.244-3.562,1.244c-1.771,0-3.324-1.101-3.324-3.324c0-2.367,1.531-3.442,6.433-3.897L457.485,152.852
					L457.485,152.852z M457.485,157.49v-1.746c-2.559,0.263-3.229,0.622-3.229,1.482c0,0.717,0.503,0.979,1.076,0.979
					C456.027,158.207,456.792,157.92,457.485,157.49z"/>
				<path fill="#FFFFFF" d="M466.643,158.805c0,1.101-0.838,1.937-1.938,1.937c-1.123,0-1.937-0.836-1.937-1.937
					c0-1.125,0.812-1.937,1.937-1.937C465.805,156.868,466.643,157.68,466.643,158.805z"/>
			</g>
			<g>
				<path fill="#FFFFFF" d="M263.991,154.678h-0.32c-0.53,0.922-0.035,1.737,0.888,1.737h0.955c5.067,0,7.867,1.913,7.867,5.173
					c0,3.438-2.977,6.627-9.886,6.627c-5.954,0-7.726-2.375-7.726-4.749c0-1.63,0.957-3.118,3.014-4.465
					c-0.355-0.638-0.496-1.312-0.496-2.021c0-1.203,0.496-2.373,1.205-3.188c-1.879-0.921-2.905-2.586-2.905-5.032
					c0-3.969,2.8-5.988,7.406-5.988c1.133,0,2.161,0.142,3.047,0.354h6.378l-0.354,5.315h-1.596v0.318
					C271.468,152.729,268.668,154.678,263.991,154.678z M262.432,161.163c-0.496,0.425-0.779,0.993-0.779,1.524
					c0,0.85,0.425,1.594,2.623,1.594c1.347,0,3.154-0.319,3.154-1.736c0-0.816-1.24-1.277-3.261-1.277h-0.319
					C263.318,161.27,262.857,161.232,262.432,161.163z M263.991,147.023c-1.063,0-1.736,0.604-1.736,1.736s0.673,1.666,1.736,1.666
					c1.133,0,1.807-0.531,1.807-1.666C265.798,147.626,265.125,147.023,263.991,147.023z"/>
				<path fill="#FFFFFF" d="M287.098,149.576c-2.764-0.887-3.72-1.206-6.059,1.984v9h-6.025v-17.256l6.025-0.354v2.729
					c2.516-2.941,4.074-3.367,6.732-2.518L287.098,149.576z"/>
				<path fill="#FFFFFF" d="M297.484,149.363c0-0.885-0.461-1.275-1.596-1.275c-1.099,0-2.94,0.283-5.883,1.098l-0.85-5.138
					c2.551-0.778,5.811-1.274,8.113-1.274c3.935,0,6.272,1.594,6.272,6.271v11.517h-4.536l-0.637-1.239
					c-1.984,1.239-3.508,1.595-4.997,1.595c-2.729,0-5.103-1.736-5.103-5.139c0-3.686,2.373-5.103,9.213-5.812v-0.603H297.484z
					 M297.484,155.989v-2.232c-2.658,0.354-3.475,0.531-3.475,1.595c0,0.744,0.497,1.063,1.241,1.063
					C295.854,156.415,296.633,156.236,297.484,155.989z"/>
				<path fill="#FFFFFF" d="M307.763,148.441h-2.657l0.354-5.315h2.303v-5.173l6.024-0.354v5.526h4.252l-0.354,5.315h-3.897v4.783
					c0,1.736,0.46,2.375,1.807,2.375c0.604,0,1.561-0.143,2.445-0.318l0.461,5.031c-1.843,0.424-3.047,0.604-4.358,0.604
					c-5.031,0-6.379-3.225-6.379-7.088V148.441z"/>
				<path fill="#FFFFFF" d="M326.757,138.059c0,1.914-1.416,3.332-3.331,3.332c-1.913,0-3.33-1.418-3.33-3.332
					c0-1.912,1.417-3.33,3.33-3.33C325.341,134.729,326.757,136.146,326.757,138.059z M326.44,142.949v17.611h-6.025v-17.258
					L326.44,142.949z"/>
				<path fill="#FFFFFF" d="M330.232,155.139c1.7,0.531,4.074,0.814,5.421,0.814c0.778,0,1.418-0.319,1.169-1.169
					c-0.248-0.853-8.113-0.142-8.113-6.45c0-3.543,2.196-5.562,7.476-5.562c1.95,0,4.075,0.283,6.024,0.851l-0.851,4.926
					c-1.701-0.53-4.075-0.815-5.422-0.815c-0.779,0-1.417,0.319-1.169,1.17c0.248,0.852,8.115,0.143,8.115,6.449
					c0,3.543-2.198,5.563-7.477,5.563c-1.95,0-4.075-0.284-6.024-0.851L330.232,155.139z"/>
			</g>
			<g>
				<path fill="#FFFFFF" d="M80.32,151.594h27.292l-1.083,18.412H53.677l-1.083-18.412c21.119-13.754,31.517-24.044,31.517-32.708
					c0-4.765-2.708-7.581-9.639-7.581c-4.333,0-10.397,1.084-18.52,3.574l-3.466-18.195c8.665-2.275,17.22-3.791,24.802-3.791
					c15.705,0,27.401,6.498,27.401,25.993C104.688,130.689,96.241,141.956,80.32,151.594z"/>
				<path fill="#FFFFFF" d="M145.08,92.893c19.17,0,32.492,10.614,32.492,39.097c0,28.484-13.322,39.099-32.492,39.099
					c-19.169,0-32.491-10.614-32.491-39.099C112.589,103.507,125.911,92.893,145.08,92.893z M145.08,152.678
					c5.849,0,10.831-4.225,10.831-20.688c0-16.354-5.09-20.687-10.831-20.687c-5.74,0-10.83,4.333-10.83,20.687
					S139.34,152.678,145.08,152.678z"/>
				<path fill="#FFFFFF" d="M216.122,92.893c19.17,0,32.491,10.614,32.491,39.097c0,28.484-13.321,39.099-32.491,39.099
					s-32.492-10.614-32.492-39.099C183.63,103.507,196.952,92.893,216.122,92.893z M216.122,152.678
					c5.849,0,10.831-4.225,10.831-20.688c0-16.354-5.09-20.687-10.831-20.687c-5.741,0-10.831,4.333-10.831,20.687
					S210.381,152.678,216.122,152.678z"/>
			</g>
			<g>
				<path fill="#FFFFFF" d="M41.6,138.652c2.61,0.222,5.353,0.707,7.608,1.459l-1.415,7.433c-2.876-0.84-7.034-1.459-9.777-1.459
					c-2.344,0-2.787,1.813-2.433,3.052c0.531,1.858,14.775,1.15,14.775,11.59c0,5.265-2.653,8.627-8.758,9.51v4.779l-6.193,0.44
					v-5.043c-2.61-0.22-5.396-0.663-7.608-1.459l1.416-7.433c2.875,0.84,7.033,1.459,9.776,1.459c2.345,0,2.787-1.813,2.433-3.052
					c-0.531-1.858-14.775-1.151-14.775-11.59c0-5.265,2.61-8.626,8.759-9.511v-4.777l6.193-0.443L41.6,138.652L41.6,138.652z"/>
			</g>
		</g>
		
			<text transform="matrix(1 0 0 1 2369.4912 481.0078)" display="inline" fill="#FFFFFF" font-family="'GloriolaLight'" font-size="124">Entre más tiempo te quedes,</text>
		
			<text transform="matrix(1 0 0 1 2369.4912 622.0078)" display="inline" fill="#FFFFFF" font-family="'GloriolaLight'" font-size="124">más te consentimos.</text>
		
			<text transform="matrix(1 0 0 1 2376.4902 815.21)" display="inline" fill="#FFFFFF" font-family="'Gloriola-Regular'" font-size="77">Activa un chip con nosotros y te damos hasta</text>
		
			<text transform="matrix(1 0 0 1 3380.4902 983.21)" display="inline" fill="#FFFFFF" font-family="'Gloriola-Regular'" font-size="77">de tiempo aire</text>
		
			<text transform="matrix(1 0 0 1 3380.4902 1080.21)" display="inline" fill="#FFFFFF" font-family="'Gloriola-Regular'" font-size="77">gratis al año</text>
	</g>
	<g id="Layer_4">
		<g>
			<g>
				<rect x="79.954" y="80.394" fill="#FFC70B" width="332.172" height="1.577"/>
				<g>
					<path fill="#FFFFFF" d="M80.182,16.1h12.096l-0.113,1.366H81.662v8.083h9.193l-0.114,1.366h-9.079v7.799h10.616l-0.113,1.366
						H80.182V16.1z"/>
					<path fill="#FFFFFF" d="M96.862,36.08h-1.423V22.646l1.423-0.114v1.708c1.935-1.139,3.7-1.936,5.265-1.936
						c1.908,0,3.843,1.025,3.843,4.469v9.307h-1.423v-9.307c0-2.134-1.024-3.159-2.42-3.159c-1.679,0-3.614,1.081-5.265,2.049V36.08
						z"/>
					<path fill="#FFFFFF" d="M110.865,23.898h-2.306l0.114-1.309h2.191V18.32l1.423-0.114v4.383h4.44l-0.114,1.309h-4.326v7.685
						c0,1.85,0.484,3.473,2.562,3.473c0.568,0,1.48-0.114,2.277-0.342l0.142,1.224c-1.024,0.312-1.821,0.427-2.562,0.427
						c-2.988,0-3.842-2.305-3.842-4.667v-7.8H110.865z"/>
					<path fill="#FFFFFF" d="M127.516,23.926c-2.903-0.74-3.131-0.341-5.949,3.16v8.994h-1.423V22.646l1.423-0.114v2.732
						c2.39-3.33,3.444-3.216,6.147-2.647L127.516,23.926z"/>
					<path fill="#FFFFFF" d="M130.732,29.875c0.171,3.899,2.22,5.151,4.696,5.151c1.252,0,2.619-0.313,3.928-0.797l0.199,1.309
						c-1.395,0.513-2.846,0.825-4.241,0.825c-3.244,0-6.005-1.793-6.005-7.03c0-5.066,2.419-7.03,5.835-7.03
						c3.33,0,5.579,2.619,4.867,7.571L130.732,29.875L130.732,29.875z M130.761,28.566h7.969c0.113-3.188-1.338-4.952-3.586-4.952
						C132.583,23.614,130.96,25.15,130.761,28.566z"/>
					<path fill="#FFFFFF" d="M166.025,22.304c1.765,0,3.587,1.025,3.587,4.469v9.307h-1.423v-9.307c0-2.134-0.939-3.159-2.249-3.159
						c-1.507,0-3.472,0.825-4.98,1.821c0.085,0.37,0.114,0.854,0.114,1.338v9.307h-1.423v-9.307c0-2.134-0.939-3.159-2.249-3.159
						c-1.537,0-3.331,1.081-4.867,2.049V36.08h-1.424V22.646l1.424-0.114v1.708c1.821-1.139,3.472-1.936,4.953-1.936
						c1.223,0,2.503,0.512,3.102,1.907C162.496,23.072,164.175,22.304,166.025,22.304z"/>
					<path fill="#FFFFFF" d="M181.111,26.573c0-2.22-0.967-2.959-2.419-2.959c-1.395,0-3.244,0.541-5.179,1.223l-0.199-1.309
						c1.821-0.684,3.814-1.225,5.378-1.225c2.306,0,3.843,1.082,3.843,4.271v9.506h-1.082l-0.256-1.793
						c-1.48,1.367-3.358,2.078-4.924,2.078c-1.907,0-3.501-1.024-3.501-3.387c0-2.391,1.508-4.127,8.339-4.611V26.573z
						 M181.111,32.665v-2.989c-5.721,0.427-6.917,1.764-6.917,3.216c0,1.708,1.167,2.163,2.078,2.163
						C178.122,35.055,179.944,34.059,181.111,32.665z M180.655,16.1l-2.618,4.497h-1.423l2.392-4.497H180.655z"/>
					<path fill="#FFFFFF" d="M186.605,34.201c1.053,0.484,2.476,0.854,3.728,0.854c1.651,0,3.017-0.626,3.017-2.476
						c0-3.103-7.087-2.477-7.087-6.774c0-2.448,1.993-3.501,4.298-3.501c1.252,0,2.59,0.286,3.785,0.854l-0.2,1.31
						c-0.967-0.484-2.362-0.854-3.585-0.854c-1.565,0-2.875,0.569-2.875,2.191c0,3.074,7.087,2.477,7.087,6.774
						c0,2.646-2.134,3.785-4.582,3.785c-1.253,0-2.619-0.312-3.786-0.854L186.605,34.201z"/>
					<path fill="#FFFFFF" d="M206.614,23.898h-2.305l0.113-1.309h2.192V18.32l1.423-0.114v4.383h4.439l-0.114,1.309h-4.325v7.685
						c0,1.85,0.483,3.473,2.561,3.473c0.569,0,1.48-0.114,2.277-0.342l0.142,1.224c-1.025,0.312-1.821,0.427-2.562,0.427
						c-2.988,0-3.842-2.305-3.842-4.667L206.614,23.898L206.614,23.898z"/>
					<path fill="#FFFFFF" d="M217.686,19.088c0,0.625-0.455,1.081-1.081,1.081s-1.082-0.456-1.082-1.081
						c0-0.626,0.456-1.081,1.082-1.081C217.23,18.007,217.686,18.462,217.686,19.088z M217.316,22.532V36.08h-1.423V22.646
						L217.316,22.532z"/>
					<path fill="#FFFFFF" d="M222.183,29.875c0.171,3.899,2.22,5.151,4.697,5.151c1.252,0,2.618-0.313,3.927-0.797l0.199,1.309
						c-1.394,0.513-2.846,0.825-4.241,0.825c-3.245,0-6.005-1.793-6.005-7.03c0-5.066,2.42-7.03,5.835-7.03
						c3.33,0,5.578,2.619,4.867,7.571L222.183,29.875L222.183,29.875z M222.211,28.566h7.969c0.114-3.188-1.337-4.952-3.586-4.952
						C224.032,23.614,222.411,25.15,222.211,28.566z"/>
					<path fill="#FFFFFF" d="M249.961,22.304c1.766,0,3.586,1.025,3.586,4.469v9.307h-1.423v-9.307c0-2.134-0.938-3.159-2.249-3.159
						c-1.507,0-3.471,0.825-4.98,1.821c0.085,0.37,0.114,0.854,0.114,1.338v9.307h-1.423v-9.307c0-2.134-0.939-3.159-2.249-3.159
						c-1.537,0-3.331,1.081-4.867,2.049V36.08h-1.423V22.646l1.423-0.114v1.708c1.822-1.139,3.473-1.936,4.952-1.936
						c1.224,0,2.505,0.512,3.103,1.907C246.432,23.072,248.111,22.304,249.961,22.304z"/>
					<path fill="#FFFFFF" d="M258.984,41.886L257.562,42V22.646l1.422-0.114v1.708c1.937-1.139,3.701-1.936,5.266-1.936
						c2.732,0,4.725,2.05,4.725,7.03c0,5.095-2.562,7.03-5.664,7.03c-1.394,0-2.931-0.398-4.326-1.024V41.886L258.984,41.886z
						 M263.311,35.055c2.306,0,4.242-1.509,4.242-5.75c0-4.07-1.423-5.692-3.302-5.692c-1.679,0-3.614,1.081-5.265,2.049v8.368
						C260.266,34.571,261.945,35.055,263.311,35.055z"/>
					<path fill="#FFFFFF" d="M277.971,22.304c3.643,0,6.09,2.164,6.09,7.03c0,4.896-2.449,7.03-6.09,7.03
						c-3.673,0-6.121-2.134-6.121-7.03C271.85,24.468,274.298,22.304,277.971,22.304z M277.971,35.055
						c2.788,0,4.666-1.737,4.666-5.721c0-3.956-1.879-5.72-4.666-5.72c-2.818,0-4.697,1.764-4.697,5.72
						C273.273,33.318,275.152,35.055,277.971,35.055z"/>
					<path fill="#FFFFFF" d="M295.9,23.898h-2.305l0.114-1.309h2.19V18.32l1.425-0.114v4.383h4.44l-0.115,1.309h-4.325v7.685
						c0,1.85,0.483,3.473,2.562,3.473c0.568,0,1.48-0.114,2.276-0.342l0.144,1.224c-1.026,0.312-1.822,0.427-2.562,0.427
						c-2.988,0-3.844-2.305-3.844-4.667V23.898L295.9,23.898z"/>
					<path fill="#FFFFFF" d="M305.465,29.875c0.17,3.899,2.22,5.151,4.695,5.151c1.253,0,2.619-0.313,3.928-0.797l0.2,1.309
						c-1.396,0.513-2.846,0.825-4.24,0.825c-3.246,0-6.006-1.793-6.006-7.03c0-5.066,2.419-7.03,5.835-7.03
						c3.33,0,5.578,2.619,4.867,7.571L305.465,29.875L305.465,29.875z M305.493,28.566h7.97c0.113-3.188-1.339-4.952-3.586-4.952
						C307.315,23.614,305.691,25.15,305.493,28.566z"/>
					<path fill="#FFFFFF" d="M336.688,41.886L335.265,42v-7.571c-1.935,1.139-3.699,1.935-5.265,1.935
						c-2.733,0-4.725-2.049-4.725-7.03c0-5.094,2.562-7.03,5.664-7.03c2.191,0,3.558,0.342,5.748,1.167V41.886z M330.939,23.614
						c-2.306,0-4.24,1.507-4.24,5.749c0,4.07,1.422,5.693,3.301,5.693c1.679,0,3.614-1.082,5.265-2.05v-8.652
						C333.757,23.784,332.306,23.614,330.939,23.614z"/>
					<path fill="#FFFFFF" d="M349.809,22.646l1.425-0.114V36.08h-1.139l-0.286-1.651c-1.935,1.139-3.698,1.935-5.265,1.935
						c-1.907,0-3.842-1.024-3.842-4.468v-9.25l1.423-0.114v9.364c0,2.135,1.025,3.16,2.419,3.16c1.679,0,3.614-1.082,5.265-2.05
						V22.646z"/>
					<path fill="#FFFFFF" d="M356.1,29.875c0.17,3.899,2.221,5.151,4.695,5.151c1.253,0,2.618-0.313,3.93-0.797l0.198,1.309
						c-1.395,0.513-2.846,0.825-4.24,0.825c-3.244,0-6.007-1.793-6.007-7.03c0-5.066,2.42-7.03,5.835-7.03
						c3.33,0,5.578,2.619,4.866,7.571L356.1,29.875L356.1,29.875z M356.128,28.566h7.97c0.113-3.188-1.338-4.952-3.587-4.952
						C357.949,23.614,356.326,25.15,356.128,28.566z"/>
					<path fill="#FFFFFF" d="M378.387,14.62l1.421-0.114V36.08h-1.138l-0.283-1.651c-1.938,1.139-3.7,1.935-5.267,1.935
						c-2.733,0-4.724-2.049-4.724-7.03c0-5.094,2.562-7.03,5.662-7.03c1.396,0,2.934,0.398,4.327,1.025L378.387,14.62L378.387,14.62
						z M374.06,23.614c-2.305,0-4.239,1.507-4.239,5.749c0,4.07,1.422,5.693,3.301,5.693c1.68,0,3.614-1.082,5.267-2.05v-8.367
						C377.105,24.097,375.426,23.614,374.06,23.614z"/>
					<path fill="#FFFFFF" d="M384.676,29.875c0.171,3.899,2.222,5.151,4.696,5.151c1.252,0,2.619-0.313,3.928-0.797l0.199,1.309
						c-1.394,0.513-2.846,0.825-4.24,0.825c-3.244,0-6.006-1.793-6.006-7.03c0-5.066,2.419-7.03,5.836-7.03
						c3.328,0,5.577,2.619,4.865,7.571L384.676,29.875L384.676,29.875z M384.704,28.566h7.97c0.114-3.188-1.337-4.952-3.585-4.952
						C386.525,23.614,384.903,25.15,384.704,28.566z"/>
					<path fill="#FFFFFF" d="M397.599,34.201c1.054,0.484,2.477,0.854,3.729,0.854c1.649,0,3.016-0.626,3.016-2.476
						c0-3.103-7.086-2.477-7.086-6.774c0-2.448,1.992-3.501,4.298-3.501c1.253,0,2.591,0.286,3.785,0.854l-0.199,1.31
						c-0.968-0.484-2.361-0.854-3.586-0.854c-1.565,0-2.874,0.569-2.874,2.191c0,3.074,7.087,2.477,7.087,6.774
						c0,2.646-2.136,3.785-4.581,3.785c-1.254,0-2.62-0.312-3.785-0.854L397.599,34.201z"/>
					<path fill="#FFFFFF" d="M410.605,33.091c0.854,2.447,0.37,4.382-0.77,6.831l-1.338-0.143c1.139-2.447,1.139-4.099,0.285-6.546
						L410.605,33.091z"/>
					<path fill="#FFFFFF" d="M95.097,54.669c1.764,0,3.585,1.025,3.585,4.469v9.306h-1.423v-9.306c0-2.135-0.939-3.16-2.249-3.16
						c-1.508,0-3.472,0.826-4.981,1.822c0.086,0.37,0.114,0.854,0.114,1.338v9.306H88.72v-9.306c0-2.135-0.939-3.16-2.248-3.16
						c-1.538,0-3.331,1.082-4.868,2.049v10.417h-1.423V55.011l1.423-0.114v1.708c1.822-1.139,3.472-1.936,4.952-1.936
						c1.224,0,2.505,0.513,3.103,1.907C91.567,55.437,93.246,54.669,95.097,54.669z"/>
					<path fill="#FFFFFF" d="M110.182,58.938c0-2.22-0.968-2.96-2.419-2.96c-1.395,0-3.244,0.541-5.18,1.224l-0.199-1.309
						c1.821-0.683,3.813-1.225,5.379-1.225c2.306,0,3.843,1.083,3.843,4.27v9.506h-1.082l-0.256-1.792
						c-1.48,1.366-3.358,2.078-4.924,2.078c-1.907,0-3.5-1.024-3.5-3.388c0-2.39,1.508-4.126,8.339-4.61L110.182,58.938
						L110.182,58.938z M110.182,65.029v-2.988c-5.721,0.427-6.917,1.765-6.917,3.216c0,1.708,1.167,2.163,2.078,2.163
						C107.193,67.42,109.015,66.424,110.182,65.029z M109.726,48.465l-2.618,4.497h-1.423l2.391-4.497H109.726z"/>
					<path fill="#FFFFFF" d="M115.675,66.566c1.054,0.484,2.476,0.854,3.728,0.854c1.651,0,3.017-0.626,3.017-2.477
						c0-3.102-7.087-2.476-7.087-6.773c0-2.447,1.993-3.501,4.298-3.501c1.253,0,2.59,0.286,3.786,0.854l-0.199,1.31
						c-0.968-0.485-2.362-0.854-3.586-0.854c-1.565,0-2.875,0.569-2.875,2.191c0,3.074,7.087,2.477,7.087,6.773
						c0,2.647-2.135,3.786-4.582,3.786c-1.253,0-2.619-0.313-3.786-0.854L115.675,66.566z"/>
					<path fill="#FFFFFF" d="M135.685,56.263h-2.306l0.114-1.309h2.192v-4.27l1.423-0.114v4.384h4.44l-0.114,1.309h-4.326v7.685
						c0,1.85,0.484,3.472,2.562,3.472c0.569,0,1.479-0.114,2.277-0.341l0.142,1.223c-1.024,0.314-1.821,0.428-2.562,0.428
						c-2.988,0-3.842-2.306-3.842-4.667V56.263z"/>
					<path fill="#FFFFFF" d="M145.249,62.24c0.171,3.899,2.22,5.151,4.696,5.151c1.252,0,2.619-0.312,3.928-0.797l0.199,1.309
						c-1.395,0.512-2.846,0.826-4.24,0.826c-3.246,0-6.005-1.793-6.005-7.03c0-5.066,2.419-7.03,5.834-7.03
						c3.331,0,5.579,2.619,4.867,7.571H145.249z M145.277,60.931h7.969c0.114-3.188-1.338-4.952-3.586-4.952
						C147.098,55.979,145.476,57.516,145.277,60.931z"/>
					<path fill="#FFFFFF" d="M165.059,61.699c0-5.18,2.789-7.03,6.005-7.03c1.223,0,2.504,0.256,3.7,0.712l-0.199,1.31
						c-1.167-0.456-2.334-0.712-3.416-0.712c-2.62,0-4.667,1.508-4.667,5.721c0,4.184,2.048,5.721,4.667,5.721
						c1.082,0,2.248-0.285,3.416-0.711l0.199,1.309c-1.195,0.455-2.477,0.711-3.7,0.711
						C167.848,68.729,165.059,66.879,165.059,61.699z"/>
					<path fill="#FFFFFF" d="M183.474,54.669c3.643,0,6.091,2.164,6.091,7.03c0,4.896-2.449,7.03-6.091,7.03
						c-3.672,0-6.119-2.135-6.119-7.03C177.354,56.833,179.802,54.669,183.474,54.669z M183.474,67.42
						c2.79,0,4.667-1.737,4.667-5.721c0-3.956-1.877-5.721-4.667-5.721c-2.817,0-4.696,1.765-4.696,5.721
						C178.778,65.683,180.656,67.42,183.474,67.42z"/>
					<path fill="#FFFFFF" d="M194.432,68.444h-1.424V55.011l1.424-0.114v1.708c1.935-1.139,3.7-1.936,5.265-1.936
						c1.908,0,3.843,1.025,3.843,4.469v9.306h-1.423v-9.306c0-2.135-1.025-3.16-2.42-3.16c-1.679,0-3.614,1.082-5.265,2.049V68.444z
						"/>
					<path fill="#FFFFFF" d="M207.61,66.566c1.053,0.484,2.476,0.854,3.728,0.854c1.652,0,3.017-0.626,3.017-2.477
						c0-3.102-7.086-2.476-7.086-6.773c0-2.447,1.992-3.501,4.297-3.501c1.252,0,2.59,0.286,3.785,0.854l-0.199,1.31
						c-0.968-0.485-2.362-0.854-3.586-0.854c-1.565,0-2.875,0.569-2.875,2.191c0,3.074,7.088,2.477,7.088,6.773
						c0,2.647-2.135,3.786-4.583,3.786c-1.252,0-2.619-0.313-3.786-0.854L207.61,66.566z"/>
					<path fill="#FFFFFF" d="M220.076,62.24c0.171,3.899,2.22,5.151,4.696,5.151c1.252,0,2.619-0.312,3.928-0.797l0.199,1.309
						c-1.395,0.512-2.847,0.826-4.241,0.826c-3.245,0-6.005-1.793-6.005-7.03c0-5.066,2.419-7.03,5.834-7.03
						c3.33,0,5.578,2.619,4.867,7.571H220.076z M220.105,60.931h7.97c0.113-3.188-1.338-4.952-3.587-4.952
						C221.927,55.979,220.304,57.516,220.105,60.931z"/>
					<path fill="#FFFFFF" d="M234.365,68.444h-1.422V55.011l1.422-0.114v1.708c1.936-1.139,3.7-1.936,5.266-1.936
						c1.906,0,3.842,1.025,3.842,4.469v9.306h-1.423v-9.306c0-2.135-1.025-3.16-2.419-3.16c-1.679,0-3.615,1.082-5.266,2.049V68.444
						L234.365,68.444z"/>
					<path fill="#FFFFFF" d="M248.369,56.263h-2.305l0.114-1.309h2.191v-4.27l1.423-0.114v4.384h4.438l-0.113,1.309h-4.326v7.685
						c0,1.85,0.484,3.472,2.561,3.472c0.57,0,1.481-0.114,2.277-0.341l0.143,1.223c-1.023,0.314-1.82,0.428-2.562,0.428
						c-2.987,0-3.842-2.306-3.842-4.667L248.369,56.263L248.369,56.263z"/>
					<path fill="#FFFFFF" d="M259.439,51.453c0,0.626-0.455,1.081-1.08,1.081c-0.627,0-1.084-0.455-1.084-1.081
						c0-0.625,0.457-1.081,1.084-1.081C258.984,50.372,259.439,50.828,259.439,51.453z M259.07,54.897v13.547h-1.422V55.011
						L259.07,54.897z"/>
					<path fill="#FFFFFF" d="M277.998,54.669c1.766,0,3.586,1.025,3.586,4.469v9.306h-1.423v-9.306c0-2.135-0.938-3.16-2.248-3.16
						c-1.509,0-3.474,0.826-4.981,1.822c0.086,0.37,0.114,0.854,0.114,1.338v9.306h-1.424v-9.306c0-2.135-0.938-3.16-2.248-3.16
						c-1.537,0-3.33,1.082-4.867,2.049v10.417h-1.423V55.011l1.423-0.114v1.708c1.821-1.139,3.472-1.936,4.952-1.936
						c1.225,0,2.504,0.513,3.104,1.907C274.469,55.437,276.148,54.669,277.998,54.669z"/>
					<path fill="#FFFFFF" d="M291.148,54.669c3.643,0,6.09,2.164,6.09,7.03c0,4.896-2.448,7.03-6.09,7.03
						c-3.672,0-6.119-2.135-6.119-7.03C285.029,56.833,287.477,54.669,291.148,54.669z M291.148,67.42
						c2.789,0,4.666-1.737,4.666-5.721c0-3.956-1.877-5.721-4.666-5.721c-2.818,0-4.696,1.765-4.696,5.721
						C286.452,65.683,288.33,67.42,291.148,67.42z"/>
					<path fill="#FFFFFF" d="M300.74,66.566c1.053,0.484,2.477,0.854,3.728,0.854c1.651,0,3.018-0.626,3.018-2.477
						c0-3.102-7.087-2.476-7.087-6.773c0-2.447,1.992-3.501,4.297-3.501c1.252,0,2.59,0.286,3.786,0.854l-0.2,1.31
						c-0.966-0.485-2.361-0.854-3.586-0.854c-1.564,0-2.875,0.569-2.875,2.191c0,3.074,7.088,2.477,7.088,6.773
						c0,2.647-2.134,3.786-4.582,3.786c-1.253,0-2.619-0.313-3.786-0.854L300.74,66.566z"/>
					<path fill="#FFFFFF" d="M314.174,67.392c0,0.683-0.513,1.196-1.196,1.196c-0.683,0-1.195-0.513-1.195-1.196
						s0.513-1.195,1.195-1.195C313.662,66.196,314.174,66.709,314.174,67.392z"/>
				</g>
				<g>
					<g>
						<path fill="#FFFFFF" d="M317.059,130.048l1.415-0.089v13.396h-1.236l-0.179-0.972c-1.13,0.689-2.173,1.149-3.091,1.149
							c-1.732,0-2.987-1.344-2.987-4.401c0-3.164,1.644-4.418,3.588-4.418c0.812,0,1.679,0.229,2.49,0.583V130.048z
							 M314.744,135.986c-1.271,0-2.333,0.83-2.333,3.162c0,2.229,0.778,3.059,1.82,3.059c0.884,0,1.909-0.548,2.827-1.043v-4.648
							C316.37,136.232,315.487,135.986,314.744,135.986z"/>
						<path fill="#FFFFFF" d="M321.602,139.626c0.07,1.997,1.149,2.669,2.562,2.669c0.795,0,1.626-0.213,2.456-0.479l0.195,1.186
							c-0.901,0.335-1.821,0.53-2.775,0.53c-2.191,0-3.853-1.167-3.853-4.401c0-3.164,1.59-4.418,3.781-4.418
							c2.174,0,3.623,1.625,3.164,4.913H321.602z M321.62,138.514h4.206c0.053-1.662-0.707-2.6-1.909-2.6
							C322.573,135.915,321.725,136.746,321.62,138.514z"/>
						<path fill="#FFFFFF" d="M333.797,136.162h-1.414l0.106-1.271h1.308v-2.634l1.414-0.089v2.723h2.598l-0.105,1.271h-2.492v4.189
							c0,1.078,0.282,1.907,1.414,1.907c0.335,0,0.883-0.069,1.361-0.194l0.124,1.185c-0.707,0.212-1.221,0.283-1.732,0.283
							c-2.015,0-2.581-1.484-2.581-3.058V136.162z"/>
						<path fill="#FFFFFF" d="M341.15,132.627c0,0.531-0.391,0.92-0.919,0.92c-0.529,0-0.92-0.389-0.92-0.92
							c0-0.529,0.39-0.919,0.92-0.919C340.761,131.708,341.15,132.098,341.15,132.627z M340.938,134.854v8.502h-1.413v-8.414
							L340.938,134.854z"/>
						<path fill="#FFFFFF" d="M344.065,139.626c0.07,1.997,1.148,2.669,2.562,2.669c0.795,0,1.626-0.213,2.457-0.479l0.195,1.186
							c-0.902,0.335-1.821,0.53-2.776,0.53c-2.19,0-3.853-1.167-3.853-4.401c0-3.164,1.59-4.418,3.782-4.418
							c2.175,0,3.623,1.625,3.164,4.913H344.065z M344.084,138.514h4.205c0.053-1.662-0.706-2.6-1.908-2.6
							C345.037,135.915,344.19,136.746,344.084,138.514z"/>
						<path fill="#FFFFFF" d="M361.103,134.713c1.149,0,2.228,0.688,2.228,2.811v5.832h-1.413v-5.586
							c0-1.184-0.513-1.715-1.237-1.715c-0.812,0-1.838,0.426-2.669,0.92c0.055,0.229,0.055,0.53,0.055,0.812v5.566h-1.414v-5.584
							c0-1.185-0.494-1.716-1.237-1.716c-0.796,0-1.75,0.531-2.599,1.026v6.273h-1.414v-8.412l1.414-0.09v1.008
							c1.131-0.707,2.139-1.147,3.021-1.147c0.761,0,1.521,0.317,1.892,1.13C358.965,135.139,359.988,134.713,361.103,134.713z"/>
						<path fill="#FFFFFF" d="M366.812,146.943l-1.415,0.105v-12.105l1.415-0.09v1.008c1.131-0.688,2.173-1.147,3.108-1.147
							c1.715,0,2.97,1.36,2.97,4.418c0,3.164-1.626,4.401-3.569,4.401c-0.812,0-1.696-0.23-2.509-0.583V146.943z M369.127,142.259
							c1.273,0,2.333-0.829,2.333-3.164c0-2.209-0.777-3.04-1.802-3.04c-0.884,0-1.91,0.531-2.846,1.026v4.647
							C367.502,142.012,368.403,142.259,369.127,142.259z"/>
						<path fill="#FFFFFF" d="M378.23,134.713c2.401,0,3.958,1.396,3.958,4.418s-1.557,4.401-3.958,4.401
							c-2.424,0-3.979-1.38-3.979-4.401C374.253,136.109,375.808,134.713,378.23,134.713z M378.23,142.259
							c1.501,0,2.524-0.919,2.524-3.128s-1.023-3.146-2.524-3.146c-1.521,0-2.547,0.938-2.547,3.146
							C375.685,141.34,376.71,142.259,378.23,142.259z"/>
						<path fill="#FFFFFF" d="M392.706,137.523c0-1.131-0.515-1.539-1.326-1.539c-0.796,0-1.892,0.301-3.146,0.707l-0.212-1.236
							c1.165-0.424,2.509-0.742,3.516-0.742c1.574,0,2.581,0.707,2.581,2.773v5.869h-1.079l-0.192-0.99
							c-0.938,0.796-1.999,1.167-2.917,1.167c-1.221,0-2.263-0.689-2.263-2.228c0-1.572,0.989-2.544,5.038-2.863V137.523z
							 M392.706,141.199v-1.68c-3.006,0.248-3.66,0.885-3.66,1.696c0,0.884,0.602,1.148,1.114,1.148
							C391.096,142.365,392.052,141.871,392.706,141.199z"/>
						<path fill="#FFFFFF" d="M397.812,132.627c0,0.531-0.39,0.92-0.92,0.92c-0.528,0-0.918-0.389-0.918-0.92
							c0-0.529,0.39-0.919,0.918-0.919C397.424,131.708,397.812,132.098,397.812,132.627z M397.601,134.854v8.502h-1.413v-8.414
							L397.601,134.854z"/>
						<path fill="#FFFFFF" d="M404.6,136.32c-1.695-0.459-1.908-0.299-3.518,1.716v5.319h-1.413v-8.412l1.413-0.09v1.609
							c1.433-1.927,2.104-1.927,3.695-1.556L404.6,136.32z"/>
						<path fill="#FFFFFF" d="M406.862,139.626c0.069,1.997,1.147,2.669,2.562,2.669c0.795,0,1.627-0.213,2.457-0.479l0.195,1.186
							c-0.902,0.335-1.822,0.53-2.776,0.53c-2.19,0-3.853-1.167-3.853-4.401c0-3.164,1.591-4.418,3.781-4.418
							c2.176,0,3.622,1.625,3.163,4.913H406.862z M406.879,138.514h4.208c0.053-1.662-0.709-2.6-1.909-2.6
							C407.834,135.915,406.985,136.746,406.879,138.514z"/>
						<path fill="#FFFFFF" d="M314.426,162.6c-0.248,0-0.495-0.019-0.707-0.035c-0.848,0.776-0.742,1.59,0.496,1.59h0.759
							c2.387,0,3.624,0.9,3.624,2.367c0,1.504-1.414,2.916-4.488,2.916c-2.315,0-3.306-1.041-3.306-2.226
							c0-0.831,0.513-1.715,1.573-2.351c-0.353-0.301-0.513-0.707-0.513-1.168c0-0.493,0.229-1.023,0.761-1.448
							c-0.955-0.441-1.414-1.29-1.414-2.438c0-1.731,1.078-2.828,3.216-2.828c0.496,0,0.938,0.07,1.326,0.176h2.722l-0.105,1.272
							h-1.024c0.194,0.388,0.3,0.866,0.3,1.378C317.643,161.521,316.546,162.6,314.426,162.6z M313.489,165.32
							c-0.866,0.494-1.29,1.185-1.29,1.785c0,0.672,0.601,1.237,1.997,1.237c1.943,0,3.005-0.776,3.005-1.696
							c0-0.778-0.831-1.272-2.386-1.272h-0.689C313.896,165.374,313.683,165.355,313.489,165.32z M314.426,158.127
							c-1.236,0-1.854,0.655-1.854,1.68c0,0.99,0.619,1.662,1.854,1.662c1.237,0,1.856-0.672,1.856-1.662
							C316.282,158.782,315.663,158.127,314.426,158.127z"/>
						<path fill="#FFFFFF" d="M324.889,158.587c-1.696-0.46-1.907-0.3-3.517,1.714v5.319h-1.414v-8.413l1.414-0.088v1.607
							c1.432-1.927,2.103-1.927,3.694-1.556L324.889,158.587z"/>
						<path fill="#FFFFFF" d="M330.598,159.789c0-1.131-0.513-1.538-1.324-1.538c-0.796,0-1.893,0.301-3.146,0.707l-0.212-1.237
							c1.167-0.424,2.51-0.742,3.517-0.742c1.573,0,2.581,0.707,2.581,2.774v5.867h-1.078l-0.193-0.989
							c-0.938,0.795-1.998,1.166-2.917,1.166c-1.221,0-2.264-0.688-2.264-2.226c0-1.573,0.991-2.544,5.038-2.863L330.598,159.789
							L330.598,159.789z M330.598,163.465v-1.679c-3.005,0.248-3.658,0.884-3.658,1.696c0,0.884,0.601,1.149,1.113,1.149
							C328.989,164.631,329.943,164.136,330.598,163.465z"/>
						<path fill="#FFFFFF" d="M334.645,158.428h-1.412l0.104-1.271h1.308v-2.635l1.414-0.088v2.723h2.6l-0.107,1.271h-2.492v4.189
							c0,1.076,0.283,1.908,1.414,1.908c0.336,0,0.885-0.07,1.362-0.194l0.124,1.185c-0.707,0.211-1.22,0.281-1.732,0.281
							c-2.015,0-2.58-1.484-2.58-3.057v-4.312H334.645z"/>
						<path fill="#FFFFFF" d="M341.998,154.893c0,0.53-0.389,0.92-0.919,0.92s-0.918-0.39-0.918-0.92
							c0-0.529,0.389-0.918,0.918-0.918C341.609,153.975,341.998,154.363,341.998,154.893z M341.786,157.12v8.5h-1.414v-8.413
							L341.786,157.12z"/>
						<path fill="#FFFFFF" d="M343.978,164.064c0.706,0.301,1.66,0.496,2.422,0.496c0.865,0,1.572-0.318,1.536-1.291
							c-0.017-1.555-4.312-1.166-4.312-3.959c0-1.59,1.202-2.332,2.934-2.332c0.831,0,1.714,0.177,2.527,0.514l-0.211,1.219
							c-0.655-0.283-1.609-0.495-2.334-0.495c-0.83,0-1.521,0.3-1.484,1.166c0.019,1.539,4.312,1.167,4.312,3.959
							c0,1.679-1.273,2.456-3.075,2.456c-0.832,0-1.732-0.176-2.509-0.512L343.978,164.064z"/>
						<path fill="#FFFFFF" d="M359.866,159.789c0-1.131-0.514-1.538-1.325-1.538c-0.796,0-1.892,0.301-3.146,0.707l-0.212-1.237
							c1.166-0.424,2.511-0.742,3.519-0.742c1.571,0,2.58,0.707,2.58,2.774v5.867h-1.078l-0.195-0.989
							c-0.936,0.795-1.997,1.166-2.916,1.166c-1.219,0-2.263-0.688-2.263-2.226c0-1.573,0.991-2.544,5.038-2.863L359.866,159.789
							L359.866,159.789z M359.866,163.465v-1.679c-3.005,0.248-3.658,0.884-3.658,1.696c0,0.884,0.601,1.149,1.113,1.149
							C358.258,164.631,359.213,164.136,359.866,163.465z"/>
						<path fill="#FFFFFF" d="M364.762,152.225V163.5c0,1.096,0.602,1.219,2.21,0.743l0.122,1.219
							c-0.651,0.194-1.219,0.335-1.873,0.335c-1.077,0-1.873-0.564-1.873-2.138v-11.347L364.762,152.225z"/>
						<path fill="#FFFFFF" d="M376.815,159.789c0-1.131-0.513-1.538-1.326-1.538c-0.796,0-1.892,0.301-3.146,0.707l-0.212-1.237
							c1.165-0.424,2.509-0.742,3.518-0.742c1.572,0,2.581,0.707,2.581,2.774v5.867h-1.079l-0.193-0.989
							c-0.938,0.795-1.998,1.166-2.917,1.166c-1.22,0-2.263-0.688-2.263-2.226c0-1.573,0.989-2.544,5.037-2.863V159.789z
							 M376.815,163.465v-1.679c-3.005,0.248-3.659,0.884-3.659,1.696c0,0.884,0.602,1.149,1.113,1.149
							C375.208,164.631,376.161,164.136,376.815,163.465z"/>
						<path fill="#FFFFFF" d="M381.712,165.621h-1.415v-8.413l1.415-0.088v1.007c1.22-0.707,2.279-1.148,3.215-1.148
							c1.203,0,2.386,0.653,2.386,2.811v5.832H385.9v-5.585c0-1.183-0.549-1.714-1.345-1.714c-0.884,0-1.927,0.531-2.845,1.025
							L381.712,165.621L381.712,165.621z M382.755,153.673c1.041,0,1.521,0.99,2.066,0.99c0.336,0,0.585-0.3,0.707-0.813
							l1.024,0.213c-0.143,1.043-0.899,1.75-1.714,1.75c-1.044,0-1.538-0.99-2.085-0.99c-0.336,0-0.602,0.301-0.725,0.812
							l-1.008-0.176C381.164,154.363,381.924,153.673,382.755,153.673z"/>
						<path fill="#FFFFFF" d="M393.005,156.979c2.403,0,3.959,1.396,3.959,4.418c0,3.023-1.556,4.4-3.959,4.4
							c-2.421,0-3.977-1.377-3.977-4.4C389.028,158.374,390.584,156.979,393.005,156.979z M393.005,164.525
							c1.502,0,2.528-0.92,2.528-3.129s-1.026-3.146-2.528-3.146c-1.519,0-2.545,0.937-2.545,3.146S391.486,164.525,393.005,164.525
							z"/>
					</g>
					<g>
						<g>
							<path fill="#FFC70B" d="M117.075,176.676v-39.639l-11.606,4.738v-14.529l14.765-6h11.844v55.431L117.075,176.676
								L117.075,176.676z"/>
							<path fill="#FFC70B" d="M146.386,166.314c2.585,7.394,1.022,13.885-2.284,21.277l-8.234-0.841
								c3.306-7.394,3.426-12.201,0.842-19.593L146.386,166.314z"/>
							<path fill="#FFC70B" d="M192.662,135.537c0,5.843-2.842,9.792-7.896,12.949c6.632,3.475,9.476,8.054,9.476,13.897
								c0,10.343-8.686,15.081-21.714,15.081c-13.029,0-21.715-4.738-21.715-15.081c0-5.844,2.843-10.423,9.475-13.897
								c-5.053-3.158-7.896-7.106-7.896-12.949c0-7.58,6.475-15.081,20.135-15.081C186.187,120.456,192.662,127.957,192.662,135.537
								z M165.815,160.883c0,2.369,2.211,3.949,6.712,3.949s6.712-1.58,6.712-3.949c0-1.578-1.106-4.658-6.712-6.79
								C166.921,156.225,165.815,159.305,165.815,160.883z M177.66,137.037c0-1.737-1.185-3.948-5.133-3.948
								c-3.948,0-5.133,2.21-5.133,3.948c0,1.421,1.027,4.58,5.133,6.002C176.633,141.616,177.66,138.458,177.66,137.037z"/>
							<path fill="#FFC70B" d="M221.725,120.456c13.976,0,23.688,7.737,23.688,28.504s-9.712,28.505-23.688,28.505
								s-23.688-7.738-23.688-28.505S207.749,120.456,221.725,120.456z M221.725,164.042c4.265,0,7.896-3.08,7.896-15.082
								c0-11.923-3.711-15.082-7.896-15.082s-7.896,3.158-7.896,15.082C213.829,160.883,217.54,164.042,221.725,164.042z"/>
							<path fill="#FFC70B" d="M272.999,120.456c13.976,0,23.688,7.737,23.688,28.504s-9.713,28.505-23.688,28.505
								s-23.688-7.738-23.688-28.505S259.021,120.456,272.999,120.456z M272.999,164.042c4.265,0,7.896-3.08,7.896-15.082
								c0-11.923-3.711-15.082-7.896-15.082s-7.896,3.158-7.896,15.082C265.104,160.883,268.814,164.042,272.999,164.042z"/>
						</g>
					</g>
					<g>
						<path fill="#FFC70B" d="M95.737,147.766c2.4,0.203,4.923,0.651,6.999,1.342l-1.302,6.838c-2.645-0.773-6.47-1.344-8.993-1.344
							c-2.156,0-2.563,1.668-2.237,2.809c0.488,1.709,13.591,1.059,13.591,10.662c0,4.842-2.441,7.935-8.057,8.748v4.396
							l-5.697,0.406v-4.64c-2.401-0.202-4.965-0.609-7-1.342l1.303-6.836c2.645,0.772,6.47,1.342,8.993,1.342
							c2.157,0,2.563-1.668,2.238-2.808c-0.488-1.71-13.591-1.058-13.591-10.662c0-4.843,2.401-7.934,8.058-8.749v-4.395
							l5.697-0.407v4.64H95.737z"/>
					</g>
				</g>
			</g>
		</g>
	</g>
</g>
</svg>
